{"glyphs":{"0":{"ha":833,"x_min":100,"x_max":733,"o":"m 415 -14 q 180 118 260 -14 q 100 497 100 249 q 415 1007 100 1007 q 653 876 572 1007 q 733 497 733 745 q 415 -14 733 -14 m 415 92 q 562 187 515 92 q 608 497 608 282 q 562 806 608 711 q 415 901 515 901 q 271 807 317 901 q 225 497 225 712 q 271 186 225 281 q 415 92 317 92 z "},"1":{"ha":833,"x_min":153,"x_max":514,"o":"m 514 0 l 395 0 l 395 619 q 400 864 395 702 q 318 787 374 835 l 218 705 l 153 789 l 412 991 l 514 991 l 514 0 z "},"2":{"ha":833,"x_min":107,"x_max":725,"o":"m 725 0 l 107 0 l 107 106 l 345 364 q 519 579 477 509 q 561 736 561 650 q 518 857 561 812 q 401 901 475 901 q 186 808 293 901 l 117 889 q 403 1006 247 1006 q 610 934 534 1006 q 686 741 686 862 q 646 575 686 660 q 449 321 606 490 l 258 118 l 258 113 l 725 113 l 725 0 z "},"3":{"ha":833,"x_min":89,"x_max":715,"o":"m 471 522 l 471 518 q 715 282 715 486 q 622 65 715 144 q 351 -14 528 -14 q 89 40 187 -14 l 89 155 q 349 90 214 90 q 589 286 589 90 q 330 461 589 461 l 240 461 l 240 564 l 330 564 q 498 615 439 564 q 558 751 558 667 q 512 861 558 821 q 389 901 466 901 q 155 819 268 901 l 93 904 q 389 1006 220 1006 q 607 939 528 1006 q 685 760 685 871 q 629 603 685 666 q 471 522 574 540 z "},"4":{"ha":833,"x_min":41,"x_max":764,"o":"m 764 222 l 619 222 l 619 0 l 500 0 l 500 222 l 41 222 l 41 330 l 492 997 l 619 997 l 619 335 l 764 335 l 764 222 m 500 335 l 500 576 q 509 869 500 696 l 503 869 q 441 747 478 800 l 163 335 l 500 335 z "},"5":{"ha":833,"x_min":117,"x_max":715,"o":"m 117 40 l 117 157 q 361 92 214 92 q 589 304 589 92 q 355 504 589 504 q 199 486 295 504 l 138 525 l 175 991 l 643 991 l 643 879 l 282 879 l 256 595 q 397 608 328 608 q 628 531 540 608 q 715 318 715 453 q 622 73 715 159 q 358 -14 528 -14 q 117 40 206 -14 z "},"6":{"ha":833,"x_min":104,"x_max":729,"o":"m 654 993 l 654 888 q 542 904 606 904 q 314 808 390 904 q 231 505 237 713 l 239 505 q 447 621 303 621 q 654 540 579 621 q 729 319 729 459 q 647 76 729 165 q 428 -14 566 -14 q 192 101 280 -14 q 104 424 104 215 q 538 1006 104 1006 q 654 993 608 1006 m 610 319 q 563 471 610 418 q 431 524 517 524 q 286 469 345 524 q 228 343 228 414 q 283 165 228 240 q 427 90 338 90 q 561 150 513 90 q 610 319 610 210 z "},"7":{"ha":833,"x_min":97,"x_max":734,"o":"m 227 0 l 608 879 l 97 879 l 97 991 l 734 991 l 734 893 l 358 0 l 227 0 z "},"8":{"ha":833,"x_min":106,"x_max":728,"o":"m 518 525 q 728 258 728 416 q 642 61 728 136 q 416 -14 557 -14 q 188 57 270 -14 q 106 253 106 127 q 297 519 106 427 q 138 770 138 618 q 217 943 138 879 q 416 1007 296 1007 q 618 943 541 1007 q 696 768 696 878 q 518 525 696 612 m 418 575 q 575 764 575 645 q 532 868 575 832 q 415 904 490 904 q 301 868 343 904 q 258 764 258 832 q 292 660 258 703 q 418 575 326 618 m 399 472 q 227 252 227 390 q 414 89 227 89 q 556 133 506 89 q 607 257 607 178 q 564 365 607 318 q 419 463 522 412 l 399 472 z "},"9":{"ha":833,"x_min":104,"x_max":729,"o":"m 179 -1 l 179 104 q 292 87 224 87 q 520 183 444 87 q 603 486 596 279 l 595 486 q 386 371 530 371 q 179 451 254 371 q 104 672 104 531 q 186 916 104 827 q 406 1006 268 1006 q 642 890 555 1006 q 729 568 729 774 q 296 -14 729 -14 q 179 -1 224 -14 m 224 672 q 270 521 224 574 q 403 468 317 468 q 547 523 489 468 q 606 648 606 578 q 551 826 606 751 q 407 901 497 901 q 272 842 320 901 q 224 672 224 783 z "}," ":{"ha":833,"x_min":0,"x_max":0,"o":""},"!":{"ha":833,"x_min":330,"x_max":503,"o":"m 458 281 l 376 281 l 342 991 l 493 991 l 458 281 m 416 170 q 503 75 503 170 q 416 -20 503 -20 q 330 75 330 -20 q 416 170 330 170 z "},"\"":{"ha":833,"x_min":193,"x_max":640,"o":"m 354 991 l 326 633 l 221 633 l 193 991 l 354 991 m 640 991 l 612 633 l 507 633 l 479 991 l 640 991 z "},"#":{"ha":833,"x_min":31,"x_max":803,"o":"m 635 606 l 591 383 l 754 383 l 754 290 l 574 290 l 518 0 l 418 0 l 475 290 l 278 290 l 222 0 l 125 0 l 178 290 l 31 290 l 31 383 l 196 383 l 240 606 l 82 606 l 82 699 l 257 699 l 313 991 l 412 991 l 357 699 l 555 699 l 612 991 l 710 991 l 653 699 l 803 699 l 803 606 l 635 606 m 296 383 l 493 383 l 536 606 l 339 606 l 296 383 z "},"$":{"ha":833,"x_min":123,"x_max":708,"o":"m 464 75 l 464 -81 l 371 -81 l 371 69 q 123 117 216 69 l 123 233 q 371 171 256 171 l 371 465 q 188 564 240 509 q 135 713 135 619 q 197 860 135 802 q 371 932 260 918 l 371 1054 l 464 1054 l 464 935 q 692 882 591 928 l 647 783 q 464 832 552 825 l 464 546 q 653 445 599 500 q 708 302 708 391 q 464 75 708 113 m 371 579 l 371 829 q 254 711 254 810 q 282 629 254 659 q 371 579 309 600 m 464 431 l 464 178 q 589 302 589 197 q 464 431 589 389 z "},"%":{"ha":833,"x_min":0,"x_max":833,"o":"m 197 532 q 54 596 109 532 q 0 768 0 660 q 54 941 0 880 q 200 1003 107 1003 q 342 940 288 1003 q 397 768 397 877 q 344 595 397 659 q 197 532 291 532 m 199 612 q 293 768 293 612 q 199 921 293 921 q 103 768 103 921 q 199 612 103 612 m 717 991 l 222 0 l 115 0 l 610 991 l 717 991 m 633 -12 q 491 52 545 -12 q 436 224 436 116 q 490 397 436 335 q 636 458 543 458 q 779 395 724 458 q 833 224 833 332 q 780 51 833 115 q 633 -12 727 -12 m 635 68 q 729 224 729 68 q 635 376 729 376 q 539 224 539 376 q 635 68 539 68 z "},"&":{"ha":833,"x_min":41,"x_max":832,"o":"m 408 526 l 599 290 q 669 471 647 372 l 794 471 q 673 197 758 312 l 832 0 l 685 0 l 596 113 q 317 -14 478 -14 q 115 59 189 -14 q 41 258 41 132 q 84 413 41 347 q 244 549 127 479 q 134 790 134 679 q 198 949 134 890 q 385 1007 263 1007 q 561 949 498 1007 q 624 790 624 891 q 408 526 624 652 m 345 608 q 469 702 435 662 q 503 793 503 743 q 469 874 503 843 q 380 905 435 905 q 288 875 321 905 q 254 790 254 845 q 345 608 254 710 m 528 195 l 309 467 q 171 262 171 383 q 216 143 171 191 q 325 96 262 96 q 528 195 433 96 z "},"'":{"ha":833,"x_min":336,"x_max":497,"o":"m 497 991 l 469 633 l 364 633 l 336 991 l 497 991 z "},"(":{"ha":833,"x_min":200,"x_max":632,"o":"m 501 991 l 632 991 q 328 386 328 736 q 631 -220 328 33 l 501 -220 q 200 385 200 20 q 501 991 200 745 z "},")":{"ha":833,"x_min":201,"x_max":633,"o":"m 332 -220 l 203 -220 q 505 386 505 32 q 201 991 505 737 l 332 991 q 633 385 633 747 q 332 -220 633 18 z "},"*":{"ha":833,"x_min":90,"x_max":743,"o":"m 485 1055 l 456 789 l 725 864 l 743 733 l 486 714 l 653 493 l 532 428 l 412 671 l 306 428 l 180 493 l 345 714 l 90 733 l 110 864 l 375 789 l 346 1055 l 485 1055 z "},"+":{"ha":833,"x_min":103,"x_max":729,"o":"m 366 439 l 103 439 l 103 541 l 366 541 l 366 804 l 467 804 l 467 541 l 729 541 l 729 439 l 467 439 l 467 178 l 366 178 l 366 439 z "},",":{"ha":833,"x_min":298,"x_max":533,"o":"m 522 178 l 533 161 q 401 -196 494 9 l 298 -196 q 374 178 350 23 l 522 178 z "},"-":{"ha":833,"x_min":193,"x_max":640,"o":"m 193 315 l 193 429 l 640 429 l 640 315 l 193 315 z "},".":{"ha":833,"x_min":314,"x_max":519,"o":"m 416 204 q 519 92 519 204 q 416 -21 519 -21 q 314 92 314 -21 q 416 204 314 204 z "},"/":{"ha":833,"x_min":143,"x_max":689,"o":"m 689 991 l 264 0 l 143 0 l 568 991 l 689 991 z "},":":{"ha":833,"x_min":330,"x_max":503,"o":"m 416 764 q 503 669 503 764 q 416 575 503 575 q 330 669 330 575 q 416 764 330 764 m 416 170 q 503 75 503 170 q 416 -20 503 -20 q 330 75 330 -20 q 416 170 330 170 z "},";":{"ha":833,"x_min":278,"x_max":507,"o":"m 421 764 q 507 669 507 764 q 421 575 507 575 q 335 669 335 575 q 421 764 335 764 m 481 161 l 490 146 q 371 -179 456 12 l 278 -179 q 346 161 320 -6 l 481 161 z "},"<":{"ha":833,"x_min":103,"x_max":729,"o":"m 729 150 l 103 456 l 103 525 l 729 831 l 729 722 l 244 490 l 729 258 l 729 150 z "},"=":{"ha":833,"x_min":103,"x_max":729,"o":"m 103 578 l 103 679 l 729 679 l 729 578 l 103 578 m 103 300 l 103 401 l 729 401 l 729 300 l 103 300 z "},">":{"ha":833,"x_min":103,"x_max":729,"o":"m 103 258 l 587 490 l 103 722 l 103 831 l 729 525 l 729 456 l 103 150 l 103 258 z "},"?":{"ha":833,"x_min":114,"x_max":718,"o":"m 315 281 l 315 306 q 347 438 315 387 q 456 545 378 489 q 572 650 544 610 q 600 757 600 689 q 550 858 600 819 q 410 897 499 897 q 158 836 292 897 l 114 940 q 403 1006 256 1006 q 633 940 548 1006 q 718 762 718 873 q 682 616 718 672 q 549 486 646 559 q 446 391 469 427 q 424 293 424 354 l 424 281 l 315 281 m 375 170 q 461 75 461 170 q 375 -20 461 -20 q 289 75 289 -20 q 375 170 289 170 z "},"@":{"ha":833,"x_min":21,"x_max":812,"o":"m 542 272 l 539 272 q 383 150 489 150 q 254 221 302 150 q 207 411 207 292 q 273 636 207 551 q 446 722 338 722 q 619 690 538 722 l 604 408 q 603 361 603 382 l 603 357 q 652 237 603 237 q 720 497 720 237 q 644 793 720 686 q 441 900 569 900 q 202 770 288 900 q 117 412 117 640 q 204 85 117 201 q 454 -31 292 -31 q 689 22 577 -31 l 689 -68 q 450 -123 582 -123 q 135 17 248 -123 q 21 408 21 157 q 134 834 21 677 q 443 991 248 991 q 712 859 611 991 q 812 496 812 726 q 769 244 812 339 q 648 150 726 150 q 542 272 562 150 m 510 621 q 440 635 473 635 q 348 571 380 635 q 315 408 315 508 q 401 237 315 237 q 500 449 490 237 l 510 621 z "},"A":{"ha":833,"x_min":22,"x_max":811,"o":"m 681 0 l 583 307 l 250 307 l 151 0 l 22 0 l 350 996 l 482 996 l 811 0 l 681 0 m 547 419 l 457 707 q 415 860 431 791 q 384 736 401 793 l 286 419 l 547 419 z "},"B":{"ha":833,"x_min":92,"x_max":771,"o":"m 92 991 l 390 991 q 660 932 576 991 q 743 741 743 873 q 690 596 743 654 q 546 526 637 538 l 546 519 q 771 288 771 483 q 685 77 771 153 q 449 0 598 0 l 92 0 l 92 991 m 218 571 l 411 571 q 565 608 517 571 q 614 732 614 646 q 562 848 614 813 q 397 884 510 884 l 218 884 l 218 571 m 218 465 l 218 107 l 427 107 q 637 293 637 107 q 418 465 637 465 l 218 465 z "},"C":{"ha":833,"x_min":87,"x_max":800,"o":"m 762 136 l 762 26 q 519 -14 663 -14 q 199 119 310 -14 q 87 497 87 252 q 209 869 87 732 q 541 1006 330 1006 q 800 947 690 1006 l 747 842 q 541 895 643 895 q 308 787 395 895 q 221 496 221 680 q 302 199 221 301 q 541 97 384 97 q 762 136 629 97 z "},"D":{"ha":833,"x_min":92,"x_max":778,"o":"m 92 0 l 92 991 l 323 991 q 658 863 538 991 q 778 505 778 735 q 654 130 778 260 q 296 0 530 0 l 92 0 m 218 884 l 218 109 l 283 109 q 644 501 644 109 q 310 884 644 884 l 218 884 z "},"E":{"ha":833,"x_min":147,"x_max":718,"o":"m 718 0 l 147 0 l 147 991 l 718 991 l 718 880 l 273 880 l 273 574 l 692 574 l 692 464 l 273 464 l 273 111 l 718 111 l 718 0 z "},"F":{"ha":833,"x_min":165,"x_max":736,"o":"m 292 0 l 165 0 l 165 991 l 736 991 l 736 880 l 292 880 l 292 530 l 710 530 l 710 419 l 292 419 l 292 0 z "},"G":{"ha":833,"x_min":79,"x_max":742,"o":"m 456 524 l 742 524 l 742 37 q 457 -14 610 -14 q 179 122 279 -14 q 79 497 79 257 q 189 870 79 735 q 492 1006 299 1006 q 726 947 622 1006 l 677 838 q 488 895 578 895 q 285 789 357 895 q 212 496 212 684 q 479 97 212 97 q 616 117 545 97 l 616 412 l 456 412 l 456 524 z "},"H":{"ha":833,"x_min":92,"x_max":742,"o":"m 742 0 l 615 0 l 615 463 l 218 463 l 218 0 l 92 0 l 92 991 l 218 991 l 218 574 l 615 574 l 615 991 l 742 991 l 742 0 z "},"I":{"ha":833,"x_min":153,"x_max":679,"o":"m 679 0 l 153 0 l 153 83 l 353 97 l 353 895 l 153 908 l 153 991 l 679 991 l 679 908 l 479 895 l 479 97 l 679 83 l 679 0 z "},"J":{"ha":833,"x_min":93,"x_max":664,"o":"m 93 26 l 93 139 q 302 97 203 97 q 475 151 412 97 q 538 304 538 205 l 538 991 l 664 991 l 664 306 q 569 73 664 159 q 313 -14 473 -14 q 93 26 165 -14 z "},"K":{"ha":833,"x_min":143,"x_max":812,"o":"m 812 0 l 669 0 l 364 473 l 269 396 l 269 0 l 143 0 l 143 991 l 269 991 l 269 496 l 351 610 l 659 991 l 800 991 l 447 559 l 812 0 z "},"L":{"ha":833,"x_min":158,"x_max":715,"o":"m 158 0 l 158 991 l 285 991 l 285 113 l 715 113 l 715 0 l 158 0 z "},"M":{"ha":833,"x_min":77,"x_max":757,"o":"m 361 0 l 172 868 l 167 868 q 179 593 179 688 l 179 0 l 77 0 l 77 991 l 244 991 l 412 183 l 416 183 l 586 991 l 757 991 l 757 0 l 653 0 l 653 602 q 663 867 653 671 l 657 867 l 465 0 l 361 0 z "},"N":{"ha":833,"x_min":92,"x_max":741,"o":"m 741 0 l 595 0 l 201 821 l 196 821 q 208 538 208 633 l 208 0 l 92 0 l 92 991 l 236 991 l 628 175 l 632 175 q 623 449 623 380 l 623 991 l 741 991 l 741 0 z "},"O":{"ha":833,"x_min":57,"x_max":778,"o":"m 418 -14 q 57 498 57 -14 q 419 1007 57 1007 q 685 874 593 1007 q 778 497 778 742 q 684 119 778 252 q 418 -14 591 -14 m 418 97 q 590 195 535 97 q 644 497 644 294 q 589 799 644 703 q 419 896 534 896 q 191 497 191 896 q 418 97 191 97 z "},"P":{"ha":833,"x_min":119,"x_max":742,"o":"m 245 386 l 245 0 l 119 0 l 119 991 l 393 991 q 742 701 742 991 q 648 469 742 553 q 375 386 554 386 l 245 386 m 245 493 l 361 493 q 553 542 495 493 q 611 694 611 591 q 382 884 611 884 l 245 884 l 245 493 z "},"Q":{"ha":833,"x_min":57,"x_max":778,"o":"m 585 26 q 774 -184 642 -96 l 692 -281 q 469 -9 532 -165 q 418 -14 445 -14 q 57 498 57 -14 q 419 1007 57 1007 q 685 874 593 1007 q 778 497 778 742 q 585 26 778 140 m 418 97 q 590 195 535 97 q 644 497 644 294 q 589 799 644 703 q 419 896 534 896 q 191 497 191 896 q 418 97 191 97 z "},"R":{"ha":833,"x_min":126,"x_max":794,"o":"m 253 410 l 253 0 l 126 0 l 126 991 l 368 991 q 721 710 721 991 q 525 444 721 515 l 794 0 l 646 0 l 408 410 l 253 410 m 253 517 l 364 517 q 535 562 480 517 q 590 704 590 606 q 536 842 590 800 q 361 884 481 884 l 253 884 l 253 517 z "},"S":{"ha":833,"x_min":96,"x_max":737,"o":"m 96 33 l 96 154 q 376 96 239 96 q 614 258 614 96 q 566 367 614 329 q 372 457 518 405 q 170 575 231 507 q 109 754 109 644 q 196 939 109 872 q 435 1006 283 1006 q 717 953 590 1006 l 673 842 q 429 895 543 895 q 231 753 231 895 q 275 642 231 684 q 458 551 319 600 q 681 428 625 492 q 737 265 737 365 q 643 61 737 135 q 376 -14 549 -14 q 96 33 197 -14 z "},"T":{"ha":833,"x_min":69,"x_max":762,"o":"m 479 0 l 353 0 l 353 880 l 69 880 l 69 991 l 762 991 l 762 880 l 479 880 l 479 0 z "},"U":{"ha":833,"x_min":85,"x_max":749,"o":"m 749 993 l 749 350 q 663 80 749 174 q 412 -14 578 -14 q 85 353 85 -14 l 85 991 l 211 991 l 211 359 q 419 97 211 97 q 623 361 619 97 l 623 993 l 749 993 z "},"V":{"ha":833,"x_min":22,"x_max":811,"o":"m 676 991 l 811 991 l 479 0 l 353 0 l 22 991 l 155 991 l 355 363 q 415 136 383 277 q 478 367 436 235 l 676 991 z "},"W":{"ha":833,"x_min":1,"x_max":832,"o":"m 358 684 l 478 684 l 576 330 q 625 122 618 182 q 669 542 627 158 l 717 991 l 832 991 l 705 0 l 576 0 l 463 393 q 418 585 435 487 q 374 392 396 467 l 268 0 l 139 0 l 1 991 l 117 991 l 176 542 q 203 286 192 422 q 215 122 215 149 q 262 334 231 224 l 358 684 z "},"X":{"ha":833,"x_min":36,"x_max":796,"o":"m 796 0 l 653 0 l 412 431 l 164 0 l 36 0 l 343 518 l 57 991 l 192 991 l 416 612 l 643 991 l 772 991 l 486 522 l 796 0 z "},"Y":{"ha":833,"x_min":22,"x_max":810,"o":"m 415 490 l 673 991 l 810 991 l 479 386 l 479 0 l 353 0 l 353 379 l 22 991 l 160 991 l 415 490 z "},"Z":{"ha":833,"x_min":69,"x_max":762,"o":"m 762 0 l 69 0 l 69 98 l 607 879 l 83 879 l 83 991 l 749 991 l 749 893 l 211 113 l 762 113 l 762 0 z "},"[":{"ha":833,"x_min":279,"x_max":637,"o":"m 637 -220 l 279 -220 l 279 991 l 637 991 l 637 890 l 403 890 l 403 -118 l 637 -118 l 637 -220 z "},"\\":{"ha":833,"x_min":143,"x_max":689,"o":"m 264 991 l 689 0 l 568 0 l 143 991 l 264 991 z "},"]":{"ha":833,"x_min":196,"x_max":554,"o":"m 196 -118 l 431 -118 l 431 890 l 196 890 l 196 991 l 554 991 l 554 -220 l 196 -220 l 196 -118 z "},"^":{"ha":833,"x_min":75,"x_max":758,"o":"m 75 372 l 363 999 l 432 999 l 758 372 l 648 372 l 399 871 l 183 372 l 75 372 z "},"_":{"ha":833,"x_min":-11,"x_max":843,"o":"m 843 -220 l -11 -220 l -11 -125 l 843 -125 l 843 -220 z "},"`":{"ha":833,"x_min":283,"x_max":550,"o":"m 550 842 l 468 842 q 283 1050 355 938 l 283 1064 l 432 1064 q 550 860 490 943 l 550 842 z "},"a":{"ha":833,"x_min":92,"x_max":696,"o":"m 607 0 l 582 103 l 576 103 q 469 12 524 37 q 328 -14 414 -14 q 154 45 217 -14 q 92 208 92 103 q 437 444 92 433 l 575 449 l 575 496 q 410 656 575 656 q 187 600 310 656 l 144 693 q 404 758 277 758 q 627 699 558 758 q 696 510 696 640 l 696 0 l 607 0 m 574 364 l 464 359 q 275 318 331 354 q 220 207 220 281 q 355 86 220 86 q 514 141 455 86 q 574 297 574 197 l 574 364 z "},"b":{"ha":833,"x_min":107,"x_max":741,"o":"m 231 94 l 222 94 l 197 0 l 107 0 l 107 1055 l 231 1055 l 231 800 q 225 647 231 745 l 231 647 q 449 758 303 758 q 663 657 585 758 q 741 374 741 555 q 663 89 741 191 q 449 -14 585 -14 q 231 94 309 -14 m 231 374 q 278 154 231 220 q 428 89 325 89 q 612 375 612 89 q 427 656 612 656 q 276 592 321 656 q 231 374 231 528 z "},"c":{"ha":833,"x_min":117,"x_max":720,"o":"m 720 718 l 677 611 q 496 650 576 650 q 244 370 244 650 q 489 94 244 94 q 707 136 595 94 l 707 28 q 484 -14 616 -14 q 213 85 309 -14 q 117 368 117 184 q 215 659 117 559 q 492 758 313 758 q 720 718 612 758 z "},"d":{"ha":833,"x_min":93,"x_max":726,"o":"m 608 100 l 603 100 q 385 -14 526 -14 q 171 88 248 -14 q 93 371 93 189 q 171 656 93 554 q 385 758 249 758 q 603 650 524 758 l 611 650 q 603 760 603 737 l 603 1055 l 726 1055 l 726 0 l 627 0 l 608 100 m 603 343 l 603 371 q 556 590 603 525 q 406 656 509 656 q 221 370 221 656 q 407 89 221 89 q 555 149 510 89 q 603 343 600 209 z "},"e":{"ha":833,"x_min":90,"x_max":743,"o":"m 743 349 l 218 349 q 452 94 224 94 q 703 146 584 94 l 703 37 q 456 -14 590 -14 q 190 88 290 -14 q 90 367 90 189 q 182 653 90 547 q 428 758 274 758 q 657 667 572 758 q 743 425 743 576 l 743 349 m 221 449 l 610 449 q 425 656 610 656 q 221 449 239 656 z "},"f":{"ha":833,"x_min":106,"x_max":755,"o":"m 708 652 l 444 652 l 444 0 l 321 0 l 321 652 l 106 652 l 106 726 l 321 749 l 321 814 q 382 1004 321 945 q 585 1063 443 1063 q 755 1039 672 1063 l 728 942 q 587 961 657 961 q 474 927 504 961 q 444 815 444 893 l 444 745 l 708 745 l 708 652 z "},"g":{"ha":833,"x_min":69,"x_max":764,"o":"m 764 745 l 764 668 l 631 650 q 675 505 675 592 q 603 331 675 396 q 401 267 530 267 q 343 271 364 267 q 275 180 275 233 q 385 123 275 123 l 511 123 q 692 71 629 123 q 754 -78 754 19 q 371 -334 754 -334 q 146 -279 223 -334 q 69 -126 69 -224 q 232 57 69 18 q 167 161 167 89 q 257 292 167 237 q 162 375 197 317 q 127 501 127 433 q 200 691 127 625 q 406 758 272 758 q 507 745 464 758 l 764 745 m 403 351 q 554 507 554 351 q 401 669 554 669 q 249 505 249 669 q 403 351 249 351 m 469 12 l 342 12 q 186 -122 186 12 q 370 -240 186 -240 q 637 -89 637 -240 q 604 -8 637 -29 q 469 12 570 12 z "},"h":{"ha":833,"x_min":109,"x_max":725,"o":"m 602 0 l 602 479 q 440 656 602 656 q 232 386 232 656 l 232 0 l 109 0 l 109 1055 l 232 1055 l 232 742 l 227 644 l 233 644 q 461 758 303 758 q 725 486 725 758 l 725 0 l 602 0 z "},"i":{"ha":833,"x_min":134,"x_max":729,"o":"m 429 1051 q 501 974 501 1051 q 480 915 501 935 q 429 896 458 896 q 357 974 357 896 q 429 1051 357 1051 m 367 647 l 184 661 l 184 745 l 490 745 l 490 97 l 729 83 l 729 0 l 134 0 l 134 83 l 367 97 l 367 647 z "},"j":{"ha":833,"x_min":92,"x_max":579,"o":"m 504 1051 q 576 974 576 1051 q 504 896 576 896 q 432 974 432 896 q 504 1051 432 1051 m 92 -310 l 92 -205 q 288 -232 182 -232 q 411 -193 367 -232 q 456 -86 456 -155 l 456 647 l 171 661 l 171 745 l 579 745 l 579 -79 q 503 -268 579 -201 q 286 -334 426 -334 q 92 -310 175 -334 z "},"k":{"ha":833,"x_min":146,"x_max":789,"o":"m 260 375 l 351 478 l 619 745 l 770 745 l 435 422 l 789 0 l 644 0 l 355 342 l 268 286 l 268 0 l 146 0 l 146 1055 l 268 1055 l 268 571 l 257 375 l 260 375 z "},"l":{"ha":833,"x_min":127,"x_max":724,"o":"m 361 958 l 179 972 l 179 1055 l 485 1055 l 485 97 l 724 83 l 724 0 l 127 0 l 127 83 l 361 97 l 361 958 z "},"m":{"ha":833,"x_min":62,"x_max":772,"o":"m 663 0 l 663 479 q 645 617 663 578 q 585 656 627 656 q 499 600 526 656 q 472 411 472 543 l 472 0 l 363 0 l 363 479 q 278 656 363 656 q 197 602 221 656 q 172 386 172 548 l 172 0 l 62 0 l 62 745 l 149 745 l 167 644 l 174 644 q 310 758 219 758 q 454 635 420 758 l 458 635 q 607 758 510 758 q 733 695 694 758 q 772 486 772 633 l 772 0 l 663 0 z "},"n":{"ha":833,"x_min":109,"x_max":725,"o":"m 602 0 l 602 479 q 440 656 602 656 q 232 386 232 656 l 232 0 l 109 0 l 109 745 l 208 745 l 227 644 l 233 644 q 461 758 303 758 q 725 486 725 758 l 725 0 l 602 0 z "},"o":{"ha":833,"x_min":78,"x_max":754,"o":"m 414 -14 q 173 92 267 -14 q 78 374 78 197 q 170 655 78 552 q 418 758 262 758 q 660 653 566 758 q 754 374 754 548 q 661 90 754 194 q 414 -14 568 -14 m 416 89 q 627 374 627 89 q 415 656 627 656 q 205 374 205 656 q 416 89 205 89 z "},"p":{"ha":833,"x_min":107,"x_max":741,"o":"m 231 94 l 222 94 q 231 -16 231 7 l 231 -334 l 107 -334 l 107 745 l 207 745 l 225 644 l 231 644 q 449 758 305 758 q 663 657 585 758 q 741 374 741 555 q 663 89 741 191 q 449 -14 585 -14 q 231 94 309 -14 m 231 401 l 231 374 q 278 154 231 220 q 428 89 325 89 q 612 375 612 89 q 427 656 612 656 q 278 596 323 656 q 231 401 233 536 z "},"q":{"ha":833,"x_min":93,"x_max":726,"o":"m 603 644 l 608 644 l 627 745 l 726 745 l 726 -334 l 603 -334 l 603 -16 q 611 100 603 12 l 603 100 q 385 -14 526 -14 q 171 88 248 -14 q 93 371 93 189 q 171 656 93 554 q 385 758 249 758 q 603 644 525 758 m 603 343 l 603 371 q 556 590 603 525 q 406 656 509 656 q 221 370 221 656 q 407 89 221 89 q 555 149 510 89 q 603 343 600 209 z "},"r":{"ha":833,"x_min":179,"x_max":718,"o":"m 718 728 l 685 615 q 533 646 602 646 q 362 583 422 646 q 302 401 302 520 l 302 0 l 179 0 l 179 745 l 279 745 l 294 608 l 300 608 q 410 724 351 689 q 555 758 469 758 q 718 728 635 758 z "},"s":{"ha":833,"x_min":138,"x_max":696,"o":"m 138 33 l 138 146 q 389 87 269 87 q 575 197 575 87 q 542 264 575 236 q 389 336 509 293 q 190 445 231 395 q 149 561 149 494 q 224 706 149 653 q 433 758 300 758 q 684 708 568 758 l 643 607 q 427 656 519 656 q 267 566 267 656 q 301 499 267 524 q 458 431 335 475 q 649 328 602 378 q 696 204 696 277 q 616 44 696 102 q 392 -14 537 -14 q 138 33 224 -14 z "},"t":{"ha":833,"x_min":94,"x_max":696,"o":"m 692 102 l 692 8 q 521 -14 604 -14 q 275 220 275 -14 l 275 652 l 94 652 l 94 715 l 275 749 l 328 943 l 399 943 l 399 745 l 696 745 l 696 652 l 399 652 l 399 220 q 529 87 399 87 q 692 102 592 87 z "},"u":{"ha":833,"x_min":109,"x_max":725,"o":"m 625 0 l 607 100 l 600 100 q 374 -14 529 -14 q 109 258 109 -14 l 109 745 l 232 745 l 232 265 q 392 89 232 89 q 551 152 501 89 q 602 358 602 214 l 602 745 l 725 745 l 725 0 l 625 0 z "},"v":{"ha":833,"x_min":56,"x_max":777,"o":"m 338 0 l 56 745 l 183 745 l 346 302 q 414 82 404 146 l 418 82 q 486 302 422 112 l 648 745 l 777 745 l 494 0 l 338 0 z "},"w":{"ha":833,"x_min":-3,"x_max":836,"o":"m 551 0 l 463 404 l 416 628 l 412 628 l 368 401 l 277 0 l 149 0 l -3 745 l 107 745 l 174 376 q 212 110 197 250 l 216 110 q 262 353 237 235 l 353 745 l 484 745 l 570 353 q 615 110 599 220 l 619 110 q 660 376 640 274 l 729 745 l 836 745 l 684 0 l 551 0 z "},"x":{"ha":833,"x_min":65,"x_max":766,"o":"m 346 382 l 79 745 l 220 745 l 416 467 l 614 745 l 754 745 l 486 382 l 766 0 l 627 0 l 416 296 l 205 0 l 65 0 l 346 382 z "},"y":{"ha":833,"x_min":56,"x_max":777,"o":"m 56 745 l 183 745 l 361 301 q 421 104 416 162 l 425 104 q 486 302 441 180 l 648 745 l 777 745 l 454 -97 q 349 -274 409 -215 q 182 -334 288 -334 q 68 -322 123 -334 l 68 -224 q 160 -232 110 -232 q 261 -204 225 -232 q 326 -109 298 -176 l 366 -7 l 56 745 z "},"z":{"ha":833,"x_min":123,"x_max":708,"o":"m 708 0 l 123 0 l 123 85 l 571 652 l 146 652 l 146 745 l 696 745 l 696 646 l 257 93 l 708 93 l 708 0 z "},"{":{"ha":833,"x_min":153,"x_max":679,"o":"m 505 -11 q 543 -91 505 -66 q 679 -118 581 -117 l 679 -220 q 382 -21 382 -216 l 382 205 q 153 334 382 334 l 153 439 q 382 567 382 439 l 382 793 q 679 991 382 987 l 679 890 q 543 864 581 889 q 505 783 505 838 l 505 558 q 347 390 505 418 l 347 382 q 505 214 505 354 l 505 -11 z "},"|":{"ha":833,"x_min":366,"x_max":467,"o":"m 366 1055 l 467 1055 l 467 -334 l 366 -334 l 366 1055 z "},"}":{"ha":833,"x_min":154,"x_max":681,"o":"m 328 214 q 486 382 328 354 l 486 390 q 328 558 328 418 l 328 783 q 289 864 328 838 q 154 890 251 890 l 154 991 q 452 793 452 987 l 452 567 q 681 439 452 439 l 681 334 q 452 205 452 334 l 452 -21 q 154 -220 452 -216 l 154 -118 q 289 -92 251 -117 q 328 -11 328 -66 l 328 214 z "},"~":{"ha":833,"x_min":103,"x_max":729,"o":"m 103 397 l 103 507 q 271 581 170 581 q 439 538 338 581 q 575 500 527 500 q 729 582 648 500 l 729 472 q 561 399 662 399 q 393 441 493 399 q 257 479 304 479 q 103 397 184 479 z "}," ":{"ha":833,"x_min":0,"x_max":0,"o":""},"¡":{"ha":833,"x_min":330,"x_max":503,"o":"m 416 570 q 330 664 330 570 q 416 758 330 758 q 503 664 503 758 q 416 570 503 570 m 375 458 l 457 458 l 492 -253 l 340 -253 l 375 458 z "},"¢":{"ha":833,"x_min":117,"x_max":720,"o":"m 504 895 q 720 854 614 892 l 677 747 q 496 786 576 786 q 244 505 244 786 q 489 231 244 231 q 707 272 593 231 l 707 164 q 504 122 624 124 l 504 -14 l 411 -14 l 411 126 q 117 504 117 173 q 411 889 117 839 l 411 1006 l 504 1006 l 504 895 z "},"£":{"ha":833,"x_min":81,"x_max":753,"o":"m 721 950 l 676 852 q 492 901 581 901 q 340 734 340 901 l 340 534 l 596 534 l 596 441 l 340 441 l 340 298 q 245 113 340 165 l 753 113 l 753 0 l 81 0 l 81 104 q 216 297 216 138 l 216 441 l 82 441 l 82 534 l 216 534 l 216 754 q 290 936 216 868 q 486 1004 363 1004 q 721 950 616 1004 z "},"¤":{"ha":833,"x_min":118,"x_max":715,"o":"m 205 635 l 118 722 l 184 789 l 271 701 q 416 747 339 747 q 561 701 494 747 l 648 789 l 715 724 l 628 636 q 673 490 673 568 q 628 345 673 409 l 714 258 l 648 193 l 561 279 q 416 235 494 235 q 271 281 336 235 l 184 195 l 119 260 l 205 346 q 161 490 161 410 q 205 635 161 568 m 416 328 q 533 375 484 328 q 582 490 582 422 q 533 607 582 559 q 416 656 485 656 q 302 608 349 656 q 254 490 254 559 q 302 375 254 422 q 416 328 350 328 z "},"¥":{"ha":833,"x_min":53,"x_max":779,"o":"m 415 490 l 650 991 l 779 991 l 518 471 l 681 471 l 681 378 l 476 378 l 476 271 l 681 271 l 681 178 l 476 178 l 476 0 l 355 0 l 355 178 l 151 178 l 151 271 l 355 271 l 355 378 l 151 378 l 151 471 l 310 471 l 53 991 l 183 991 l 415 490 z "},"¦":{"ha":833,"x_min":366,"x_max":467,"o":"m 366 1055 l 467 1055 l 467 526 l 366 526 l 366 1055 m 366 196 l 467 196 l 467 -334 l 366 -334 l 366 196 z "},"§":{"ha":833,"x_min":165,"x_max":668,"o":"m 285 724 q 176 884 176 778 q 247 1014 176 965 q 435 1063 317 1063 q 656 1014 545 1063 l 618 920 q 431 965 512 965 q 294 886 294 965 q 328 823 294 850 q 461 755 361 797 q 618 661 568 713 q 668 532 668 608 q 570 349 668 408 q 668 196 668 294 q 593 48 668 102 q 385 -7 518 -7 q 165 37 246 -7 l 165 144 q 385 89 281 89 q 547 184 547 89 q 518 250 547 223 q 386 319 489 277 q 214 427 252 376 q 176 549 176 478 q 285 724 176 670 m 484 389 q 561 514 561 440 q 511 612 561 574 q 371 682 461 650 q 281 564 281 650 q 319 478 281 514 q 460 399 357 441 l 484 389 z "},"¨":{"ha":833,"x_min":224,"x_max":608,"o":"m 289 1015 q 354 946 354 1015 q 289 876 354 876 q 224 946 224 876 q 289 1015 224 1015 m 543 1015 q 608 946 608 1015 q 543 876 608 876 q 478 946 478 876 q 543 1015 478 1015 z "},"©":{"ha":833,"x_min":4,"x_max":829,"o":"m 416 1006 q 720 867 610 1006 q 829 496 829 729 q 720 124 829 262 q 416 -14 610 -14 q 113 124 222 -14 q 4 496 4 262 q 113 867 4 728 q 416 1006 222 1006 m 416 60 q 667 175 579 60 q 755 496 755 291 q 667 816 755 701 q 416 932 579 932 q 166 816 254 932 q 78 496 78 700 q 166 176 78 292 q 416 60 254 60 m 593 307 l 593 218 q 443 184 520 184 q 239 268 311 184 q 168 497 168 352 q 243 722 168 639 q 447 806 317 806 q 619 764 534 806 l 578 677 q 447 714 503 714 q 321 656 365 714 q 277 496 277 598 q 447 277 277 277 q 593 307 511 277 z "},"ª":{"ha":833,"x_min":187,"x_max":616,"o":"m 542 541 l 519 621 q 338 532 449 532 q 187 671 187 532 q 245 784 187 749 q 432 823 302 819 l 517 827 l 517 833 q 414 924 517 924 q 248 889 338 924 l 220 964 q 419 1003 313 1003 q 616 842 616 1003 l 616 541 l 542 541 m 449 757 q 331 738 372 755 q 290 669 290 720 q 361 608 290 608 q 474 646 432 608 q 517 745 517 683 l 517 758 l 449 757 z "},"«":{"ha":833,"x_min":134,"x_max":699,"o":"m 134 375 l 343 656 l 422 603 l 261 367 l 422 131 l 343 78 l 134 357 l 134 375 m 410 375 l 619 656 l 699 603 l 538 367 l 699 131 l 619 78 l 410 357 l 410 375 z "},"¬":{"ha":833,"x_min":103,"x_max":729,"o":"m 729 541 l 729 178 l 628 178 l 628 439 l 103 439 l 103 541 l 729 541 z "},"­":{"ha":833,"x_min":193,"x_max":640,"o":"m 193 315 l 193 429 l 640 429 l 640 315 l 193 315 z "},"®":{"ha":833,"x_min":4,"x_max":829,"o":"m 416 1006 q 720 867 610 1006 q 829 496 829 729 q 720 124 829 262 q 416 -14 610 -14 q 113 124 222 -14 q 4 496 4 262 q 113 867 4 728 q 416 1006 222 1006 m 416 60 q 667 175 579 60 q 755 496 755 291 q 667 816 755 701 q 416 932 579 932 q 166 816 254 932 q 78 496 78 700 q 166 176 78 292 q 416 60 254 60 m 507 461 l 668 193 l 547 193 l 407 432 l 343 432 l 343 193 l 236 193 l 236 799 l 395 799 q 615 619 615 799 q 507 461 615 509 m 343 521 l 392 521 q 507 616 507 521 q 479 687 507 667 q 390 707 450 707 l 343 707 l 343 521 z "},"¯":{"ha":833,"x_min":-14,"x_max":847,"o":"m 847 1055 l -14 1055 l -14 1150 l 847 1150 l 847 1055 z "},"°":{"ha":833,"x_min":203,"x_max":631,"o":"m 416 1006 q 567 942 504 1006 q 631 791 631 879 q 568 642 631 704 q 416 579 505 579 q 265 642 328 579 q 203 791 203 705 q 266 942 203 879 q 416 1006 328 1006 m 416 663 q 509 701 470 663 q 547 791 547 739 q 508 885 547 846 q 416 924 469 924 q 325 885 363 924 q 286 791 286 846 q 324 701 286 739 q 416 663 362 663 z "},"±":{"ha":833,"x_min":103,"x_max":729,"o":"m 366 439 l 103 439 l 103 541 l 366 541 l 366 804 l 467 804 l 467 541 l 729 541 l 729 439 l 467 439 l 467 178 l 366 178 l 366 439 m 103 0 l 103 102 l 729 102 l 729 0 l 103 0 z "},"²":{"ha":833,"x_min":236,"x_max":596,"o":"m 596 456 l 236 456 l 236 525 l 363 660 q 459 774 438 740 q 479 847 479 808 q 404 925 479 925 q 293 873 349 925 l 240 932 q 408 1002 319 1002 q 532 961 488 1002 q 576 850 576 920 q 553 759 576 805 q 441 625 529 713 l 350 533 l 596 533 l 596 456 z "},"³":{"ha":833,"x_min":232,"x_max":574,"o":"m 454 736 q 574 610 574 709 q 523 488 574 531 q 378 444 473 444 q 232 478 289 444 l 232 562 q 370 518 307 518 q 471 611 471 518 q 371 696 471 696 l 322 696 l 322 766 l 370 766 q 453 852 453 766 q 387 928 453 928 q 278 880 339 928 l 233 939 q 395 1002 309 1002 q 512 965 469 1002 q 555 864 555 928 q 454 736 555 770 z "},"´":{"ha":833,"x_min":283,"x_max":550,"o":"m 283 860 q 401 1064 347 950 l 550 1064 l 550 1050 q 366 842 474 932 l 283 842 l 283 860 z "},"µ":{"ha":833,"x_min":122,"x_max":711,"o":"m 245 265 q 393 89 245 89 q 541 151 494 89 q 587 358 587 212 l 587 745 l 711 745 l 711 0 l 611 0 l 593 100 l 586 100 q 386 -14 521 -14 q 241 46 292 -14 q 245 -117 245 -58 l 245 -334 l 122 -334 l 122 745 l 245 745 l 245 265 z "},"¶":{"ha":833,"x_min":45,"x_max":732,"o":"m 732 -176 l 650 -176 l 650 947 l 510 947 l 510 -176 l 428 -176 l 428 379 q 329 367 387 367 q 45 707 45 367 q 118 969 45 882 q 350 1055 192 1055 l 732 1055 l 732 -176 z "},"·":{"ha":833,"x_min":330,"x_max":503,"o":"m 416 585 q 503 490 503 585 q 416 396 503 396 q 330 490 330 396 q 416 585 330 585 z "},"¸":{"ha":833,"x_min":290,"x_max":543,"o":"m 290 -328 l 290 -254 q 345 -258 313 -258 q 447 -196 447 -258 q 330 -119 447 -146 l 392 0 l 473 0 l 435 -78 q 543 -195 543 -103 q 346 -334 543 -334 q 290 -328 323 -334 z "},"¹":{"ha":833,"x_min":249,"x_max":489,"o":"m 397 990 l 489 990 l 489 456 l 390 456 l 390 771 q 396 907 390 818 q 346 863 368 877 l 298 828 l 249 888 l 397 990 z "},"º":{"ha":833,"x_min":191,"x_max":643,"o":"m 415 532 q 254 595 317 532 q 191 768 191 658 q 252 941 191 878 q 418 1003 313 1003 q 579 940 516 1003 q 643 768 643 878 q 581 594 643 656 q 415 532 518 532 m 416 612 q 539 768 539 612 q 416 921 539 921 q 293 768 293 921 q 416 612 293 612 z "},"»":{"ha":833,"x_min":134,"x_max":699,"o":"m 699 357 l 489 78 l 410 131 l 571 367 l 410 603 l 489 656 l 699 375 l 699 357 m 422 357 l 212 78 l 134 131 l 294 367 l 134 603 l 212 656 l 422 375 l 422 357 z "},"¼":{"ha":833,"x_min":15,"x_max":819,"o":"m 163 990 l 255 990 l 255 456 l 156 456 l 156 771 q 162 907 156 818 q 112 863 134 877 l 64 828 l 15 888 l 163 990 m 717 991 l 222 0 l 115 0 l 610 991 l 717 991 m 819 119 l 762 119 l 762 1 l 665 1 l 665 119 l 411 119 l 411 185 l 667 540 l 762 540 l 762 195 l 819 195 l 819 119 m 665 195 l 665 315 q 669 431 665 370 q 615 342 642 382 l 509 195 l 665 195 z "},"½":{"ha":833,"x_min":2,"x_max":831,"o":"m 151 990 l 242 990 l 242 456 l 143 456 l 143 771 q 149 907 143 818 q 99 863 121 877 l 52 828 l 2 888 l 151 990 m 673 991 l 178 0 l 71 0 l 566 991 l 673 991 m 831 1 l 471 1 l 471 70 l 597 205 q 693 319 673 285 q 714 392 714 353 q 639 470 714 470 q 528 418 584 470 l 475 477 q 643 547 554 547 q 767 506 723 547 q 811 395 811 465 q 787 304 811 350 q 676 170 764 258 l 585 78 l 831 78 l 831 1 z "},"¾":{"ha":833,"x_min":14,"x_max":833,"o":"m 237 736 q 356 610 356 709 q 306 488 356 531 q 160 444 255 444 q 14 478 71 444 l 14 562 q 152 518 89 518 q 253 611 253 518 q 153 696 253 696 l 104 696 l 104 766 l 152 766 q 235 852 235 766 q 170 928 235 928 q 60 880 121 928 l 16 939 q 177 1002 91 1002 q 294 965 251 1002 q 338 864 338 928 q 237 736 338 770 m 753 991 l 258 0 l 151 0 l 646 991 l 753 991 m 833 119 l 777 119 l 777 1 l 680 1 l 680 119 l 425 119 l 425 185 l 681 540 l 777 540 l 777 195 l 833 195 l 833 119 m 680 195 l 680 315 q 684 431 680 370 q 629 342 656 382 l 524 195 l 680 195 z "},"¿":{"ha":833,"x_min":114,"x_max":715,"o":"m 457 570 q 371 664 371 570 q 457 758 371 758 q 543 664 543 758 q 457 570 543 570 m 517 458 l 517 433 q 487 302 517 353 q 376 195 456 252 q 260 90 289 129 q 232 -18 232 50 q 282 -120 232 -81 q 422 -158 333 -158 q 673 -97 545 -158 l 715 -195 q 429 -267 567 -267 q 198 -200 282 -267 q 114 -24 114 -134 q 150 123 114 67 q 283 253 186 180 q 386 348 364 312 q 408 446 408 385 l 408 458 l 517 458 z "},"À":{"ha":833,"x_min":22,"x_max":811,"o":"m 681 0 l 583 307 l 250 307 l 151 0 l 22 0 l 350 996 l 482 996 l 811 0 l 681 0 m 547 419 l 457 707 q 415 860 431 791 q 384 736 401 793 l 286 419 l 547 419 m 498 1071 l 416 1071 q 231 1279 303 1167 l 231 1293 l 380 1293 q 498 1089 438 1173 l 498 1071 z "},"Á":{"ha":833,"x_min":22,"x_max":811,"o":"m 681 0 l 583 307 l 250 307 l 151 0 l 22 0 l 350 996 l 482 996 l 811 0 l 681 0 m 547 419 l 457 707 q 415 860 431 791 q 384 736 401 793 l 286 419 l 547 419 m 353 1089 q 471 1293 416 1179 l 619 1293 l 619 1279 q 435 1071 543 1162 l 353 1071 l 353 1089 z "},"Â":{"ha":833,"x_min":22,"x_max":811,"o":"m 681 0 l 583 307 l 250 307 l 151 0 l 22 0 l 350 996 l 482 996 l 811 0 l 681 0 m 547 419 l 457 707 q 415 860 431 791 q 384 736 401 793 l 286 419 l 547 419 m 642 1071 l 559 1071 q 416 1197 502 1109 q 273 1071 326 1105 l 192 1071 l 192 1089 q 232 1135 209 1109 q 351 1293 326 1240 l 482 1293 q 602 1135 507 1240 l 642 1089 l 642 1071 z "},"Ã":{"ha":833,"x_min":22,"x_max":811,"o":"m 681 0 l 583 307 l 250 307 l 151 0 l 22 0 l 350 996 l 482 996 l 811 0 l 681 0 m 547 419 l 457 707 q 415 860 431 791 q 384 736 401 793 l 286 419 l 547 419 m 242 1071 l 172 1071 q 315 1250 189 1250 q 424 1212 354 1250 q 516 1174 493 1174 q 588 1251 570 1174 l 659 1251 q 516 1072 641 1072 q 410 1111 477 1072 q 315 1149 342 1149 q 242 1071 259 1149 z "},"Ä":{"ha":833,"x_min":22,"x_max":811,"o":"m 681 0 l 583 307 l 250 307 l 151 0 l 22 0 l 350 996 l 482 996 l 811 0 l 681 0 m 547 419 l 457 707 q 415 860 431 791 q 384 736 401 793 l 286 419 l 547 419 m 289 1244 q 354 1175 354 1244 q 289 1105 354 1105 q 224 1175 224 1105 q 289 1244 224 1244 m 543 1244 q 608 1175 608 1244 q 543 1105 608 1105 q 478 1175 478 1105 q 543 1244 478 1244 z "},"Å":{"ha":833,"x_min":22,"x_max":811,"o":"m 681 0 l 583 307 l 250 307 l 151 0 l 22 0 l 350 996 l 482 996 l 811 0 l 681 0 m 547 419 l 457 707 q 415 860 431 791 q 384 736 401 793 l 286 419 l 547 419 m 414 926 q 303 966 345 926 q 262 1072 262 1005 q 303 1179 262 1139 q 414 1218 345 1218 q 526 1178 482 1218 q 570 1074 570 1138 q 527 967 570 1007 q 414 926 484 926 m 414 1149 q 359 1128 380 1149 q 338 1072 338 1108 q 414 996 338 996 q 469 1016 448 996 q 490 1072 490 1036 q 469 1128 490 1108 q 414 1149 448 1149 z "},"Æ":{"ha":833,"x_min":0,"x_max":821,"o":"m 821 0 l 378 0 l 378 307 l 182 307 l 117 0 l 0 0 l 229 991 l 821 991 l 821 880 l 497 880 l 497 574 l 794 574 l 794 464 l 497 464 l 497 111 l 821 111 l 821 0 m 207 419 l 378 419 l 378 880 l 306 880 l 207 419 z "},"Ç":{"ha":833,"x_min":87,"x_max":800,"o":"m 762 136 l 762 26 q 519 -14 663 -14 q 199 119 310 -14 q 87 497 87 252 q 209 869 87 732 q 541 1006 330 1006 q 800 947 690 1006 l 747 842 q 541 895 643 895 q 308 787 395 895 q 221 496 221 680 q 302 199 221 301 q 541 97 384 97 q 762 136 629 97 m 345 -328 l 345 -254 q 399 -258 367 -258 q 501 -196 501 -258 q 385 -119 501 -146 l 446 0 l 528 0 l 489 -78 q 597 -195 597 -103 q 400 -334 597 -334 q 345 -328 377 -334 z "},"È":{"ha":833,"x_min":147,"x_max":718,"o":"m 718 0 l 147 0 l 147 991 l 718 991 l 718 880 l 273 880 l 273 574 l 692 574 l 692 464 l 273 464 l 273 111 l 718 111 l 718 0 m 500 1071 l 418 1071 q 234 1279 306 1167 l 234 1293 l 382 1293 q 500 1089 441 1173 l 500 1071 z "},"É":{"ha":833,"x_min":147,"x_max":718,"o":"m 718 0 l 147 0 l 147 991 l 718 991 l 718 880 l 273 880 l 273 574 l 692 574 l 692 464 l 273 464 l 273 111 l 718 111 l 718 0 m 326 1089 q 444 1293 390 1179 l 593 1293 l 593 1279 q 408 1071 517 1162 l 326 1071 l 326 1089 z "},"Ê":{"ha":833,"x_min":147,"x_max":718,"o":"m 718 0 l 147 0 l 147 991 l 718 991 l 718 880 l 273 880 l 273 574 l 692 574 l 692 464 l 273 464 l 273 111 l 718 111 l 718 0 m 665 1071 l 583 1071 q 440 1197 526 1109 q 297 1071 350 1105 l 216 1071 l 216 1089 q 256 1135 233 1109 q 375 1293 350 1240 l 506 1293 q 625 1135 531 1240 l 665 1089 l 665 1071 z "},"Ë":{"ha":833,"x_min":147,"x_max":718,"o":"m 718 0 l 147 0 l 147 991 l 718 991 l 718 880 l 273 880 l 273 574 l 692 574 l 692 464 l 273 464 l 273 111 l 718 111 l 718 0 m 306 1244 q 371 1175 371 1244 q 306 1105 371 1105 q 241 1175 241 1105 q 306 1244 241 1244 m 560 1244 q 625 1175 625 1244 q 560 1105 625 1105 q 495 1175 495 1105 q 560 1244 495 1244 z "},"Ì":{"ha":833,"x_min":153,"x_max":679,"o":"m 679 0 l 153 0 l 153 83 l 353 97 l 353 895 l 153 908 l 153 991 l 679 991 l 679 908 l 479 895 l 479 97 l 679 83 l 679 0 m 477 1071 l 395 1071 q 210 1279 282 1167 l 210 1293 l 359 1293 q 477 1089 417 1173 l 477 1071 z "},"Í":{"ha":833,"x_min":153,"x_max":679,"o":"m 679 0 l 153 0 l 153 83 l 353 97 l 353 895 l 153 908 l 153 991 l 679 991 l 679 908 l 479 895 l 479 97 l 679 83 l 679 0 m 364 1089 q 482 1293 428 1179 l 631 1293 l 631 1279 q 446 1071 555 1162 l 364 1071 l 364 1089 z "},"Î":{"ha":833,"x_min":153,"x_max":679,"o":"m 679 0 l 153 0 l 153 83 l 353 97 l 353 895 l 153 908 l 153 991 l 679 991 l 679 908 l 479 895 l 479 97 l 679 83 l 679 0 m 642 1071 l 559 1071 q 416 1197 502 1109 q 273 1071 326 1105 l 192 1071 l 192 1089 q 232 1135 209 1109 q 351 1293 326 1240 l 482 1293 q 602 1135 507 1240 l 642 1089 l 642 1071 z "},"Ï":{"ha":833,"x_min":153,"x_max":679,"o":"m 679 0 l 153 0 l 153 83 l 353 97 l 353 895 l 153 908 l 153 991 l 679 991 l 679 908 l 479 895 l 479 97 l 679 83 l 679 0 m 290 1244 q 355 1175 355 1244 q 290 1105 355 1105 q 225 1175 225 1105 q 290 1244 225 1244 m 545 1244 q 610 1175 610 1244 q 545 1105 610 1105 q 479 1175 479 1105 q 545 1244 479 1244 z "},"Ð":{"ha":833,"x_min":0,"x_max":778,"o":"m 92 0 l 92 447 l 0 447 l 0 557 l 92 557 l 92 991 l 323 991 q 658 863 538 991 q 778 505 778 735 q 654 130 778 260 q 296 0 530 0 l 92 0 m 218 884 l 218 557 l 476 557 l 476 447 l 218 447 l 218 109 l 283 109 q 644 501 644 109 q 310 884 644 884 l 218 884 z "},"Ñ":{"ha":833,"x_min":92,"x_max":741,"o":"m 741 0 l 595 0 l 201 821 l 196 821 q 208 538 208 633 l 208 0 l 92 0 l 92 991 l 236 991 l 628 175 l 632 175 q 623 449 623 380 l 623 991 l 741 991 l 741 0 m 245 1071 l 175 1071 q 318 1250 192 1250 q 427 1212 357 1250 q 519 1174 496 1174 q 591 1251 574 1174 l 663 1251 q 519 1072 644 1072 q 413 1111 481 1072 q 318 1149 345 1149 q 245 1071 262 1149 z "},"Ò":{"ha":833,"x_min":57,"x_max":778,"o":"m 418 -14 q 57 498 57 -14 q 419 1007 57 1007 q 685 874 593 1007 q 778 497 778 742 q 684 119 778 252 q 418 -14 591 -14 m 418 97 q 590 195 535 97 q 644 497 644 294 q 589 799 644 703 q 419 896 534 896 q 191 497 191 896 q 418 97 191 97 m 495 1071 l 413 1071 q 229 1279 300 1167 l 229 1293 l 377 1293 q 495 1089 435 1173 l 495 1071 z "},"Ó":{"ha":833,"x_min":57,"x_max":778,"o":"m 418 -14 q 57 498 57 -14 q 419 1007 57 1007 q 685 874 593 1007 q 778 497 778 742 q 684 119 778 252 q 418 -14 591 -14 m 418 97 q 590 195 535 97 q 644 497 644 294 q 589 799 644 703 q 419 896 534 896 q 191 497 191 896 q 418 97 191 97 m 345 1089 q 463 1293 408 1179 l 611 1293 l 611 1279 q 427 1071 535 1162 l 345 1071 l 345 1089 z "},"Ô":{"ha":833,"x_min":57,"x_max":778,"o":"m 418 -14 q 57 498 57 -14 q 419 1007 57 1007 q 685 874 593 1007 q 778 497 778 742 q 684 119 778 252 q 418 -14 591 -14 m 418 97 q 590 195 535 97 q 644 497 644 294 q 589 799 644 703 q 419 896 534 896 q 191 497 191 896 q 418 97 191 97 m 642 1071 l 559 1071 q 416 1197 502 1109 q 273 1071 326 1105 l 192 1071 l 192 1089 q 232 1135 209 1109 q 351 1293 326 1240 l 482 1293 q 602 1135 507 1240 l 642 1089 l 642 1071 z "},"Õ":{"ha":833,"x_min":57,"x_max":778,"o":"m 418 -14 q 57 498 57 -14 q 419 1007 57 1007 q 685 874 593 1007 q 778 497 778 742 q 684 119 778 252 q 418 -14 591 -14 m 418 97 q 590 195 535 97 q 644 497 644 294 q 589 799 644 703 q 419 896 534 896 q 191 497 191 896 q 418 97 191 97 m 248 1071 l 178 1071 q 321 1250 195 1250 q 430 1212 360 1250 q 522 1174 499 1174 q 594 1251 576 1174 l 665 1251 q 522 1072 647 1072 q 416 1111 484 1072 q 321 1149 348 1149 q 248 1071 265 1149 z "},"Ö":{"ha":833,"x_min":57,"x_max":778,"o":"m 418 -14 q 57 498 57 -14 q 419 1007 57 1007 q 685 874 593 1007 q 778 497 778 742 q 684 119 778 252 q 418 -14 591 -14 m 418 97 q 590 195 535 97 q 644 497 644 294 q 589 799 644 703 q 419 896 534 896 q 191 497 191 896 q 418 97 191 97 m 290 1244 q 355 1175 355 1244 q 290 1105 355 1105 q 225 1175 225 1105 q 290 1244 225 1244 m 545 1244 q 610 1175 610 1244 q 545 1105 610 1105 q 479 1175 479 1105 q 545 1244 479 1244 z "},"×":{"ha":833,"x_min":129,"x_max":704,"o":"m 345 490 l 129 707 l 200 778 l 415 562 l 633 778 l 704 708 l 486 490 l 703 273 l 633 204 l 415 419 l 200 205 l 131 275 l 345 490 z "},"Ø":{"ha":833,"x_min":54,"x_max":785,"o":"m 210 50 l 147 -52 l 54 1 l 136 135 q 57 498 57 260 q 419 1007 57 1007 q 629 936 545 1007 l 692 1039 l 785 986 l 700 850 q 778 497 778 722 q 684 119 778 252 q 418 -14 591 -14 q 210 50 290 -14 m 216 265 l 566 832 q 419 896 511 896 q 191 497 191 896 q 216 265 191 353 m 621 720 l 273 155 q 418 97 328 97 q 590 195 535 97 q 644 497 644 294 q 621 720 644 639 z "},"Ù":{"ha":833,"x_min":85,"x_max":749,"o":"m 749 993 l 749 350 q 663 80 749 174 q 412 -14 578 -14 q 85 353 85 -14 l 85 991 l 211 991 l 211 359 q 419 97 211 97 q 623 361 619 97 l 623 993 l 749 993 m 503 1071 l 421 1071 q 237 1279 309 1167 l 237 1293 l 385 1293 q 503 1089 444 1173 l 503 1071 z "},"Ú":{"ha":833,"x_min":85,"x_max":749,"o":"m 749 993 l 749 350 q 663 80 749 174 q 412 -14 578 -14 q 85 353 85 -14 l 85 991 l 211 991 l 211 359 q 419 97 211 97 q 623 361 619 97 l 623 993 l 749 993 m 335 1089 q 453 1293 399 1179 l 602 1293 l 602 1279 q 417 1071 526 1162 l 335 1071 l 335 1089 z "},"Û":{"ha":833,"x_min":85,"x_max":749,"o":"m 749 993 l 749 350 q 663 80 749 174 q 412 -14 578 -14 q 85 353 85 -14 l 85 991 l 211 991 l 211 359 q 419 97 211 97 q 623 361 619 97 l 623 993 l 749 993 m 642 1071 l 559 1071 q 416 1197 502 1109 q 273 1071 326 1105 l 192 1071 l 192 1089 q 232 1135 209 1109 q 351 1293 326 1240 l 482 1293 q 602 1135 507 1240 l 642 1089 l 642 1071 z "},"Ü":{"ha":833,"x_min":85,"x_max":749,"o":"m 749 993 l 749 350 q 663 80 749 174 q 412 -14 578 -14 q 85 353 85 -14 l 85 991 l 211 991 l 211 359 q 419 97 211 97 q 623 361 619 97 l 623 993 l 749 993 m 290 1244 q 355 1175 355 1244 q 290 1105 355 1105 q 225 1175 225 1105 q 290 1244 225 1244 m 545 1244 q 610 1175 610 1244 q 545 1105 610 1105 q 479 1175 479 1105 q 545 1244 479 1244 z "},"Ý":{"ha":833,"x_min":22,"x_max":810,"o":"m 415 490 l 673 991 l 810 991 l 479 386 l 479 0 l 353 0 l 353 379 l 22 991 l 160 991 l 415 490 m 335 1089 q 453 1293 399 1179 l 602 1293 l 602 1279 q 417 1071 526 1162 l 335 1071 l 335 1089 z "},"Þ":{"ha":833,"x_min":119,"x_max":742,"o":"m 245 215 l 245 0 l 119 0 l 119 991 l 245 991 l 245 821 l 393 821 q 742 530 742 821 q 648 298 742 382 q 375 215 554 215 l 245 215 m 245 322 l 361 322 q 553 371 495 322 q 611 524 611 420 q 382 713 611 713 l 245 713 l 245 322 z "},"ß":{"ha":833,"x_min":111,"x_max":781,"o":"m 325 33 l 325 146 q 513 87 422 87 q 657 205 657 87 q 626 295 657 260 q 529 371 595 330 q 412 465 446 424 q 378 566 378 507 q 465 717 378 645 q 553 850 553 789 q 399 961 553 961 q 235 815 235 961 l 235 0 l 111 0 l 111 814 q 399 1063 111 1063 q 604 1009 530 1063 q 677 854 677 955 q 587 686 677 765 q 514 614 530 635 q 497 571 497 593 q 517 524 497 545 q 619 449 536 504 q 749 332 717 385 q 781 212 781 279 q 713 44 781 102 q 521 -14 645 -14 q 325 33 397 -14 z "},"à":{"ha":833,"x_min":92,"x_max":696,"o":"m 607 0 l 582 103 l 576 103 q 469 12 524 37 q 328 -14 414 -14 q 154 45 217 -14 q 92 208 92 103 q 437 444 92 433 l 575 449 l 575 496 q 410 656 575 656 q 187 600 310 656 l 144 693 q 404 758 277 758 q 627 699 558 758 q 696 510 696 640 l 696 0 l 607 0 m 574 364 l 464 359 q 275 318 331 354 q 220 207 220 281 q 355 86 220 86 q 514 141 455 86 q 574 297 574 197 l 574 364 m 492 842 l 410 842 q 226 1050 298 938 l 226 1064 l 374 1064 q 492 860 433 943 l 492 842 z "},"á":{"ha":833,"x_min":92,"x_max":696,"o":"m 607 0 l 582 103 l 576 103 q 469 12 524 37 q 328 -14 414 -14 q 154 45 217 -14 q 92 208 92 103 q 437 444 92 433 l 575 449 l 575 496 q 410 656 575 656 q 187 600 310 656 l 144 693 q 404 758 277 758 q 627 699 558 758 q 696 510 696 640 l 696 0 l 607 0 m 574 364 l 464 359 q 275 318 331 354 q 220 207 220 281 q 355 86 220 86 q 514 141 455 86 q 574 297 574 197 l 574 364 m 340 860 q 458 1064 404 950 l 607 1064 l 607 1050 q 422 842 531 932 l 340 842 l 340 860 z "},"â":{"ha":833,"x_min":92,"x_max":696,"o":"m 607 0 l 582 103 l 576 103 q 469 12 524 37 q 328 -14 414 -14 q 154 45 217 -14 q 92 208 92 103 q 437 444 92 433 l 575 449 l 575 496 q 410 656 575 656 q 187 600 310 656 l 144 693 q 404 758 277 758 q 627 699 558 758 q 696 510 696 640 l 696 0 l 607 0 m 574 364 l 464 359 q 275 318 331 354 q 220 207 220 281 q 355 86 220 86 q 514 141 455 86 q 574 297 574 197 l 574 364 m 647 842 l 565 842 q 422 968 507 880 q 279 842 332 876 l 197 842 l 197 860 q 237 905 214 880 q 357 1064 332 1010 l 488 1064 q 607 905 513 1010 l 647 860 l 647 842 z "},"ã":{"ha":833,"x_min":92,"x_max":696,"o":"m 607 0 l 582 103 l 576 103 q 469 12 524 37 q 328 -14 414 -14 q 154 45 217 -14 q 92 208 92 103 q 437 444 92 433 l 575 449 l 575 496 q 410 656 575 656 q 187 600 310 656 l 144 693 q 404 758 277 758 q 627 699 558 758 q 696 510 696 640 l 696 0 l 607 0 m 574 364 l 464 359 q 275 318 331 354 q 220 207 220 281 q 355 86 220 86 q 514 141 455 86 q 574 297 574 197 l 574 364 m 250 842 l 179 842 q 322 1021 196 1021 q 431 983 361 1021 q 524 945 500 945 q 595 1022 578 945 l 667 1022 q 524 843 648 843 q 417 882 485 843 q 322 920 349 920 q 250 842 267 920 z "},"ä":{"ha":833,"x_min":92,"x_max":696,"o":"m 607 0 l 582 103 l 576 103 q 469 12 524 37 q 328 -14 414 -14 q 154 45 217 -14 q 92 208 92 103 q 437 444 92 433 l 575 449 l 575 496 q 410 656 575 656 q 187 600 310 656 l 144 693 q 404 758 277 758 q 627 699 558 758 q 696 510 696 640 l 696 0 l 607 0 m 574 364 l 464 359 q 275 318 331 354 q 220 207 220 281 q 355 86 220 86 q 514 141 455 86 q 574 297 574 197 l 574 364 m 297 1015 q 362 946 362 1015 q 297 876 362 876 q 232 946 232 876 q 297 1015 232 1015 m 551 1015 q 616 946 616 1015 q 551 876 616 876 q 486 946 486 876 q 551 1015 486 1015 z "},"å":{"ha":833,"x_min":92,"x_max":696,"o":"m 607 0 l 582 103 l 576 103 q 469 12 524 37 q 328 -14 414 -14 q 154 45 217 -14 q 92 208 92 103 q 437 444 92 433 l 575 449 l 575 496 q 410 656 575 656 q 187 600 310 656 l 144 693 q 404 758 277 758 q 627 699 558 758 q 696 510 696 640 l 696 0 l 607 0 m 574 364 l 464 359 q 275 318 331 354 q 220 207 220 281 q 355 86 220 86 q 514 141 455 86 q 574 297 574 197 l 574 364 m 413 842 q 303 881 344 842 q 262 987 262 920 q 303 1094 262 1055 q 413 1133 344 1133 q 525 1093 481 1133 q 569 989 569 1053 q 526 882 569 922 q 413 842 483 842 m 413 1064 q 358 1044 380 1064 q 337 987 337 1023 q 413 911 337 911 q 468 931 447 911 q 490 987 490 951 q 468 1044 490 1023 q 413 1064 447 1064 z "},"æ":{"ha":833,"x_min":31,"x_max":804,"o":"m 354 449 l 354 496 q 260 656 354 656 q 117 600 187 656 l 78 693 q 265 758 167 758 q 432 637 393 758 q 595 758 485 758 q 746 666 688 758 q 804 425 804 574 l 804 349 l 468 349 q 513 156 470 218 q 628 94 557 94 q 786 146 703 94 l 786 36 q 623 -14 713 -14 q 408 142 472 -14 q 204 -14 337 -14 q 78 45 126 -14 q 31 208 31 104 q 253 444 31 433 l 354 449 m 471 449 l 685 449 q 657 600 685 545 q 582 656 630 656 q 505 603 536 656 q 471 449 475 550 m 353 364 l 293 359 q 146 207 146 348 q 168 118 146 151 q 227 86 189 86 q 317 142 282 86 q 353 297 353 198 l 353 364 z "},"ç":{"ha":833,"x_min":117,"x_max":720,"o":"m 720 718 l 677 611 q 496 650 576 650 q 244 370 244 650 q 489 94 244 94 q 707 136 595 94 l 707 28 q 484 -14 616 -14 q 213 85 309 -14 q 117 368 117 184 q 215 659 117 559 q 492 758 313 758 q 720 718 612 758 m 323 -328 l 323 -254 q 378 -258 346 -258 q 480 -196 480 -258 q 363 -119 480 -146 l 425 0 l 507 0 l 468 -78 q 576 -195 576 -103 q 379 -334 576 -334 q 323 -328 356 -334 z "},"è":{"ha":833,"x_min":90,"x_max":743,"o":"m 743 349 l 218 349 q 452 94 224 94 q 703 146 584 94 l 703 37 q 456 -14 590 -14 q 190 88 290 -14 q 90 367 90 189 q 182 653 90 547 q 428 758 274 758 q 657 667 572 758 q 743 425 743 576 l 743 349 m 221 449 l 610 449 q 425 656 610 656 q 221 449 239 656 m 520 842 l 438 842 q 254 1050 326 938 l 254 1064 l 402 1064 q 520 860 460 943 l 520 842 z "},"é":{"ha":833,"x_min":90,"x_max":743,"o":"m 743 349 l 218 349 q 452 94 224 94 q 703 146 584 94 l 703 37 q 456 -14 590 -14 q 190 88 290 -14 q 90 367 90 189 q 182 653 90 547 q 428 758 274 758 q 657 667 572 758 q 743 425 743 576 l 743 349 m 221 449 l 610 449 q 425 656 610 656 q 221 449 239 656 m 339 860 q 457 1064 403 950 l 606 1064 l 606 1050 q 421 842 530 932 l 339 842 l 339 860 z "},"ê":{"ha":833,"x_min":90,"x_max":743,"o":"m 743 349 l 218 349 q 452 94 224 94 q 703 146 584 94 l 703 37 q 456 -14 590 -14 q 190 88 290 -14 q 90 367 90 189 q 182 653 90 547 q 428 758 274 758 q 657 667 572 758 q 743 425 743 576 l 743 349 m 221 449 l 610 449 q 425 656 610 656 q 221 449 239 656 m 652 842 l 570 842 q 427 968 513 880 q 284 842 337 876 l 203 842 l 203 860 q 243 905 220 880 q 362 1064 337 1010 l 493 1064 q 612 905 518 1010 l 652 860 l 652 842 z "},"ë":{"ha":833,"x_min":90,"x_max":743,"o":"m 743 349 l 218 349 q 452 94 224 94 q 703 146 584 94 l 703 37 q 456 -14 590 -14 q 190 88 290 -14 q 90 367 90 189 q 182 653 90 547 q 428 758 274 758 q 657 667 572 758 q 743 425 743 576 l 743 349 m 221 449 l 610 449 q 425 656 610 656 q 221 449 239 656 m 301 1015 q 366 946 366 1015 q 301 876 366 876 q 236 946 236 876 q 301 1015 236 1015 m 555 1015 q 621 946 621 1015 q 555 876 621 876 q 490 946 490 876 q 555 1015 490 1015 z "},"ì":{"ha":833,"x_min":134,"x_max":729,"o":"m 367 647 l 184 661 l 184 745 l 490 745 l 490 97 l 729 83 l 729 0 l 134 0 l 134 83 l 367 97 l 367 647 m 492 842 l 410 842 q 226 1050 298 938 l 226 1064 l 374 1064 q 492 860 433 943 l 492 842 z "},"í":{"ha":833,"x_min":134,"x_max":729,"o":"m 367 647 l 184 661 l 184 745 l 490 745 l 490 97 l 729 83 l 729 0 l 134 0 l 134 83 l 367 97 l 367 647 m 360 860 q 478 1064 424 950 l 627 1064 l 627 1050 q 442 842 551 932 l 360 842 l 360 860 z "},"î":{"ha":833,"x_min":134,"x_max":729,"o":"m 367 647 l 184 661 l 184 745 l 490 745 l 490 97 l 729 83 l 729 0 l 134 0 l 134 83 l 367 97 l 367 647 m 642 842 l 559 842 q 416 968 502 880 q 273 842 326 876 l 192 842 l 192 860 q 232 905 209 880 q 351 1064 326 1010 l 482 1064 q 602 905 507 1010 l 642 860 l 642 842 z "},"ï":{"ha":833,"x_min":134,"x_max":729,"o":"m 367 647 l 184 661 l 184 745 l 490 745 l 490 97 l 729 83 l 729 0 l 134 0 l 134 83 l 367 97 l 367 647 m 289 1015 q 354 946 354 1015 q 289 876 354 876 q 224 946 224 876 q 289 1015 224 1015 m 543 1015 q 608 946 608 1015 q 543 876 608 876 q 478 946 478 876 q 543 1015 478 1015 z "},"ð":{"ha":833,"x_min":92,"x_max":742,"o":"m 603 578 l 608 581 q 444 846 569 734 l 271 742 l 221 819 l 368 908 q 252 982 298 956 l 298 1065 q 465 965 395 1018 l 619 1059 l 669 982 l 538 903 q 742 389 742 705 q 655 94 742 201 q 415 -14 568 -14 q 181 77 271 -14 q 92 323 92 168 q 173 570 92 482 q 400 659 255 659 q 603 578 543 659 m 416 558 q 222 319 222 558 q 418 89 222 89 q 568 156 522 89 q 614 357 614 224 q 561 501 614 444 q 416 558 509 558 z "},"ñ":{"ha":833,"x_min":109,"x_max":725,"o":"m 602 0 l 602 479 q 440 656 602 656 q 232 386 232 656 l 232 0 l 109 0 l 109 745 l 208 745 l 227 644 l 233 644 q 461 758 303 758 q 725 486 725 758 l 725 0 l 602 0 m 247 842 l 176 842 q 319 1021 193 1021 q 429 983 359 1021 q 521 945 498 945 q 593 1022 575 945 l 664 1022 q 521 843 646 843 q 414 882 482 843 q 319 920 347 920 q 247 842 264 920 z "},"ò":{"ha":833,"x_min":78,"x_max":754,"o":"m 414 -14 q 173 92 267 -14 q 78 374 78 197 q 170 655 78 552 q 418 758 262 758 q 660 653 566 758 q 754 374 754 548 q 661 90 754 194 q 414 -14 568 -14 m 416 89 q 627 374 627 89 q 415 656 627 656 q 205 374 205 656 q 416 89 205 89 m 523 842 l 441 842 q 256 1050 328 938 l 256 1064 l 405 1064 q 523 860 463 943 l 523 842 z "},"ó":{"ha":833,"x_min":78,"x_max":754,"o":"m 414 -14 q 173 92 267 -14 q 78 374 78 197 q 170 655 78 552 q 418 758 262 758 q 660 653 566 758 q 754 374 754 548 q 661 90 754 194 q 414 -14 568 -14 m 416 89 q 627 374 627 89 q 415 656 627 656 q 205 374 205 656 q 416 89 205 89 m 338 860 q 456 1064 401 950 l 604 1064 l 604 1050 q 420 842 528 932 l 338 842 l 338 860 z "},"ô":{"ha":833,"x_min":78,"x_max":754,"o":"m 414 -14 q 173 92 267 -14 q 78 374 78 197 q 170 655 78 552 q 418 758 262 758 q 660 653 566 758 q 754 374 754 548 q 661 90 754 194 q 414 -14 568 -14 m 416 89 q 627 374 627 89 q 415 656 627 656 q 205 374 205 656 q 416 89 205 89 m 638 842 l 556 842 q 413 968 498 880 q 270 842 323 876 l 189 842 l 189 860 q 229 905 205 880 q 348 1064 323 1010 l 479 1064 q 598 905 504 1010 l 638 860 l 638 842 z "},"õ":{"ha":833,"x_min":78,"x_max":754,"o":"m 414 -14 q 173 92 267 -14 q 78 374 78 197 q 170 655 78 552 q 418 758 262 758 q 660 653 566 758 q 754 374 754 548 q 661 90 754 194 q 414 -14 568 -14 m 416 89 q 627 374 627 89 q 415 656 627 656 q 205 374 205 656 q 416 89 205 89 m 243 842 l 172 842 q 315 1021 189 1021 q 425 983 355 1021 q 517 945 494 945 q 589 1022 571 945 l 660 1022 q 517 843 642 843 q 410 882 478 843 q 315 920 342 920 q 243 842 260 920 z "},"ö":{"ha":833,"x_min":78,"x_max":754,"o":"m 414 -14 q 173 92 267 -14 q 78 374 78 197 q 170 655 78 552 q 418 758 262 758 q 660 653 566 758 q 754 374 754 548 q 661 90 754 194 q 414 -14 568 -14 m 416 89 q 627 374 627 89 q 415 656 627 656 q 205 374 205 656 q 416 89 205 89 m 284 1015 q 349 946 349 1015 q 284 876 349 876 q 219 946 219 876 q 284 1015 219 1015 m 538 1015 q 604 946 604 1015 q 538 876 604 876 q 473 946 473 876 q 538 1015 473 1015 z "},"÷":{"ha":833,"x_min":103,"x_max":729,"o":"m 415 811 q 493 726 493 811 q 415 642 493 642 q 338 726 338 642 q 415 811 338 811 m 103 439 l 103 541 l 729 541 l 729 439 l 103 439 m 415 338 q 493 253 493 338 q 415 168 493 168 q 338 253 338 168 q 415 338 338 338 z "},"ø":{"ha":833,"x_min":78,"x_max":754,"o":"m 256 22 l 204 -58 l 115 -1 l 172 87 q 78 374 78 195 q 168 656 78 554 q 418 758 258 758 q 578 720 505 758 l 629 800 l 718 743 l 661 654 q 754 374 754 549 q 663 88 754 190 q 414 -14 572 -14 q 256 22 326 -14 m 241 187 l 517 632 q 411 656 472 656 q 254 586 302 656 q 205 374 205 515 q 241 187 205 252 m 591 554 l 317 111 q 421 89 358 89 q 578 160 530 89 q 627 374 627 232 q 591 554 627 485 z "},"ù":{"ha":833,"x_min":109,"x_max":725,"o":"m 625 0 l 607 100 l 600 100 q 374 -14 529 -14 q 109 258 109 -14 l 109 745 l 232 745 l 232 265 q 392 89 232 89 q 551 152 501 89 q 602 358 602 214 l 602 745 l 725 745 l 725 0 l 625 0 m 498 842 l 416 842 q 231 1050 303 938 l 231 1064 l 380 1064 q 498 860 438 943 l 498 842 z "},"ú":{"ha":833,"x_min":109,"x_max":725,"o":"m 625 0 l 607 100 l 600 100 q 374 -14 529 -14 q 109 258 109 -14 l 109 745 l 232 745 l 232 265 q 392 89 232 89 q 551 152 501 89 q 602 358 602 214 l 602 745 l 725 745 l 725 0 l 625 0 m 339 860 q 457 1064 403 950 l 606 1064 l 606 1050 q 421 842 530 932 l 339 842 l 339 860 z "},"û":{"ha":833,"x_min":109,"x_max":725,"o":"m 625 0 l 607 100 l 600 100 q 374 -14 529 -14 q 109 258 109 -14 l 109 745 l 232 745 l 232 265 q 392 89 232 89 q 551 152 501 89 q 602 358 602 214 l 602 745 l 725 745 l 725 0 l 625 0 m 647 842 l 565 842 q 422 968 507 880 q 279 842 332 876 l 197 842 l 197 860 q 237 905 214 880 q 357 1064 332 1010 l 488 1064 q 607 905 513 1010 l 647 860 l 647 842 z "},"ü":{"ha":833,"x_min":109,"x_max":725,"o":"m 625 0 l 607 100 l 600 100 q 374 -14 529 -14 q 109 258 109 -14 l 109 745 l 232 745 l 232 265 q 392 89 232 89 q 551 152 501 89 q 602 358 602 214 l 602 745 l 725 745 l 725 0 l 625 0 m 290 1015 q 355 946 355 1015 q 290 876 355 876 q 225 946 225 876 q 290 1015 225 1015 m 545 1015 q 610 946 610 1015 q 545 876 610 876 q 479 946 479 876 q 545 1015 479 1015 z "},"ý":{"ha":833,"x_min":56,"x_max":777,"o":"m 56 745 l 183 745 l 361 301 q 421 104 416 162 l 425 104 q 486 302 441 180 l 648 745 l 777 745 l 454 -97 q 349 -274 409 -215 q 182 -334 288 -334 q 68 -322 123 -334 l 68 -224 q 160 -232 110 -232 q 261 -204 225 -232 q 326 -109 298 -176 l 366 -7 l 56 745 m 335 860 q 453 1064 399 950 l 602 1064 l 602 1050 q 417 842 526 932 l 335 842 l 335 860 z "},"þ":{"ha":833,"x_min":107,"x_max":741,"o":"m 231 644 q 449 758 305 758 q 663 657 585 758 q 741 374 741 555 q 663 89 741 191 q 449 -14 585 -14 q 231 94 309 -14 l 222 94 q 231 -16 231 7 l 231 -334 l 107 -334 l 107 1055 l 231 1055 l 231 745 l 225 644 l 231 644 m 231 401 l 231 374 q 278 154 231 220 q 428 89 325 89 q 612 375 612 89 q 427 656 612 656 q 278 596 323 656 q 231 401 233 536 z "},"ÿ":{"ha":833,"x_min":56,"x_max":777,"o":"m 56 745 l 183 745 l 361 301 q 421 104 416 162 l 425 104 q 486 302 441 180 l 648 745 l 777 745 l 454 -97 q 349 -274 409 -215 q 182 -334 288 -334 q 68 -322 123 -334 l 68 -224 q 160 -232 110 -232 q 261 -204 225 -232 q 326 -109 298 -176 l 366 -7 l 56 745 m 294 1015 q 359 946 359 1015 q 294 876 359 876 q 229 946 229 876 q 294 1015 229 1015 m 549 1015 q 614 946 614 1015 q 549 876 614 876 q 484 946 484 876 q 549 1015 484 1015 z "},"Ā":{"ha":833,"x_min":22,"x_max":811,"o":"m 681 0 l 583 307 l 250 307 l 151 0 l 22 0 l 350 996 l 482 996 l 811 0 l 681 0 m 547 419 l 457 707 q 415 860 431 791 q 384 736 401 793 l 286 419 l 547 419 m 221 1173 l 611 1173 l 611 1071 l 221 1071 l 221 1173 z "},"ā":{"ha":833,"x_min":92,"x_max":696,"o":"m 607 0 l 582 103 l 576 103 q 469 12 524 37 q 328 -14 414 -14 q 154 45 217 -14 q 92 208 92 103 q 437 444 92 433 l 575 449 l 575 496 q 410 656 575 656 q 187 600 310 656 l 144 693 q 404 758 277 758 q 627 699 558 758 q 696 510 696 640 l 696 0 l 607 0 m 574 364 l 464 359 q 275 318 331 354 q 220 207 220 281 q 355 86 220 86 q 514 141 455 86 q 574 297 574 197 l 574 364 m 215 943 l 605 943 l 605 842 l 215 842 l 215 943 z "},"Ă":{"ha":833,"x_min":22,"x_max":811,"o":"m 681 0 l 583 307 l 250 307 l 151 0 l 22 0 l 350 996 l 482 996 l 811 0 l 681 0 m 547 419 l 457 707 q 415 860 431 791 q 384 736 401 793 l 286 419 l 547 419 m 618 1259 q 558 1122 612 1173 q 412 1071 504 1071 q 210 1259 222 1071 l 284 1259 q 316 1191 289 1207 q 413 1174 342 1174 q 543 1259 536 1174 l 618 1259 z "},"ă":{"ha":833,"x_min":92,"x_max":696,"o":"m 607 0 l 582 103 l 576 103 q 469 12 524 37 q 328 -14 414 -14 q 154 45 217 -14 q 92 208 92 103 q 437 444 92 433 l 575 449 l 575 496 q 410 656 575 656 q 187 600 310 656 l 144 693 q 404 758 277 758 q 627 699 558 758 q 696 510 696 640 l 696 0 l 607 0 m 574 364 l 464 359 q 275 318 331 354 q 220 207 220 281 q 355 86 220 86 q 514 141 455 86 q 574 297 574 197 l 574 364 m 613 1029 q 553 892 607 943 q 406 842 498 842 q 205 1029 216 842 l 279 1029 q 310 961 283 978 q 408 945 337 945 q 537 1029 530 945 l 613 1029 z "},"Ą":{"ha":833,"x_min":22,"x_max":823,"o":"m 681 0 l 583 307 l 250 307 l 151 0 l 22 0 l 350 996 l 482 996 l 811 0 l 681 0 m 547 419 l 457 707 q 415 860 431 791 q 384 736 401 793 l 286 419 l 547 419 m 823 -216 l 823 -293 q 718 -309 774 -309 q 594 -272 637 -309 q 551 -171 551 -235 q 680 0 551 -73 l 769 0 q 654 -161 654 -85 q 740 -227 654 -227 q 823 -216 785 -227 z "},"ą":{"ha":833,"x_min":92,"x_max":750,"o":"m 607 0 l 582 103 l 576 103 q 469 12 524 37 q 328 -14 414 -14 q 154 45 217 -14 q 92 208 92 103 q 437 444 92 433 l 575 449 l 575 496 q 410 656 575 656 q 187 600 310 656 l 144 693 q 404 758 277 758 q 627 699 558 758 q 696 510 696 640 l 696 0 l 607 0 m 574 364 l 464 359 q 275 318 331 354 q 220 207 220 281 q 355 86 220 86 q 514 141 455 86 q 574 297 574 197 l 574 364 m 750 -216 l 750 -293 q 644 -309 701 -309 q 521 -272 564 -309 q 478 -171 478 -235 q 607 0 478 -73 l 696 0 q 581 -161 581 -85 q 667 -227 581 -227 q 750 -216 711 -227 z "},"Ć":{"ha":833,"x_min":87,"x_max":800,"o":"m 762 136 l 762 26 q 519 -14 663 -14 q 199 119 310 -14 q 87 497 87 252 q 209 869 87 732 q 541 1006 330 1006 q 800 947 690 1006 l 747 842 q 541 895 643 895 q 308 787 395 895 q 221 496 221 680 q 302 199 221 301 q 541 97 384 97 q 762 136 629 97 m 448 1089 q 566 1293 511 1179 l 714 1293 l 714 1279 q 530 1071 638 1162 l 448 1071 l 448 1089 z "},"ć":{"ha":833,"x_min":117,"x_max":720,"o":"m 720 718 l 677 611 q 496 650 576 650 q 244 370 244 650 q 489 94 244 94 q 707 136 595 94 l 707 28 q 484 -14 616 -14 q 213 85 309 -14 q 117 368 117 184 q 215 659 117 559 q 492 758 313 758 q 720 718 612 758 m 392 860 q 510 1064 456 950 l 659 1064 l 659 1050 q 474 842 583 932 l 392 842 l 392 860 z "},"Ĉ":{"ha":833,"x_min":87,"x_max":800,"o":"m 762 136 l 762 26 q 519 -14 663 -14 q 199 119 310 -14 q 87 497 87 252 q 209 869 87 732 q 541 1006 330 1006 q 800 947 690 1006 l 747 842 q 541 895 643 895 q 308 787 395 895 q 221 496 221 680 q 302 199 221 301 q 541 97 384 97 q 762 136 629 97 m 750 1071 l 668 1071 q 525 1197 610 1109 q 382 1071 435 1105 l 300 1071 l 300 1089 q 340 1135 317 1109 q 460 1293 435 1240 l 591 1293 q 710 1135 616 1240 l 750 1089 l 750 1071 z "},"ĉ":{"ha":833,"x_min":117,"x_max":720,"o":"m 720 718 l 677 611 q 496 650 576 650 q 244 370 244 650 q 489 94 244 94 q 707 136 595 94 l 707 28 q 484 -14 616 -14 q 213 85 309 -14 q 117 368 117 184 q 215 659 117 559 q 492 758 313 758 q 720 718 612 758 m 699 842 l 616 842 q 473 968 559 880 q 330 842 383 876 l 249 842 l 249 860 q 289 905 266 880 q 408 1064 383 1010 l 539 1064 q 659 905 564 1010 l 699 860 l 699 842 z "},"Ċ":{"ha":833,"x_min":87,"x_max":800,"o":"m 762 136 l 762 26 q 519 -14 663 -14 q 199 119 310 -14 q 87 497 87 252 q 209 869 87 732 q 541 1006 330 1006 q 800 947 690 1006 l 747 842 q 541 895 643 895 q 308 787 395 895 q 221 496 221 680 q 302 199 221 301 q 541 97 384 97 q 762 136 629 97 m 528 1253 q 600 1175 600 1253 q 528 1097 600 1097 q 456 1175 456 1097 q 528 1253 456 1253 z "},"ċ":{"ha":833,"x_min":117,"x_max":720,"o":"m 720 718 l 677 611 q 496 650 576 650 q 244 370 244 650 q 489 94 244 94 q 707 136 595 94 l 707 28 q 484 -14 616 -14 q 213 85 309 -14 q 117 368 117 184 q 215 659 117 559 q 492 758 313 758 q 720 718 612 758 m 473 1023 q 546 946 546 1023 q 473 868 546 868 q 401 946 401 868 q 473 1023 401 1023 z "},"Č":{"ha":833,"x_min":87,"x_max":800,"o":"m 762 136 l 762 26 q 519 -14 663 -14 q 199 119 310 -14 q 87 497 87 252 q 209 869 87 732 q 541 1006 330 1006 q 800 947 690 1006 l 747 842 q 541 895 643 895 q 308 787 395 895 q 221 496 221 680 q 302 199 221 301 q 541 97 384 97 q 762 136 629 97 m 746 1275 q 706 1230 729 1255 q 587 1071 610 1122 l 456 1071 q 336 1230 432 1122 l 296 1275 l 296 1293 l 378 1293 q 521 1166 433 1257 q 664 1293 604 1253 l 746 1293 l 746 1275 z "},"č":{"ha":833,"x_min":117,"x_max":720,"o":"m 720 718 l 677 611 q 496 650 576 650 q 244 370 244 650 q 489 94 244 94 q 707 136 595 94 l 707 28 q 484 -14 616 -14 q 213 85 309 -14 q 117 368 117 184 q 215 659 117 559 q 492 758 313 758 q 720 718 612 758 m 704 1046 q 664 1000 687 1026 q 545 842 568 893 l 414 842 q 294 1000 390 893 l 254 1046 l 254 1064 l 336 1064 q 479 937 391 1027 q 622 1064 562 1024 l 704 1064 l 704 1046 z "},"Ď":{"ha":833,"x_min":92,"x_max":778,"o":"m 92 0 l 92 991 l 323 991 q 658 863 538 991 q 778 505 778 735 q 654 130 778 260 q 296 0 530 0 l 92 0 m 218 884 l 218 109 l 283 109 q 644 501 644 109 q 310 884 644 884 l 218 884 m 635 1275 q 595 1230 618 1255 q 476 1071 500 1122 l 345 1071 q 226 1230 321 1122 l 186 1275 l 186 1293 l 267 1293 q 410 1166 323 1257 q 553 1293 493 1253 l 635 1293 l 635 1275 z "},"ď":{"ha":833,"x_min":54,"x_max":892,"o":"m 569 100 l 564 100 q 345 -14 487 -14 q 131 88 209 -14 q 54 371 54 189 q 132 656 54 554 q 345 758 210 758 q 564 650 485 758 l 572 650 q 564 760 564 737 l 564 1055 l 687 1055 l 687 0 l 587 0 l 569 100 m 564 343 l 564 371 q 516 590 564 525 q 366 656 469 656 q 182 370 182 656 q 368 89 182 89 q 516 149 471 89 q 564 343 561 209 m 728 851 l 746 924 q 770 1055 764 1002 l 892 1055 l 892 1042 q 863 965 892 1032 q 793 833 835 898 l 728 833 l 728 851 z "},"Đ":{"ha":833,"x_min":0,"x_max":778,"o":"m 92 0 l 92 447 l 0 447 l 0 557 l 92 557 l 92 991 l 323 991 q 658 863 538 991 q 778 505 778 735 q 654 130 778 260 q 296 0 530 0 l 92 0 m 218 884 l 218 557 l 476 557 l 476 447 l 218 447 l 218 109 l 283 109 q 644 501 644 109 q 310 884 644 884 l 218 884 z "},"đ":{"ha":833,"x_min":93,"x_max":832,"o":"m 608 100 l 603 100 q 385 -14 526 -14 q 171 84 248 -14 q 93 357 93 182 q 171 632 93 533 q 385 730 249 730 q 603 623 526 730 l 611 623 q 603 732 603 708 l 603 839 l 346 839 l 346 932 l 603 932 l 603 1055 l 726 1055 l 726 932 l 832 932 l 832 839 l 726 839 l 726 0 l 627 0 l 608 100 m 603 330 l 603 357 q 556 566 603 503 q 406 628 509 628 q 221 355 221 628 q 407 89 221 89 q 555 145 509 89 q 603 330 600 201 z "},"Ē":{"ha":833,"x_min":147,"x_max":718,"o":"m 718 0 l 147 0 l 147 991 l 718 991 l 718 880 l 273 880 l 273 574 l 692 574 l 692 464 l 273 464 l 273 111 l 718 111 l 718 0 m 228 1173 l 618 1173 l 618 1071 l 228 1071 l 228 1173 z "},"ē":{"ha":833,"x_min":90,"x_max":743,"o":"m 743 349 l 218 349 q 452 94 224 94 q 703 146 584 94 l 703 37 q 456 -14 590 -14 q 190 88 290 -14 q 90 367 90 189 q 182 653 90 547 q 428 758 274 758 q 657 667 572 758 q 743 425 743 576 l 743 349 m 221 449 l 610 449 q 425 656 610 656 q 221 449 239 656 m 235 943 l 625 943 l 625 842 l 235 842 l 235 943 z "},"Ĕ":{"ha":833,"x_min":147,"x_max":718,"o":"m 718 0 l 147 0 l 147 991 l 718 991 l 718 880 l 273 880 l 273 574 l 692 574 l 692 464 l 273 464 l 273 111 l 718 111 l 718 0 m 640 1259 q 580 1122 634 1173 q 433 1071 526 1071 q 232 1259 243 1071 l 306 1259 q 337 1191 311 1207 q 435 1174 364 1174 q 564 1259 557 1174 l 640 1259 z "},"ĕ":{"ha":833,"x_min":90,"x_max":743,"o":"m 743 349 l 218 349 q 452 94 224 94 q 703 146 584 94 l 703 37 q 456 -14 590 -14 q 190 88 290 -14 q 90 367 90 189 q 182 653 90 547 q 428 758 274 758 q 657 667 572 758 q 743 425 743 576 l 743 349 m 221 449 l 610 449 q 425 656 610 656 q 221 449 239 656 m 631 1029 q 571 892 625 943 q 425 842 517 842 q 223 1029 235 842 l 297 1029 q 329 961 302 978 q 426 945 355 945 q 555 1029 549 945 l 631 1029 z "},"Ė":{"ha":833,"x_min":147,"x_max":718,"o":"m 718 0 l 147 0 l 147 991 l 718 991 l 718 880 l 273 880 l 273 574 l 692 574 l 692 464 l 273 464 l 273 111 l 718 111 l 718 0 m 440 1233 q 513 1156 513 1233 q 440 1078 513 1078 q 368 1156 368 1078 q 440 1233 368 1233 z "},"ė":{"ha":833,"x_min":90,"x_max":743,"o":"m 743 349 l 218 349 q 452 94 224 94 q 703 146 584 94 l 703 37 q 456 -14 590 -14 q 190 88 290 -14 q 90 367 90 189 q 182 653 90 547 q 428 758 274 758 q 657 667 572 758 q 743 425 743 576 l 743 349 m 221 449 l 610 449 q 425 656 610 656 q 221 449 239 656 m 432 1023 q 505 946 505 1023 q 432 868 505 868 q 360 946 360 868 q 432 1023 360 1023 z "},"Ę":{"ha":833,"x_min":147,"x_max":718,"o":"m 718 0 l 147 0 l 147 991 l 718 991 l 718 880 l 273 880 l 273 574 l 692 574 l 692 464 l 273 464 l 273 111 l 718 111 l 718 0 m 692 -216 l 692 -293 q 586 -309 642 -309 q 463 -272 505 -309 q 420 -171 420 -235 q 549 0 420 -73 l 637 0 q 522 -161 522 -85 q 608 -227 522 -227 q 692 -216 653 -227 z "},"ę":{"ha":833,"x_min":90,"x_max":743,"o":"m 743 349 l 218 349 q 452 94 224 94 q 703 146 584 94 l 703 37 q 456 -14 590 -14 q 190 88 290 -14 q 90 367 90 189 q 182 653 90 547 q 428 758 274 758 q 657 667 572 758 q 743 425 743 576 l 743 349 m 221 449 l 610 449 q 425 656 610 656 q 221 449 239 656 m 707 -195 l 707 -272 q 601 -288 657 -288 q 477 -251 520 -288 q 435 -150 435 -214 q 564 21 435 -52 l 652 21 q 537 -140 537 -64 q 623 -205 537 -205 q 707 -195 668 -205 z "},"Ě":{"ha":833,"x_min":147,"x_max":718,"o":"m 718 0 l 147 0 l 147 991 l 718 991 l 718 880 l 273 880 l 273 574 l 692 574 l 692 464 l 273 464 l 273 111 l 718 111 l 718 0 m 665 1275 q 625 1230 648 1255 q 506 1071 530 1122 l 375 1071 q 256 1230 351 1122 l 216 1275 l 216 1293 l 297 1293 q 440 1166 353 1257 q 583 1293 523 1253 l 665 1293 l 665 1275 z "},"ě":{"ha":833,"x_min":90,"x_max":743,"o":"m 743 349 l 218 349 q 452 94 224 94 q 703 146 584 94 l 703 37 q 456 -14 590 -14 q 190 88 290 -14 q 90 367 90 189 q 182 653 90 547 q 428 758 274 758 q 657 667 572 758 q 743 425 743 576 l 743 349 m 221 449 l 610 449 q 425 656 610 656 q 221 449 239 656 m 659 1046 q 618 1000 642 1026 q 499 842 523 893 l 368 842 q 249 1000 345 893 l 209 1046 l 209 1064 l 290 1064 q 433 937 346 1027 q 576 1064 516 1024 l 659 1064 l 659 1046 z "},"Ĝ":{"ha":833,"x_min":79,"x_max":742,"o":"m 456 524 l 742 524 l 742 37 q 457 -14 610 -14 q 179 122 279 -14 q 79 497 79 257 q 189 870 79 735 q 492 1006 299 1006 q 726 947 622 1006 l 677 838 q 488 895 578 895 q 285 789 357 895 q 212 496 212 684 q 479 97 212 97 q 616 117 545 97 l 616 412 l 456 412 l 456 524 m 696 1071 l 614 1071 q 471 1197 556 1109 q 328 1071 380 1105 l 246 1071 l 246 1089 q 286 1135 263 1109 q 406 1293 380 1240 l 536 1293 q 656 1135 562 1240 l 696 1089 l 696 1071 z "},"ĝ":{"ha":833,"x_min":69,"x_max":764,"o":"m 764 745 l 764 668 l 631 650 q 675 505 675 592 q 603 331 675 396 q 401 267 530 267 q 343 271 364 267 q 275 180 275 233 q 385 123 275 123 l 511 123 q 692 71 629 123 q 754 -78 754 19 q 371 -334 754 -334 q 146 -279 223 -334 q 69 -126 69 -224 q 232 57 69 18 q 167 161 167 89 q 257 292 167 237 q 162 375 197 317 q 127 501 127 433 q 200 691 127 625 q 406 758 272 758 q 507 745 464 758 l 764 745 m 403 351 q 554 507 554 351 q 401 669 554 669 q 249 505 249 669 q 403 351 249 351 m 469 12 l 342 12 q 186 -122 186 12 q 370 -240 186 -240 q 637 -89 637 -240 q 604 -8 637 -29 q 469 12 570 12 m 635 842 l 553 842 q 410 968 496 880 q 267 842 320 876 l 186 842 l 186 860 q 226 905 203 880 q 345 1064 320 1010 l 476 1064 q 595 905 501 1010 l 635 860 l 635 842 z "},"Ğ":{"ha":833,"x_min":79,"x_max":742,"o":"m 456 524 l 742 524 l 742 37 q 457 -14 610 -14 q 179 122 279 -14 q 79 497 79 257 q 189 870 79 735 q 492 1006 299 1006 q 726 947 622 1006 l 677 838 q 488 895 578 895 q 285 789 357 895 q 212 496 212 684 q 479 97 212 97 q 616 117 545 97 l 616 412 l 456 412 l 456 524 m 687 1259 q 627 1122 681 1173 q 480 1071 572 1071 q 279 1259 290 1071 l 353 1259 q 384 1191 357 1207 q 481 1174 411 1174 q 611 1259 604 1174 l 687 1259 z "},"ğ":{"ha":833,"x_min":69,"x_max":764,"o":"m 764 745 l 764 668 l 631 650 q 675 505 675 592 q 603 331 675 396 q 401 267 530 267 q 343 271 364 267 q 275 180 275 233 q 385 123 275 123 l 511 123 q 692 71 629 123 q 754 -78 754 19 q 371 -334 754 -334 q 146 -279 223 -334 q 69 -126 69 -224 q 232 57 69 18 q 167 161 167 89 q 257 292 167 237 q 162 375 197 317 q 127 501 127 433 q 200 691 127 625 q 406 758 272 758 q 507 745 464 758 l 764 745 m 403 351 q 554 507 554 351 q 401 669 554 669 q 249 505 249 669 q 403 351 249 351 m 469 12 l 342 12 q 186 -122 186 12 q 370 -240 186 -240 q 637 -89 637 -240 q 604 -8 637 -29 q 469 12 570 12 m 612 1029 q 551 892 606 943 q 405 842 497 842 q 203 1029 215 842 l 277 1029 q 309 961 282 978 q 406 945 336 945 q 536 1029 529 945 l 612 1029 z "},"Ġ":{"ha":833,"x_min":79,"x_max":742,"o":"m 456 524 l 742 524 l 742 37 q 457 -14 610 -14 q 179 122 279 -14 q 79 497 79 257 q 189 870 79 735 q 492 1006 299 1006 q 726 947 622 1006 l 677 838 q 488 895 578 895 q 285 789 357 895 q 212 496 212 684 q 479 97 212 97 q 616 117 545 97 l 616 412 l 456 412 l 456 524 m 490 1253 q 563 1175 563 1253 q 490 1097 563 1097 q 418 1175 418 1097 q 490 1253 418 1253 z "},"ġ":{"ha":833,"x_min":69,"x_max":764,"o":"m 764 745 l 764 668 l 631 650 q 675 505 675 592 q 603 331 675 396 q 401 267 530 267 q 343 271 364 267 q 275 180 275 233 q 385 123 275 123 l 511 123 q 692 71 629 123 q 754 -78 754 19 q 371 -334 754 -334 q 146 -279 223 -334 q 69 -126 69 -224 q 232 57 69 18 q 167 161 167 89 q 257 292 167 237 q 162 375 197 317 q 127 501 127 433 q 200 691 127 625 q 406 758 272 758 q 507 745 464 758 l 764 745 m 403 351 q 554 507 554 351 q 401 669 554 669 q 249 505 249 669 q 403 351 249 351 m 469 12 l 342 12 q 186 -122 186 12 q 370 -240 186 -240 q 637 -89 637 -240 q 604 -8 637 -29 q 469 12 570 12 m 416 1023 q 488 946 488 1023 q 416 868 488 868 q 344 946 344 868 q 416 1023 344 1023 z "},"Ģ":{"ha":833,"x_min":79,"x_max":742,"o":"m 456 524 l 742 524 l 742 37 q 457 -14 610 -14 q 179 122 279 -14 q 79 497 79 257 q 189 870 79 735 q 492 1006 299 1006 q 726 947 622 1006 l 677 838 q 488 895 578 895 q 285 789 357 895 q 212 496 212 684 q 479 97 212 97 q 616 117 545 97 l 616 412 l 456 412 l 456 524 m 366 -289 q 423 -85 408 -194 l 544 -85 l 544 -98 q 511 -182 544 -113 q 433 -307 479 -252 l 366 -307 l 366 -289 z "},"ģ":{"ha":833,"x_min":69,"x_max":764,"o":"m 764 745 l 764 668 l 631 650 q 675 505 675 592 q 603 331 675 396 q 401 267 530 267 q 343 271 364 267 q 275 180 275 233 q 385 123 275 123 l 511 123 q 692 71 629 123 q 754 -78 754 19 q 371 -334 754 -334 q 146 -279 223 -334 q 69 -126 69 -224 q 232 57 69 18 q 167 161 167 89 q 257 292 167 237 q 162 375 197 317 q 127 501 127 433 q 200 691 127 625 q 406 758 272 758 q 507 745 464 758 l 764 745 m 403 351 q 554 507 554 351 q 401 669 554 669 q 249 505 249 669 q 403 351 249 351 m 469 12 l 342 12 q 186 -122 186 12 q 370 -240 186 -240 q 637 -89 637 -240 q 604 -8 637 -29 q 469 12 570 12 m 536 1046 q 479 842 493 942 l 358 842 l 358 856 q 389 936 358 867 q 469 1064 420 1004 l 536 1064 l 536 1046 z "},"Ĥ":{"ha":833,"x_min":92,"x_max":742,"o":"m 742 0 l 615 0 l 615 463 l 218 463 l 218 0 l 92 0 l 92 991 l 218 991 l 218 574 l 615 574 l 615 991 l 742 991 l 742 0 m 642 1071 l 559 1071 q 416 1197 502 1109 q 273 1071 326 1105 l 192 1071 l 192 1089 q 232 1135 209 1109 q 351 1293 326 1240 l 482 1293 q 602 1135 507 1240 l 642 1089 l 642 1071 z "},"ĥ":{"ha":833,"x_min":109,"x_max":725,"o":"m 602 0 l 602 479 q 440 656 602 656 q 232 386 232 656 l 232 0 l 109 0 l 109 1055 l 232 1055 l 232 742 l 227 644 l 233 644 q 461 758 303 758 q 725 486 725 758 l 725 0 l 602 0 m 651 1108 l 569 1108 q 426 1234 511 1146 q 283 1108 336 1142 l 201 1108 l 201 1126 q 241 1172 218 1146 q 361 1331 336 1277 l 492 1331 q 611 1172 517 1277 l 651 1126 l 651 1108 z "},"Ħ":{"ha":833,"x_min":0,"x_max":833,"o":"m 92 827 l 92 991 l 218 991 l 218 827 l 615 827 l 615 991 l 742 991 l 742 827 l 833 827 l 833 725 l 742 725 l 742 0 l 615 0 l 615 463 l 218 463 l 218 0 l 92 0 l 92 725 l 0 725 l 0 827 l 92 827 m 615 574 l 615 725 l 218 725 l 218 574 l 615 574 z "},"ħ":{"ha":833,"x_min":3,"x_max":725,"o":"m 602 0 l 602 452 q 441 628 602 628 q 282 565 332 628 q 232 358 232 501 l 232 0 l 109 0 l 109 839 l 3 839 l 3 932 l 109 932 l 109 1055 l 233 1055 l 233 932 l 517 932 l 517 839 l 232 839 l 232 714 l 225 616 l 232 616 q 467 730 305 730 q 661 666 597 730 q 725 458 725 601 l 725 0 l 602 0 z "},"Ĩ":{"ha":833,"x_min":153,"x_max":679,"o":"m 679 0 l 153 0 l 153 83 l 353 97 l 353 895 l 153 908 l 153 991 l 679 991 l 679 908 l 479 895 l 479 97 l 679 83 l 679 0 m 243 1071 l 172 1071 q 315 1250 189 1250 q 425 1212 355 1250 q 517 1174 494 1174 q 589 1251 571 1174 l 660 1251 q 517 1072 642 1072 q 410 1111 478 1072 q 315 1149 342 1149 q 243 1071 260 1149 z "},"ĩ":{"ha":833,"x_min":134,"x_max":729,"o":"m 367 647 l 184 661 l 184 745 l 490 745 l 490 97 l 729 83 l 729 0 l 134 0 l 134 83 l 367 97 l 367 647 m 241 842 l 170 842 q 313 1021 187 1021 q 422 983 353 1021 q 515 945 492 945 q 587 1022 569 945 l 658 1022 q 515 843 640 843 q 408 882 476 843 q 313 920 340 920 q 241 842 258 920 z "},"Ī":{"ha":833,"x_min":153,"x_max":679,"o":"m 679 0 l 153 0 l 153 83 l 353 97 l 353 895 l 153 908 l 153 991 l 679 991 l 679 908 l 479 895 l 479 97 l 679 83 l 679 0 m 222 1173 l 612 1173 l 612 1071 l 222 1071 l 222 1173 z "},"ī":{"ha":833,"x_min":134,"x_max":729,"o":"m 367 647 l 184 661 l 184 745 l 490 745 l 490 97 l 729 83 l 729 0 l 134 0 l 134 83 l 367 97 l 367 647 m 221 943 l 611 943 l 611 842 l 221 842 l 221 943 z "},"Ĭ":{"ha":833,"x_min":153,"x_max":679,"o":"m 679 0 l 153 0 l 153 83 l 353 97 l 353 895 l 153 908 l 153 991 l 679 991 l 679 908 l 479 895 l 479 97 l 679 83 l 679 0 m 621 1259 q 560 1122 614 1173 q 414 1071 506 1071 q 212 1259 224 1071 l 286 1259 q 318 1191 291 1207 q 415 1174 345 1174 q 545 1259 538 1174 l 621 1259 z "},"ĭ":{"ha":833,"x_min":134,"x_max":729,"o":"m 367 647 l 184 661 l 184 745 l 490 745 l 490 97 l 729 83 l 729 0 l 134 0 l 134 83 l 367 97 l 367 647 m 637 1029 q 577 892 631 943 q 431 842 523 842 q 229 1029 241 842 l 303 1029 q 335 961 308 978 q 432 945 361 945 q 562 1029 555 945 l 637 1029 z "},"Į":{"ha":833,"x_min":153,"x_max":679,"o":"m 679 0 l 153 0 l 153 83 l 353 97 l 353 895 l 153 908 l 153 991 l 679 991 l 679 908 l 479 895 l 479 97 l 679 83 l 679 0 m 558 -216 l 558 -293 q 452 -309 509 -309 q 329 -272 372 -309 q 286 -171 286 -235 q 415 0 286 -73 l 504 0 q 389 -161 389 -85 q 475 -227 389 -227 q 558 -216 519 -227 z "},"į":{"ha":833,"x_min":134,"x_max":729,"o":"m 429 1051 q 501 974 501 1051 q 480 915 501 935 q 429 896 458 896 q 357 974 357 896 q 429 1051 357 1051 m 367 647 l 184 661 l 184 745 l 490 745 l 490 97 l 729 83 l 729 0 l 134 0 l 134 83 l 367 97 l 367 647 m 570 -216 l 570 -293 q 464 -309 520 -309 q 340 -272 383 -309 q 298 -171 298 -235 q 427 0 298 -73 l 515 0 q 400 -161 400 -85 q 486 -227 400 -227 q 570 -216 531 -227 z "},"İ":{"ha":833,"x_min":153,"x_max":679,"o":"m 679 0 l 153 0 l 153 83 l 353 97 l 353 895 l 153 908 l 153 991 l 679 991 l 679 908 l 479 895 l 479 97 l 679 83 l 679 0 m 416 1253 q 489 1175 489 1253 q 416 1097 489 1097 q 345 1175 345 1097 q 416 1253 345 1253 z "},"ı":{"ha":833,"x_min":134,"x_max":729,"o":"m 367 647 l 184 661 l 184 745 l 490 745 l 490 97 l 729 83 l 729 0 l 134 0 l 134 83 l 367 97 l 367 647 z "},"Ĳ":{"ha":833,"x_min":106,"x_max":718,"o":"m 106 0 l 106 991 l 232 991 l 232 0 l 106 0 m 334 16 l 334 126 q 460 96 397 96 q 591 288 591 96 l 591 991 l 718 991 l 718 296 q 471 -14 718 -14 q 334 16 380 -14 z "},"ĳ":{"ha":833,"x_min":127,"x_max":704,"o":"m 200 1051 q 272 974 272 1051 q 251 915 272 935 q 200 896 229 896 q 127 974 127 896 q 200 1051 127 1051 m 629 1051 q 701 974 701 1051 q 680 915 701 935 q 629 896 659 896 q 557 974 557 896 q 629 1051 557 1051 m 138 745 l 261 745 l 261 0 l 138 0 l 138 745 m 340 -310 l 340 -205 q 469 -232 400 -232 q 581 -86 581 -232 l 581 647 l 435 661 l 435 745 l 704 745 l 704 -79 q 646 -268 704 -203 q 486 -334 589 -334 q 340 -310 403 -334 z "},"Ĵ":{"ha":833,"x_min":93,"x_max":823,"o":"m 93 26 l 93 139 q 302 97 203 97 q 475 151 412 97 q 538 304 538 205 l 538 991 l 664 991 l 664 306 q 569 73 664 159 q 313 -14 473 -14 q 93 26 165 -14 m 823 1071 l 741 1071 q 598 1197 684 1109 q 455 1071 508 1105 l 374 1071 l 374 1089 q 414 1135 391 1109 q 533 1293 508 1240 l 664 1293 q 783 1135 689 1240 l 823 1089 l 823 1071 z "},"ĵ":{"ha":833,"x_min":92,"x_max":655,"o":"m 655 842 l 573 842 q 430 968 515 880 q 287 842 340 876 l 205 842 l 205 860 q 245 905 222 880 q 365 1064 340 1010 l 496 1064 q 615 905 521 1010 l 655 860 l 655 842 m 92 -310 l 92 -205 q 288 -232 182 -232 q 411 -193 367 -232 q 456 -86 456 -155 l 456 647 l 171 661 l 171 745 l 579 745 l 579 -79 q 503 -268 579 -201 q 286 -334 426 -334 q 92 -310 175 -334 z "},"Ķ":{"ha":833,"x_min":143,"x_max":812,"o":"m 812 0 l 669 0 l 364 473 l 269 396 l 269 0 l 143 0 l 143 991 l 269 991 l 269 496 l 351 610 l 659 991 l 800 991 l 447 559 l 812 0 m 346 -289 q 403 -85 388 -194 l 524 -85 l 524 -98 q 491 -182 524 -113 q 413 -307 458 -252 l 346 -307 l 346 -289 z "},"ķ":{"ha":833,"x_min":146,"x_max":789,"o":"m 260 375 l 351 478 l 619 745 l 770 745 l 435 422 l 789 0 l 644 0 l 355 342 l 268 286 l 268 0 l 146 0 l 146 1055 l 268 1055 l 268 571 l 257 375 l 260 375 m 329 -289 q 386 -85 371 -194 l 507 -85 l 507 -98 q 474 -182 507 -113 q 396 -307 441 -252 l 329 -307 l 329 -289 z "},"ĸ":{"ha":833,"x_min":146,"x_max":789,"o":"m 260 345 l 353 457 l 625 745 l 770 745 l 435 399 l 789 0 l 644 0 l 355 318 l 268 262 l 268 0 l 146 0 l 146 745 l 268 745 l 268 547 l 257 345 l 260 345 z "},"Ĺ":{"ha":833,"x_min":158,"x_max":715,"o":"m 158 0 l 158 991 l 285 991 l 285 113 l 715 113 l 715 0 l 158 0 m 178 1089 q 296 1293 242 1179 l 445 1293 l 445 1279 q 260 1071 369 1162 l 178 1071 l 178 1089 z "},"ĺ":{"ha":833,"x_min":127,"x_max":724,"o":"m 361 958 l 179 972 l 179 1055 l 485 1055 l 485 97 l 724 83 l 724 0 l 127 0 l 127 83 l 361 97 l 361 958 m 336 1128 q 454 1332 400 1218 l 603 1332 l 603 1318 q 418 1109 527 1200 l 336 1109 l 336 1128 z "},"Ļ":{"ha":833,"x_min":158,"x_max":715,"o":"m 158 0 l 158 991 l 285 991 l 285 113 l 715 113 l 715 0 l 158 0 m 333 -289 q 390 -85 375 -194 l 511 -85 l 511 -98 q 478 -182 511 -113 q 400 -307 446 -252 l 333 -307 l 333 -289 z "},"ļ":{"ha":833,"x_min":127,"x_max":724,"o":"m 361 958 l 179 972 l 179 1055 l 485 1055 l 485 97 l 724 83 l 724 0 l 127 0 l 127 83 l 361 97 l 361 958 m 313 -289 q 370 -85 355 -194 l 490 -85 l 490 -98 q 458 -182 490 -113 q 380 -307 425 -252 l 313 -307 l 313 -289 z "},"Ľ":{"ha":833,"x_min":158,"x_max":715,"o":"m 158 0 l 158 991 l 285 991 l 285 113 l 715 113 l 715 0 l 158 0 m 509 788 l 526 861 q 550 992 544 939 l 672 992 l 672 979 q 644 902 672 969 q 574 770 615 835 l 509 770 l 509 788 z "},"ľ":{"ha":833,"x_min":127,"x_max":750,"o":"m 361 958 l 179 972 l 179 1055 l 485 1055 l 485 97 l 724 83 l 724 0 l 127 0 l 127 83 l 361 97 l 361 958 m 587 851 l 604 924 q 628 1055 622 1002 l 750 1055 l 750 1042 q 722 965 750 1032 q 652 833 693 898 l 587 833 l 587 851 z "},"Ŀ":{"ha":833,"x_min":158,"x_max":715,"o":"m 158 0 l 158 991 l 285 991 l 285 113 l 715 113 l 715 0 l 158 0 m 581 603 q 653 526 653 603 q 581 448 653 448 q 509 526 509 448 q 581 603 509 603 z "},"ŀ":{"ha":833,"x_min":127,"x_max":732,"o":"m 361 958 l 179 972 l 179 1055 l 485 1055 l 485 97 l 724 83 l 724 0 l 127 0 l 127 83 l 361 97 l 361 958 m 659 541 q 732 463 732 541 q 659 385 732 385 q 587 463 587 385 q 659 541 587 541 z "},"Ł":{"ha":833,"x_min":49,"x_max":741,"o":"m 183 0 l 183 334 l 98 281 l 49 366 l 183 450 l 183 991 l 310 991 l 310 530 l 513 659 l 566 574 l 310 412 l 310 113 l 741 113 l 741 0 l 183 0 z "},"ł":{"ha":833,"x_min":127,"x_max":724,"o":"m 361 401 l 265 339 l 212 421 l 361 518 l 361 958 l 179 972 l 179 1055 l 485 1055 l 485 599 l 596 672 l 648 590 l 485 482 l 485 97 l 724 83 l 724 0 l 127 0 l 127 83 l 361 97 l 361 401 z "},"Ń":{"ha":833,"x_min":92,"x_max":741,"o":"m 741 0 l 595 0 l 201 821 l 196 821 q 208 538 208 633 l 208 0 l 92 0 l 92 991 l 236 991 l 628 175 l 632 175 q 623 449 623 380 l 623 991 l 741 991 l 741 0 m 350 1089 q 468 1293 414 1179 l 616 1293 l 616 1279 q 432 1071 541 1162 l 350 1071 l 350 1089 z "},"ń":{"ha":833,"x_min":109,"x_max":725,"o":"m 602 0 l 602 479 q 440 656 602 656 q 232 386 232 656 l 232 0 l 109 0 l 109 745 l 208 745 l 227 644 l 233 644 q 461 758 303 758 q 725 486 725 758 l 725 0 l 602 0 m 359 860 q 477 1064 422 950 l 625 1064 l 625 1050 q 441 842 549 932 l 359 842 l 359 860 z "},"Ņ":{"ha":833,"x_min":92,"x_max":741,"o":"m 741 0 l 595 0 l 201 821 l 196 821 q 208 538 208 633 l 208 0 l 92 0 l 92 991 l 236 991 l 628 175 l 632 175 q 623 449 623 380 l 623 991 l 741 991 l 741 0 m 294 -289 q 351 -85 336 -194 l 471 -85 l 471 -98 q 439 -182 471 -113 q 361 -307 406 -252 l 294 -307 l 294 -289 z "},"ņ":{"ha":833,"x_min":109,"x_max":725,"o":"m 602 0 l 602 479 q 440 656 602 656 q 232 386 232 656 l 232 0 l 109 0 l 109 745 l 208 745 l 227 644 l 233 644 q 461 758 303 758 q 725 486 725 758 l 725 0 l 602 0 m 309 -289 q 366 -85 351 -194 l 486 -85 l 486 -98 q 454 -182 486 -113 q 376 -307 421 -252 l 309 -307 l 309 -289 z "},"Ň":{"ha":833,"x_min":92,"x_max":741,"o":"m 741 0 l 595 0 l 201 821 l 196 821 q 208 538 208 633 l 208 0 l 92 0 l 92 991 l 236 991 l 628 175 l 632 175 q 623 449 623 380 l 623 991 l 741 991 l 741 0 m 640 1275 q 600 1230 623 1255 q 480 1071 504 1122 l 349 1071 q 230 1230 326 1122 l 190 1275 l 190 1293 l 271 1293 q 414 1166 327 1257 q 557 1293 497 1253 l 640 1293 l 640 1275 z "},"ň":{"ha":833,"x_min":109,"x_max":725,"o":"m 602 0 l 602 479 q 440 656 602 656 q 232 386 232 656 l 232 0 l 109 0 l 109 745 l 208 745 l 227 644 l 233 644 q 461 758 303 758 q 725 486 725 758 l 725 0 l 602 0 m 650 1046 q 610 1000 633 1026 q 490 842 514 893 l 359 842 q 240 1000 336 893 l 200 1046 l 200 1064 l 281 1064 q 425 937 337 1027 q 568 1064 507 1024 l 650 1064 l 650 1046 z "},"ŉ":{"ha":833,"x_min":-11,"x_max":766,"o":"m 192 991 l 201 977 q 82 652 168 843 l -11 652 q 57 991 30 816 l 192 991 m 643 0 l 643 479 q 494 656 643 656 q 301 386 301 656 l 301 0 l 178 0 l 178 745 l 278 745 l 296 644 l 302 644 q 390 728 331 697 q 518 758 448 758 q 766 486 766 758 l 766 0 l 643 0 z "},"Ŋ":{"ha":833,"x_min":92,"x_max":741,"o":"m 201 821 l 196 821 q 208 538 208 633 l 208 0 l 92 0 l 92 991 l 236 991 l 628 227 l 635 227 q 623 500 623 412 l 623 991 l 741 991 l 741 14 q 673 -192 741 -121 q 478 -264 605 -264 q 372 -248 414 -264 l 372 -139 q 479 -153 425 -153 q 623 0 623 -153 l 201 821 z "},"ŋ":{"ha":833,"x_min":109,"x_max":725,"o":"m 232 0 l 109 0 l 109 745 l 208 745 l 227 644 l 233 644 q 461 758 303 758 q 725 486 725 758 l 725 -107 q 528 -334 725 -334 q 437 -317 473 -334 l 437 -216 q 515 -231 474 -231 q 602 -115 602 -231 l 602 479 q 440 656 602 656 q 232 386 232 656 l 232 0 z "},"Ō":{"ha":833,"x_min":57,"x_max":778,"o":"m 418 -14 q 57 498 57 -14 q 419 1007 57 1007 q 685 874 593 1007 q 778 497 778 742 q 684 119 778 252 q 418 -14 591 -14 m 418 97 q 590 195 535 97 q 644 497 644 294 q 589 799 644 703 q 419 896 534 896 q 191 497 191 896 q 418 97 191 97 m 224 1173 l 614 1173 l 614 1071 l 224 1071 l 224 1173 z "},"ō":{"ha":833,"x_min":78,"x_max":754,"o":"m 414 -14 q 173 92 267 -14 q 78 374 78 197 q 170 655 78 552 q 418 758 262 758 q 660 653 566 758 q 754 374 754 548 q 661 90 754 194 q 414 -14 568 -14 m 416 89 q 627 374 627 89 q 415 656 627 656 q 205 374 205 656 q 416 89 205 89 m 221 943 l 611 943 l 611 842 l 221 842 l 221 943 z "},"Ŏ":{"ha":833,"x_min":57,"x_max":778,"o":"m 418 -14 q 57 498 57 -14 q 419 1007 57 1007 q 685 874 593 1007 q 778 497 778 742 q 684 119 778 252 q 418 -14 591 -14 m 418 97 q 590 195 535 97 q 644 497 644 294 q 589 799 644 703 q 419 896 534 896 q 191 497 191 896 q 418 97 191 97 m 620 1259 q 559 1122 614 1173 q 413 1071 505 1071 q 212 1259 223 1071 l 286 1259 q 317 1191 290 1207 q 414 1174 344 1174 q 544 1259 537 1174 l 620 1259 z "},"ŏ":{"ha":833,"x_min":78,"x_max":754,"o":"m 414 -14 q 173 92 267 -14 q 78 374 78 197 q 170 655 78 552 q 418 758 262 758 q 660 653 566 758 q 754 374 754 548 q 661 90 754 194 q 414 -14 568 -14 m 416 89 q 627 374 627 89 q 415 656 627 656 q 205 374 205 656 q 416 89 205 89 m 621 1029 q 560 892 614 943 q 414 842 506 842 q 212 1029 224 842 l 286 1029 q 318 961 291 978 q 415 945 345 945 q 545 1029 538 945 l 621 1029 z "},"Ő":{"ha":833,"x_min":57,"x_max":778,"o":"m 418 -14 q 57 498 57 -14 q 419 1007 57 1007 q 685 874 593 1007 q 778 497 778 742 q 684 119 778 252 q 418 -14 591 -14 m 418 97 q 590 195 535 97 q 644 497 644 294 q 589 799 644 703 q 419 896 534 896 q 191 497 191 896 q 418 97 191 97 m 221 1089 q 339 1293 285 1179 l 473 1293 l 473 1279 q 289 1071 397 1162 l 221 1071 l 221 1089 m 467 1089 q 585 1293 526 1169 l 720 1293 l 720 1279 q 535 1071 644 1162 l 467 1071 l 467 1089 z "},"ő":{"ha":833,"x_min":78,"x_max":754,"o":"m 414 -14 q 173 92 267 -14 q 78 374 78 197 q 170 655 78 552 q 418 758 262 758 q 660 653 566 758 q 754 374 754 548 q 661 90 754 194 q 414 -14 568 -14 m 416 89 q 627 374 627 89 q 415 656 627 656 q 205 374 205 656 q 416 89 205 89 m 222 860 q 340 1064 286 950 l 475 1064 l 475 1050 q 290 842 399 932 l 222 842 l 222 860 m 468 860 q 586 1064 527 940 l 721 1064 l 721 1050 q 536 842 645 932 l 468 842 l 468 860 z "},"Œ":{"ha":833,"x_min":14,"x_max":832,"o":"m 832 0 l 443 0 l 410 -7 q 345 -14 376 -14 q 14 498 14 -14 q 361 1007 14 1007 q 465 991 416 1007 l 832 991 l 832 880 l 562 880 l 562 574 l 806 574 l 806 464 l 562 464 l 562 111 l 832 111 l 832 0 m 441 119 l 441 873 q 353 896 402 896 q 142 497 142 896 q 351 97 142 97 q 441 119 399 97 z "},"œ":{"ha":833,"x_min":39,"x_max":796,"o":"m 441 136 q 261 -14 382 -14 q 100 91 162 -14 q 39 374 39 195 q 98 657 39 555 q 262 758 158 758 q 439 611 378 758 q 603 758 496 758 q 744 668 692 758 q 796 425 796 577 l 796 349 l 498 349 q 627 94 500 94 q 765 146 700 94 l 765 36 q 618 -14 701 -14 q 510 26 559 -14 q 441 136 462 66 m 269 89 q 383 367 383 89 q 268 656 383 656 q 180 586 207 656 q 154 374 154 516 q 181 160 154 231 q 269 89 208 89 m 676 449 q 593 656 676 656 q 500 449 508 656 l 676 449 z "},"Ŕ":{"ha":833,"x_min":126,"x_max":794,"o":"m 253 410 l 253 0 l 126 0 l 126 991 l 368 991 q 721 710 721 991 q 525 444 721 515 l 794 0 l 646 0 l 408 410 l 253 410 m 253 517 l 364 517 q 535 562 480 517 q 590 704 590 606 q 536 842 590 800 q 361 884 481 884 l 253 884 l 253 517 m 303 1089 q 421 1293 367 1179 l 570 1293 l 570 1279 q 385 1071 494 1162 l 303 1071 l 303 1089 z "},"ŕ":{"ha":833,"x_min":179,"x_max":718,"o":"m 718 728 l 685 615 q 533 646 602 646 q 362 583 422 646 q 302 401 302 520 l 302 0 l 179 0 l 179 745 l 279 745 l 294 608 l 300 608 q 410 724 351 689 q 555 758 469 758 q 718 728 635 758 m 346 860 q 464 1064 410 950 l 612 1064 l 612 1050 q 428 842 536 932 l 346 842 l 346 860 z "},"Ŗ":{"ha":833,"x_min":126,"x_max":794,"o":"m 253 410 l 253 0 l 126 0 l 126 991 l 368 991 q 721 710 721 991 q 525 444 721 515 l 794 0 l 646 0 l 408 410 l 253 410 m 253 517 l 364 517 q 535 562 480 517 q 590 704 590 606 q 536 842 590 800 q 361 884 481 884 l 253 884 l 253 517 m 326 -289 q 382 -85 368 -194 l 503 -85 l 503 -98 q 471 -182 503 -113 q 393 -307 438 -252 l 326 -307 l 326 -289 z "},"ŗ":{"ha":833,"x_min":127,"x_max":718,"o":"m 718 728 l 685 615 q 533 646 602 646 q 362 583 422 646 q 302 401 302 520 l 302 0 l 179 0 l 179 745 l 279 745 l 294 608 l 300 608 q 410 724 351 689 q 555 758 469 758 q 718 728 635 758 m 127 -289 q 184 -85 169 -194 l 304 -85 l 304 -98 q 272 -182 304 -113 q 194 -307 239 -252 l 127 -307 l 127 -289 z "},"Ř":{"ha":833,"x_min":126,"x_max":794,"o":"m 253 410 l 253 0 l 126 0 l 126 991 l 368 991 q 721 710 721 991 q 525 444 721 515 l 794 0 l 646 0 l 408 410 l 253 410 m 253 517 l 364 517 q 535 562 480 517 q 590 704 590 606 q 536 842 590 800 q 361 884 481 884 l 253 884 l 253 517 m 621 1275 q 581 1230 604 1255 q 462 1071 486 1122 l 331 1071 q 212 1230 307 1122 l 172 1275 l 172 1293 l 253 1293 q 396 1166 309 1257 q 539 1293 479 1253 l 621 1293 l 621 1275 z "},"ř":{"ha":833,"x_min":179,"x_max":718,"o":"m 718 728 l 685 615 q 533 646 602 646 q 362 583 422 646 q 302 401 302 520 l 302 0 l 179 0 l 179 745 l 279 745 l 294 608 l 300 608 q 410 724 351 689 q 555 758 469 758 q 718 728 635 758 m 650 1046 q 610 1000 633 1026 q 490 842 514 893 l 359 842 q 240 1000 336 893 l 200 1046 l 200 1064 l 281 1064 q 425 937 337 1027 q 568 1064 507 1024 l 650 1064 l 650 1046 z "},"Ś":{"ha":833,"x_min":96,"x_max":737,"o":"m 96 33 l 96 154 q 376 96 239 96 q 614 258 614 96 q 566 367 614 329 q 372 457 518 405 q 170 575 231 507 q 109 754 109 644 q 196 939 109 872 q 435 1006 283 1006 q 717 953 590 1006 l 673 842 q 429 895 543 895 q 231 753 231 895 q 275 642 231 684 q 458 551 319 600 q 681 428 625 492 q 737 265 737 365 q 643 61 737 135 q 376 -14 549 -14 q 96 33 197 -14 m 349 1089 q 467 1293 412 1179 l 615 1293 l 615 1279 q 431 1071 539 1162 l 349 1071 l 349 1089 z "},"ś":{"ha":833,"x_min":138,"x_max":696,"o":"m 138 33 l 138 146 q 389 87 269 87 q 575 197 575 87 q 542 264 575 236 q 389 336 509 293 q 190 445 231 395 q 149 561 149 494 q 224 706 149 653 q 433 758 300 758 q 684 708 568 758 l 643 607 q 427 656 519 656 q 267 566 267 656 q 301 499 267 524 q 458 431 335 475 q 649 328 602 378 q 696 204 696 277 q 616 44 696 102 q 392 -14 537 -14 q 138 33 224 -14 m 347 860 q 465 1064 411 950 l 614 1064 l 614 1050 q 429 842 538 932 l 347 842 l 347 860 z "},"Ŝ":{"ha":833,"x_min":96,"x_max":737,"o":"m 96 33 l 96 154 q 376 96 239 96 q 614 258 614 96 q 566 367 614 329 q 372 457 518 405 q 170 575 231 507 q 109 754 109 644 q 196 939 109 872 q 435 1006 283 1006 q 717 953 590 1006 l 673 842 q 429 895 543 895 q 231 753 231 895 q 275 642 231 684 q 458 551 319 600 q 681 428 625 492 q 737 265 737 365 q 643 61 737 135 q 376 -14 549 -14 q 96 33 197 -14 m 655 1071 l 573 1071 q 430 1197 515 1109 q 287 1071 340 1105 l 205 1071 l 205 1089 q 245 1135 222 1109 q 365 1293 340 1240 l 496 1293 q 615 1135 521 1240 l 655 1089 l 655 1071 z "},"ŝ":{"ha":833,"x_min":138,"x_max":696,"o":"m 138 33 l 138 146 q 389 87 269 87 q 575 197 575 87 q 542 264 575 236 q 389 336 509 293 q 190 445 231 395 q 149 561 149 494 q 224 706 149 653 q 433 758 300 758 q 684 708 568 758 l 643 607 q 427 656 519 656 q 267 566 267 656 q 301 499 267 524 q 458 431 335 475 q 649 328 602 378 q 696 204 696 277 q 616 44 696 102 q 392 -14 537 -14 q 138 33 224 -14 m 657 842 l 575 842 q 432 968 517 880 q 289 842 342 876 l 208 842 l 208 860 q 248 905 224 880 q 367 1064 342 1010 l 498 1064 q 617 905 523 1010 l 657 860 l 657 842 z "},"Ş":{"ha":833,"x_min":96,"x_max":737,"o":"m 96 33 l 96 154 q 376 96 239 96 q 614 258 614 96 q 566 367 614 329 q 372 457 518 405 q 170 575 231 507 q 109 754 109 644 q 196 939 109 872 q 435 1006 283 1006 q 717 953 590 1006 l 673 842 q 429 895 543 895 q 231 753 231 895 q 275 642 231 684 q 458 551 319 600 q 681 428 625 492 q 737 265 737 365 q 643 61 737 135 q 376 -14 549 -14 q 96 33 197 -14 m 275 -328 l 275 -254 q 330 -258 298 -258 q 432 -196 432 -258 q 315 -119 432 -146 l 377 0 l 458 0 l 420 -78 q 528 -195 528 -103 q 331 -334 528 -334 q 275 -328 308 -334 z "},"ş":{"ha":833,"x_min":138,"x_max":696,"o":"m 138 33 l 138 146 q 389 87 269 87 q 575 197 575 87 q 542 264 575 236 q 389 336 509 293 q 190 445 231 395 q 149 561 149 494 q 224 706 149 653 q 433 758 300 758 q 684 708 568 758 l 643 607 q 427 656 519 656 q 267 566 267 656 q 301 499 267 524 q 458 431 335 475 q 649 328 602 378 q 696 204 696 277 q 616 44 696 102 q 392 -14 537 -14 q 138 33 224 -14 m 284 -328 l 284 -254 q 338 -258 307 -258 q 441 -196 441 -258 q 324 -119 441 -146 l 386 0 l 467 0 l 429 -78 q 537 -195 537 -103 q 340 -334 537 -334 q 284 -328 317 -334 z "},"Š":{"ha":833,"x_min":96,"x_max":737,"o":"m 96 33 l 96 154 q 376 96 239 96 q 614 258 614 96 q 566 367 614 329 q 372 457 518 405 q 170 575 231 507 q 109 754 109 644 q 196 939 109 872 q 435 1006 283 1006 q 717 953 590 1006 l 673 842 q 429 895 543 895 q 231 753 231 895 q 275 642 231 684 q 458 551 319 600 q 681 428 625 492 q 737 265 737 365 q 643 61 737 135 q 376 -14 549 -14 q 96 33 197 -14 m 663 1275 q 623 1230 646 1255 q 503 1071 527 1122 l 372 1071 q 253 1230 349 1122 l 213 1275 l 213 1293 l 294 1293 q 437 1166 350 1257 q 581 1293 520 1253 l 663 1293 l 663 1275 z "},"š":{"ha":833,"x_min":138,"x_max":696,"o":"m 138 33 l 138 146 q 389 87 269 87 q 575 197 575 87 q 542 264 575 236 q 389 336 509 293 q 190 445 231 395 q 149 561 149 494 q 224 706 149 653 q 433 758 300 758 q 684 708 568 758 l 643 607 q 427 656 519 656 q 267 566 267 656 q 301 499 267 524 q 458 431 335 475 q 649 328 602 378 q 696 204 696 277 q 616 44 696 102 q 392 -14 537 -14 q 138 33 224 -14 m 648 1046 q 608 1000 631 1026 q 489 842 513 893 l 358 842 q 239 1000 334 893 l 199 1046 l 199 1064 l 280 1064 q 423 937 336 1027 q 566 1064 506 1024 l 648 1064 l 648 1046 z "},"Ţ":{"ha":833,"x_min":69,"x_max":762,"o":"m 479 0 l 353 0 l 353 880 l 69 880 l 69 991 l 762 991 l 762 880 l 479 880 l 479 0 m 304 -289 q 361 -85 347 -194 l 482 -85 l 482 -98 q 450 -182 482 -113 q 372 -307 417 -252 l 304 -307 l 304 -289 z "},"ţ":{"ha":833,"x_min":94,"x_max":696,"o":"m 692 102 l 692 8 q 521 -14 604 -14 q 275 220 275 -14 l 275 652 l 94 652 l 94 715 l 275 749 l 328 943 l 399 943 l 399 745 l 696 745 l 696 652 l 399 652 l 399 220 q 529 87 399 87 q 692 102 592 87 m 332 -289 q 389 -85 374 -194 l 509 -85 l 509 -98 q 477 -182 509 -113 q 399 -307 444 -252 l 332 -307 l 332 -289 z "},"Ť":{"ha":833,"x_min":69,"x_max":762,"o":"m 479 0 l 353 0 l 353 880 l 69 880 l 69 991 l 762 991 l 762 880 l 479 880 l 479 0 m 641 1275 q 601 1230 624 1255 q 481 1071 505 1122 l 351 1071 q 231 1230 327 1122 l 191 1275 l 191 1293 l 273 1293 q 416 1166 328 1257 q 559 1293 498 1253 l 641 1293 l 641 1275 z "},"ť":{"ha":833,"x_min":94,"x_max":705,"o":"m 692 102 l 692 8 q 521 -14 604 -14 q 275 220 275 -14 l 275 652 l 94 652 l 94 715 l 275 749 l 328 943 l 399 943 l 399 745 l 696 745 l 696 652 l 399 652 l 399 220 q 529 87 399 87 q 692 102 592 87 m 542 851 l 559 924 q 583 1055 577 1002 l 705 1055 l 705 1042 q 677 965 705 1032 q 607 833 648 898 l 542 833 l 542 851 z "},"Ŧ":{"ha":833,"x_min":69,"x_max":762,"o":"m 353 555 l 353 880 l 69 880 l 69 991 l 762 991 l 762 880 l 479 880 l 479 555 l 679 555 l 679 454 l 479 454 l 479 0 l 353 0 l 353 454 l 151 454 l 151 555 l 353 555 z "},"ŧ":{"ha":833,"x_min":94,"x_max":696,"o":"m 692 102 l 692 8 q 521 -14 604 -14 q 275 220 275 -14 l 275 390 l 165 390 l 165 484 l 275 484 l 275 652 l 94 652 l 94 715 l 275 749 l 328 943 l 399 943 l 399 745 l 696 745 l 696 652 l 399 652 l 399 484 l 607 484 l 607 390 l 399 390 l 399 220 q 529 87 399 87 q 692 102 592 87 z "},"Ũ":{"ha":833,"x_min":85,"x_max":749,"o":"m 749 993 l 749 350 q 663 80 749 174 q 412 -14 578 -14 q 85 353 85 -14 l 85 991 l 211 991 l 211 359 q 419 97 211 97 q 623 361 619 97 l 623 993 l 749 993 m 247 1071 l 176 1071 q 319 1250 193 1250 q 429 1212 359 1250 q 521 1174 498 1174 q 593 1251 575 1174 l 664 1251 q 521 1072 646 1072 q 414 1111 482 1072 q 319 1149 347 1149 q 247 1071 264 1149 z "},"ũ":{"ha":833,"x_min":109,"x_max":725,"o":"m 625 0 l 607 100 l 600 100 q 374 -14 529 -14 q 109 258 109 -14 l 109 745 l 232 745 l 232 265 q 392 89 232 89 q 551 152 501 89 q 602 358 602 214 l 602 745 l 725 745 l 725 0 l 625 0 m 244 842 l 174 842 q 317 1021 191 1021 q 426 983 356 1021 q 518 945 495 945 q 590 1022 572 945 l 661 1022 q 518 843 643 843 q 412 882 479 843 q 317 920 344 920 q 244 842 261 920 z "},"Ū":{"ha":833,"x_min":85,"x_max":749,"o":"m 749 993 l 749 350 q 663 80 749 174 q 412 -14 578 -14 q 85 353 85 -14 l 85 991 l 211 991 l 211 359 q 419 97 211 97 q 623 361 619 97 l 623 993 l 749 993 m 221 1173 l 611 1173 l 611 1071 l 221 1071 l 221 1173 z "},"ū":{"ha":833,"x_min":109,"x_max":725,"o":"m 625 0 l 607 100 l 600 100 q 374 -14 529 -14 q 109 258 109 -14 l 109 745 l 232 745 l 232 265 q 392 89 232 89 q 551 152 501 89 q 602 358 602 214 l 602 745 l 725 745 l 725 0 l 625 0 m 222 943 l 612 943 l 612 842 l 222 842 l 222 943 z "},"Ŭ":{"ha":833,"x_min":85,"x_max":749,"o":"m 749 993 l 749 350 q 663 80 749 174 q 412 -14 578 -14 q 85 353 85 -14 l 85 991 l 211 991 l 211 359 q 419 97 211 97 q 623 361 619 97 l 623 993 l 749 993 m 620 1259 q 559 1122 614 1173 q 413 1071 505 1071 q 212 1259 223 1071 l 286 1259 q 317 1191 290 1207 q 414 1174 344 1174 q 544 1259 537 1174 l 620 1259 z "},"ŭ":{"ha":833,"x_min":109,"x_max":725,"o":"m 625 0 l 607 100 l 600 100 q 374 -14 529 -14 q 109 258 109 -14 l 109 745 l 232 745 l 232 265 q 392 89 232 89 q 551 152 501 89 q 602 358 602 214 l 602 745 l 725 745 l 725 0 l 625 0 m 621 1029 q 560 892 614 943 q 414 842 506 842 q 212 1029 224 842 l 286 1029 q 318 961 291 978 q 415 945 345 945 q 545 1029 538 945 l 621 1029 z "},"Ů":{"ha":833,"x_min":85,"x_max":749,"o":"m 749 993 l 749 350 q 663 80 749 174 q 412 -14 578 -14 q 85 353 85 -14 l 85 991 l 211 991 l 211 359 q 419 97 211 97 q 623 361 619 97 l 623 993 l 749 993 m 415 1071 q 305 1110 346 1071 q 264 1217 264 1149 q 305 1323 264 1284 q 415 1362 346 1362 q 527 1322 484 1362 q 571 1218 571 1282 q 528 1111 571 1152 q 415 1071 485 1071 m 415 1293 q 360 1273 382 1293 q 339 1217 339 1253 q 415 1140 339 1140 q 470 1160 449 1140 q 492 1217 492 1181 q 470 1273 492 1253 q 415 1293 449 1293 z "},"ů":{"ha":833,"x_min":109,"x_max":725,"o":"m 625 0 l 607 100 l 600 100 q 374 -14 529 -14 q 109 258 109 -14 l 109 745 l 232 745 l 232 265 q 392 89 232 89 q 551 152 501 89 q 602 358 602 214 l 602 745 l 725 745 l 725 0 l 625 0 m 412 842 q 301 881 342 842 q 260 987 260 920 q 301 1094 260 1055 q 412 1133 342 1133 q 524 1093 480 1133 q 568 989 568 1053 q 525 882 568 922 q 412 842 481 842 m 412 1064 q 357 1044 378 1064 q 336 987 336 1023 q 412 911 336 911 q 467 931 446 911 q 488 987 488 951 q 467 1044 488 1023 q 412 1064 446 1064 z "},"Ű":{"ha":833,"x_min":85,"x_max":749,"o":"m 749 993 l 749 350 q 663 80 749 174 q 412 -14 578 -14 q 85 353 85 -14 l 85 991 l 211 991 l 211 359 q 419 97 211 97 q 623 361 619 97 l 623 993 l 749 993 m 218 1089 q 336 1293 282 1179 l 471 1293 l 471 1279 q 286 1071 395 1162 l 218 1071 l 218 1089 m 464 1089 q 582 1293 523 1169 l 717 1293 l 717 1279 q 532 1071 641 1162 l 464 1071 l 464 1089 z "},"ű":{"ha":833,"x_min":109,"x_max":725,"o":"m 625 0 l 607 100 l 600 100 q 374 -14 529 -14 q 109 258 109 -14 l 109 745 l 232 745 l 232 265 q 392 89 232 89 q 551 152 501 89 q 602 358 602 214 l 602 745 l 725 745 l 725 0 l 625 0 m 221 860 q 339 1064 285 950 l 473 1064 l 473 1050 q 289 842 397 932 l 221 842 l 221 860 m 467 860 q 585 1064 526 940 l 720 1064 l 720 1050 q 535 842 644 932 l 467 842 l 467 860 z "},"Ų":{"ha":833,"x_min":85,"x_max":749,"o":"m 749 993 l 749 350 q 663 80 749 174 q 412 -14 578 -14 q 85 353 85 -14 l 85 991 l 211 991 l 211 359 q 419 97 211 97 q 623 361 619 97 l 623 993 l 749 993 m 571 -216 l 571 -293 q 465 -309 522 -309 q 342 -272 385 -309 q 299 -171 299 -235 q 428 0 299 -73 l 517 0 q 401 -161 401 -85 q 488 -227 401 -227 q 571 -216 532 -227 z "},"ų":{"ha":833,"x_min":109,"x_max":762,"o":"m 625 0 l 607 100 l 600 100 q 374 -14 529 -14 q 109 258 109 -14 l 109 745 l 232 745 l 232 265 q 392 89 232 89 q 551 152 501 89 q 602 358 602 214 l 602 745 l 725 745 l 725 0 l 625 0 m 762 -216 l 762 -293 q 656 -309 713 -309 q 533 -272 576 -309 q 490 -171 490 -235 q 619 0 490 -73 l 708 0 q 593 -161 593 -85 q 679 -227 593 -227 q 762 -216 724 -227 z "},"Ŵ":{"ha":833,"x_min":1,"x_max":832,"o":"m 358 684 l 478 684 l 576 330 q 625 122 618 182 q 669 542 627 158 l 717 991 l 832 991 l 705 0 l 576 0 l 463 393 q 418 585 435 487 q 374 392 396 467 l 268 0 l 139 0 l 1 991 l 117 991 l 176 542 q 203 286 192 422 q 215 122 215 149 q 262 334 231 224 l 358 684 m 643 1071 l 561 1071 q 418 1197 503 1109 q 275 1071 328 1105 l 193 1071 l 193 1089 q 233 1135 210 1109 q 353 1293 328 1240 l 484 1293 q 603 1135 509 1240 l 643 1089 l 643 1071 z "},"ŵ":{"ha":833,"x_min":-3,"x_max":836,"o":"m 551 0 l 463 404 l 416 628 l 412 628 l 368 401 l 277 0 l 149 0 l -3 745 l 107 745 l 174 376 q 212 110 197 250 l 216 110 q 262 353 237 235 l 353 745 l 484 745 l 570 353 q 615 110 599 220 l 619 110 q 660 376 640 274 l 729 745 l 836 745 l 684 0 l 551 0 m 640 842 l 557 842 q 414 968 500 880 q 271 842 324 876 l 190 842 l 190 860 q 230 905 207 880 q 349 1064 324 1010 l 480 1064 q 600 905 505 1010 l 640 860 l 640 842 z "},"Ŷ":{"ha":833,"x_min":22,"x_max":810,"o":"m 415 490 l 673 991 l 810 991 l 479 386 l 479 0 l 353 0 l 353 379 l 22 991 l 160 991 l 415 490 m 641 1071 l 559 1071 q 416 1197 501 1109 q 273 1071 326 1105 l 191 1071 l 191 1089 q 231 1135 208 1109 q 351 1293 326 1240 l 481 1293 q 601 1135 507 1240 l 641 1089 l 641 1071 z "},"ŷ":{"ha":833,"x_min":56,"x_max":777,"o":"m 56 745 l 183 745 l 361 301 q 421 104 416 162 l 425 104 q 486 302 441 180 l 648 745 l 777 745 l 454 -97 q 349 -274 409 -215 q 182 -334 288 -334 q 68 -322 123 -334 l 68 -224 q 160 -232 110 -232 q 261 -204 225 -232 q 326 -109 298 -176 l 366 -7 l 56 745 m 643 842 l 561 842 q 418 968 503 880 q 275 842 328 876 l 193 842 l 193 860 q 233 905 210 880 q 353 1064 328 1010 l 484 1064 q 603 905 509 1010 l 643 860 l 643 842 z "},"Ÿ":{"ha":833,"x_min":22,"x_max":810,"o":"m 415 490 l 673 991 l 810 991 l 479 386 l 479 0 l 353 0 l 353 379 l 22 991 l 160 991 l 415 490 m 290 1244 q 355 1175 355 1244 q 290 1105 355 1105 q 225 1175 225 1105 q 290 1244 225 1244 m 545 1244 q 610 1175 610 1244 q 545 1105 610 1105 q 479 1175 479 1105 q 545 1244 479 1244 z "},"Ź":{"ha":833,"x_min":69,"x_max":762,"o":"m 762 0 l 69 0 l 69 98 l 607 879 l 83 879 l 83 991 l 749 991 l 749 893 l 211 113 l 762 113 l 762 0 m 322 1089 q 440 1293 386 1179 l 589 1293 l 589 1279 q 404 1071 513 1162 l 322 1071 l 322 1089 z "},"ź":{"ha":833,"x_min":123,"x_max":708,"o":"m 708 0 l 123 0 l 123 85 l 571 652 l 146 652 l 146 745 l 696 745 l 696 646 l 257 93 l 708 93 l 708 0 m 336 860 q 454 1064 400 950 l 603 1064 l 603 1050 q 418 842 527 932 l 336 842 l 336 860 z "},"Ż":{"ha":833,"x_min":69,"x_max":762,"o":"m 762 0 l 69 0 l 69 98 l 607 879 l 83 879 l 83 991 l 749 991 l 749 893 l 211 113 l 762 113 l 762 0 m 427 1253 q 500 1175 500 1253 q 427 1097 500 1097 q 355 1175 355 1097 q 427 1253 355 1253 z "},"ż":{"ha":833,"x_min":123,"x_max":708,"o":"m 708 0 l 123 0 l 123 85 l 571 652 l 146 652 l 146 745 l 696 745 l 696 646 l 257 93 l 708 93 l 708 0 m 427 1023 q 500 946 500 1023 q 427 868 500 868 q 355 946 355 868 q 427 1023 355 1023 z "},"Ž":{"ha":833,"x_min":69,"x_max":762,"o":"m 762 0 l 69 0 l 69 98 l 607 879 l 83 879 l 83 991 l 749 991 l 749 893 l 211 113 l 762 113 l 762 0 m 641 1275 q 601 1230 624 1255 q 481 1071 505 1122 l 351 1071 q 231 1230 327 1122 l 191 1275 l 191 1293 l 273 1293 q 416 1166 328 1257 q 559 1293 498 1253 l 641 1293 l 641 1275 z "},"ž":{"ha":833,"x_min":123,"x_max":708,"o":"m 708 0 l 123 0 l 123 85 l 571 652 l 146 652 l 146 745 l 696 745 l 696 646 l 257 93 l 708 93 l 708 0 m 650 1046 q 610 1000 633 1026 q 490 842 514 893 l 359 842 q 240 1000 336 893 l 200 1046 l 200 1064 l 281 1064 q 425 937 337 1027 q 568 1064 507 1024 l 650 1064 l 650 1046 z "},"ſ":{"ha":833,"x_min":241,"x_max":690,"o":"m 690 1039 l 663 942 q 509 961 591 961 q 397 928 428 961 q 366 815 366 896 l 366 0 l 241 0 l 241 814 q 302 1003 241 943 q 505 1063 363 1063 q 690 1039 590 1063 z "},"ƒ":{"ha":833,"x_min":146,"x_max":688,"o":"m 453 567 l 453 -85 q 401 -274 453 -214 q 228 -334 349 -334 q 146 -323 193 -334 l 146 -220 q 224 -232 186 -232 q 308 -197 286 -232 q 329 -86 329 -163 l 329 567 l 197 567 l 197 618 l 329 664 l 329 757 q 381 946 329 886 q 554 1006 433 1006 q 688 981 620 1006 l 656 885 q 558 904 602 904 q 474 869 496 904 q 453 758 453 835 l 453 660 l 619 660 l 619 567 l 453 567 z "},"Ǻ":{"ha":833,"x_min":22,"x_max":811,"o":"m 681 0 l 583 307 l 250 307 l 151 0 l 22 0 l 350 996 l 482 996 l 811 0 l 681 0 m 547 419 l 457 707 q 415 860 431 791 q 384 736 401 793 l 286 419 l 547 419 m 415 926 q 305 966 346 926 q 264 1072 264 1005 q 305 1179 264 1139 q 415 1218 346 1218 q 527 1178 484 1218 q 571 1074 571 1138 q 528 967 571 1007 q 415 926 485 926 m 415 1149 q 360 1128 382 1149 q 339 1072 339 1108 q 415 996 339 996 q 470 1016 449 996 q 492 1072 492 1036 q 470 1128 492 1108 q 415 1149 449 1149 m 332 1263 q 450 1467 396 1353 l 599 1467 l 599 1453 q 414 1244 523 1335 l 332 1244 l 332 1263 z "},"ǻ":{"ha":833,"x_min":92,"x_max":696,"o":"m 607 0 l 582 103 l 576 103 q 469 12 524 37 q 328 -14 414 -14 q 154 45 217 -14 q 92 208 92 103 q 437 444 92 433 l 575 449 l 575 496 q 410 656 575 656 q 187 600 310 656 l 144 693 q 404 758 277 758 q 627 699 558 758 q 696 510 696 640 l 696 0 l 607 0 m 574 364 l 464 359 q 275 318 331 354 q 220 207 220 281 q 355 86 220 86 q 514 141 455 86 q 574 297 574 197 l 574 364 m 414 842 q 303 881 345 842 q 262 987 262 920 q 303 1094 262 1055 q 414 1133 345 1133 q 526 1093 482 1133 q 570 989 570 1053 q 527 882 570 922 q 414 842 484 842 m 414 1064 q 359 1044 380 1064 q 338 987 338 1023 q 414 911 338 911 q 469 931 448 911 q 490 987 490 951 q 469 1044 490 1023 q 414 1064 448 1064 m 347 1185 q 465 1389 411 1275 l 614 1389 l 614 1375 q 429 1166 538 1257 l 347 1166 l 347 1185 z "},"Ǽ":{"ha":833,"x_min":0,"x_max":821,"o":"m 821 0 l 378 0 l 378 307 l 182 307 l 117 0 l 0 0 l 229 991 l 821 991 l 821 880 l 497 880 l 497 574 l 794 574 l 794 464 l 497 464 l 497 111 l 821 111 l 821 0 m 207 419 l 378 419 l 378 880 l 306 880 l 207 419 m 428 1089 q 546 1293 492 1179 l 694 1293 l 694 1279 q 510 1071 618 1162 l 428 1071 l 428 1089 z "},"ǽ":{"ha":833,"x_min":31,"x_max":804,"o":"m 354 449 l 354 496 q 260 656 354 656 q 117 600 187 656 l 78 693 q 265 758 167 758 q 432 637 393 758 q 595 758 485 758 q 746 666 688 758 q 804 425 804 574 l 804 349 l 468 349 q 513 156 470 218 q 628 94 557 94 q 786 146 703 94 l 786 36 q 623 -14 713 -14 q 408 142 472 -14 q 204 -14 337 -14 q 78 45 126 -14 q 31 208 31 104 q 253 444 31 433 l 354 449 m 471 449 l 685 449 q 657 600 685 545 q 582 656 630 656 q 505 603 536 656 q 471 449 475 550 m 353 364 l 293 359 q 146 207 146 348 q 168 118 146 151 q 227 86 189 86 q 317 142 282 86 q 353 297 353 198 l 353 364 m 360 860 q 478 1064 424 950 l 627 1064 l 627 1050 q 442 842 551 932 l 360 842 l 360 860 z "},"Ǿ":{"ha":833,"x_min":54,"x_max":785,"o":"m 210 50 l 147 -52 l 54 1 l 136 135 q 57 498 57 260 q 419 1007 57 1007 q 629 936 545 1007 l 692 1039 l 785 986 l 700 850 q 778 497 778 722 q 684 119 778 252 q 418 -14 591 -14 q 210 50 290 -14 m 216 265 l 566 832 q 419 896 511 896 q 191 497 191 896 q 216 265 191 353 m 621 720 l 273 155 q 418 97 328 97 q 590 195 535 97 q 644 497 644 294 q 621 720 644 639 m 322 1089 q 440 1293 386 1179 l 589 1293 l 589 1279 q 404 1071 513 1162 l 322 1071 l 322 1089 z "},"ǿ":{"ha":833,"x_min":78,"x_max":754,"o":"m 256 22 l 204 -58 l 115 -1 l 172 87 q 78 374 78 195 q 168 656 78 554 q 418 758 258 758 q 578 720 505 758 l 629 800 l 718 743 l 661 654 q 754 374 754 549 q 663 88 754 190 q 414 -14 572 -14 q 256 22 326 -14 m 241 187 l 517 632 q 411 656 472 656 q 254 586 302 656 q 205 374 205 515 q 241 187 205 252 m 591 554 l 317 111 q 421 89 358 89 q 578 160 530 89 q 627 374 627 232 q 591 554 627 485 m 338 860 q 456 1064 401 950 l 604 1064 l 604 1050 q 420 842 528 932 l 338 842 l 338 860 z "},"Ș":{"ha":833,"x_min":96,"x_max":737,"o":"m 96 33 l 96 154 q 376 96 239 96 q 614 258 614 96 q 566 367 614 329 q 372 457 518 405 q 170 575 231 507 q 109 754 109 644 q 196 939 109 872 q 435 1006 283 1006 q 717 953 590 1006 l 673 842 q 429 895 543 895 q 231 753 231 895 q 275 642 231 684 q 458 551 319 600 q 681 428 625 492 q 737 265 737 365 q 643 61 737 135 q 376 -14 549 -14 q 96 33 197 -14 m 328 -289 q 385 -85 370 -194 l 505 -85 l 505 -98 q 473 -182 505 -113 q 395 -307 440 -252 l 328 -307 l 328 -289 z "},"ș":{"ha":833,"x_min":138,"x_max":696,"o":"m 138 33 l 138 146 q 389 87 269 87 q 575 197 575 87 q 542 264 575 236 q 389 336 509 293 q 190 445 231 395 q 149 561 149 494 q 224 706 149 653 q 433 758 300 758 q 684 708 568 758 l 643 607 q 427 656 519 656 q 267 566 267 656 q 301 499 267 524 q 458 431 335 475 q 649 328 602 378 q 696 204 696 277 q 616 44 696 102 q 392 -14 537 -14 q 138 33 224 -14 m 309 -289 q 366 -85 351 -194 l 486 -85 l 486 -98 q 454 -182 486 -113 q 376 -307 421 -252 l 309 -307 l 309 -289 z "},"ˆ":{"ha":833,"x_min":192,"x_max":642,"o":"m 642 842 l 559 842 q 416 968 502 880 q 273 842 326 876 l 192 842 l 192 860 q 232 905 209 880 q 351 1064 326 1010 l 482 1064 q 602 905 507 1010 l 642 860 l 642 842 z "},"ˇ":{"ha":833,"x_min":192,"x_max":642,"o":"m 642 1046 q 602 1000 625 1026 q 482 842 506 893 l 351 842 q 232 1000 328 893 l 192 1046 l 192 1064 l 273 1064 q 416 937 329 1027 q 559 1064 499 1024 l 642 1064 l 642 1046 z "},"ˉ":{"ha":833,"x_min":221,"x_max":611,"o":"m 221 943 l 611 943 l 611 842 l 221 842 l 221 943 z "},"˘":{"ha":833,"x_min":212,"x_max":621,"o":"m 621 1029 q 560 892 614 943 q 414 842 506 842 q 212 1029 224 842 l 286 1029 q 318 961 291 978 q 415 945 345 945 q 545 1029 538 945 l 621 1029 z "},"˙":{"ha":833,"x_min":345,"x_max":489,"o":"m 416 1023 q 489 946 489 1023 q 416 868 489 868 q 345 946 345 868 q 416 1023 345 1023 z "},"˚":{"ha":833,"x_min":262,"x_max":570,"o":"m 414 842 q 303 881 345 842 q 262 987 262 920 q 303 1094 262 1055 q 414 1133 345 1133 q 526 1093 482 1133 q 570 989 570 1053 q 527 882 570 922 q 414 842 484 842 m 414 1064 q 359 1044 380 1064 q 338 987 338 1023 q 414 911 338 911 q 469 931 448 911 q 490 987 490 951 q 469 1044 490 1023 q 414 1064 448 1064 z "},"˛":{"ha":833,"x_min":281,"x_max":553,"o":"m 553 -216 l 553 -293 q 447 -309 503 -309 q 323 -272 366 -309 q 281 -171 281 -235 q 410 0 281 -73 l 498 0 q 383 -161 383 -85 q 469 -227 383 -227 q 553 -216 514 -227 z "},"˜":{"ha":833,"x_min":172,"x_max":660,"o":"m 243 842 l 172 842 q 315 1021 189 1021 q 425 983 355 1021 q 517 945 494 945 q 589 1022 571 945 l 660 1022 q 517 843 642 843 q 410 882 478 843 q 315 920 342 920 q 243 842 260 920 z "},"˝":{"ha":833,"x_min":167,"x_max":665,"o":"m 167 860 q 285 1064 231 950 l 419 1064 l 419 1050 q 235 842 343 932 l 167 842 l 167 860 m 412 860 q 530 1064 471 940 l 665 1064 l 665 1050 q 481 842 589 932 l 412 842 l 412 860 z "},"΄":{"ha":833,"x_min":325,"x_max":507,"o":"m 325 860 l 345 932 q 372 1064 366 1010 l 507 1064 l 507 1050 q 474 968 507 1039 q 399 842 440 898 l 325 842 l 325 860 z "},"΅":{"ha":833,"x_min":203,"x_max":629,"o":"m 361 960 q 422 1164 395 1054 l 562 1164 l 562 1150 q 416 942 499 1039 l 361 942 l 361 960 m 268 1015 q 334 946 334 1015 q 315 895 334 913 q 268 876 296 876 q 203 946 203 876 q 268 1015 203 1015 m 564 1015 q 629 946 629 1015 q 564 876 629 876 q 498 946 498 876 q 564 1015 498 1015 z "},"Ά":{"ha":833,"x_min":22,"x_max":811,"o":"m 681 0 l 583 307 l 250 307 l 151 0 l 22 0 l 350 996 l 482 996 l 811 0 l 681 0 m 547 419 l 457 707 q 415 860 431 791 q 384 736 401 793 l 286 419 l 547 419 m 24 789 l 45 861 q 72 993 65 939 l 207 993 l 207 979 q 173 897 207 968 q 98 770 140 827 l 24 770 l 24 789 z "},"·":{"ha":833,"x_min":330,"x_max":503,"o":"m 416 585 q 503 490 503 585 q 416 396 503 396 q 330 490 330 396 q 416 585 330 585 z "},"Έ":{"ha":833,"x_min":-77,"x_max":718,"o":"m 718 0 l 147 0 l 147 991 l 718 991 l 718 880 l 273 880 l 273 574 l 692 574 l 692 464 l 273 464 l 273 111 l 718 111 l 718 0 m -77 789 l -57 861 q -30 993 -37 939 l 105 993 l 105 979 q 72 897 105 968 q -3 770 38 827 l -77 770 l -77 789 z "},"Ή":{"ha":833,"x_min":-105,"x_max":742,"o":"m 742 0 l 615 0 l 615 463 l 218 463 l 218 0 l 92 0 l 92 991 l 218 991 l 218 574 l 615 574 l 615 991 l 742 991 l 742 0 m -105 789 l -85 861 q -58 993 -64 939 l 77 993 l 77 979 q 44 897 77 968 q -31 770 10 827 l -105 770 l -105 789 z "},"Ί":{"ha":833,"x_min":-63,"x_max":679,"o":"m 679 0 l 153 0 l 153 83 l 353 97 l 353 895 l 153 908 l 153 991 l 679 991 l 679 908 l 479 895 l 479 97 l 679 83 l 679 0 m -63 789 l -43 861 q -16 993 -22 939 l 119 993 l 119 979 q 86 897 119 968 q 11 770 52 827 l -63 770 l -63 789 z "},"Ό":{"ha":833,"x_min":-90,"x_max":778,"o":"m 418 -14 q 57 498 57 -14 q 419 1007 57 1007 q 685 874 593 1007 q 778 497 778 742 q 684 119 778 252 q 418 -14 591 -14 m 418 97 q 590 195 535 97 q 644 497 644 294 q 589 799 644 703 q 419 896 534 896 q 191 497 191 896 q 418 97 191 97 m -90 789 l -69 861 q -42 993 -49 939 l 93 993 l 93 979 q 59 897 93 968 q -16 770 26 827 l -90 770 l -90 789 z "},"Ύ":{"ha":833,"x_min":-161,"x_max":810,"o":"m 415 490 l 673 991 l 810 991 l 479 386 l 479 0 l 353 0 l 353 379 l 22 991 l 160 991 l 415 490 m -161 789 l -140 861 q -113 993 -120 939 l 22 993 l 22 979 q -12 897 22 968 q -87 770 -45 827 l -161 770 l -161 789 z "},"Ώ":{"ha":833,"x_min":-91,"x_max":786,"o":"m 367 100 l 367 0 l 50 0 l 50 111 l 231 111 q 58 559 58 271 q 153 889 58 771 q 418 1007 248 1007 q 683 889 587 1007 q 778 559 778 771 q 604 111 778 269 l 786 111 l 786 0 l 468 0 l 468 100 q 644 557 644 256 q 416 896 644 896 q 189 557 189 896 q 367 100 189 256 m -91 789 l -71 861 q -43 993 -50 939 l 92 993 l 92 979 q 58 897 92 968 q -17 770 24 827 l -91 770 l -91 789 z "},"ΐ":{"ha":833,"x_min":163,"x_max":689,"o":"m 414 745 l 414 220 q 545 87 414 87 q 689 102 621 87 l 689 8 q 536 -14 626 -14 q 290 220 290 -14 l 290 745 l 414 745 m 321 960 q 383 1164 355 1054 l 523 1164 l 523 1150 q 377 942 460 1039 l 321 942 l 321 960 m 229 1015 q 294 946 294 1015 q 275 895 294 913 q 229 876 256 876 q 163 946 163 876 q 229 1015 163 1015 m 524 1015 q 590 946 590 1015 q 524 876 590 876 q 459 946 459 876 q 524 1015 459 1015 z "},"Α":{"ha":833,"x_min":22,"x_max":811,"o":"m 681 0 l 583 307 l 250 307 l 151 0 l 22 0 l 350 996 l 482 996 l 811 0 l 681 0 m 547 419 l 457 707 q 415 860 431 791 q 384 736 401 793 l 286 419 l 547 419 z "},"Β":{"ha":833,"x_min":92,"x_max":771,"o":"m 92 991 l 390 991 q 660 932 576 991 q 743 741 743 873 q 690 596 743 654 q 546 526 637 538 l 546 519 q 771 288 771 483 q 685 77 771 153 q 449 0 598 0 l 92 0 l 92 991 m 218 571 l 411 571 q 565 608 517 571 q 614 732 614 646 q 562 848 614 813 q 397 884 510 884 l 218 884 l 218 571 m 218 465 l 218 107 l 427 107 q 637 293 637 107 q 418 465 637 465 l 218 465 z "},"Γ":{"ha":833,"x_min":167,"x_max":726,"o":"m 726 991 l 726 879 l 293 879 l 293 0 l 167 0 l 167 991 l 726 991 z "},"Δ":{"ha":833,"x_min":46,"x_max":786,"o":"m 786 85 l 786 0 l 46 0 l 46 90 l 351 991 l 478 991 l 786 85 m 414 852 q 354 627 379 701 l 182 113 l 647 113 l 476 623 q 414 852 441 728 z "},"Ε":{"ha":833,"x_min":147,"x_max":718,"o":"m 718 0 l 147 0 l 147 991 l 718 991 l 718 880 l 273 880 l 273 574 l 692 574 l 692 464 l 273 464 l 273 111 l 718 111 l 718 0 z "},"Ζ":{"ha":833,"x_min":69,"x_max":762,"o":"m 762 0 l 69 0 l 69 98 l 607 879 l 83 879 l 83 991 l 749 991 l 749 893 l 211 113 l 762 113 l 762 0 z "},"Η":{"ha":833,"x_min":92,"x_max":742,"o":"m 742 0 l 615 0 l 615 463 l 218 463 l 218 0 l 92 0 l 92 991 l 218 991 l 218 574 l 615 574 l 615 991 l 742 991 l 742 0 z "},"Θ":{"ha":833,"x_min":57,"x_max":778,"o":"m 418 -14 q 57 498 57 -14 q 419 1007 57 1007 q 685 874 593 1007 q 778 497 778 742 q 684 119 778 252 q 418 -14 591 -14 m 418 97 q 590 195 535 97 q 644 497 644 294 q 589 799 644 703 q 419 896 534 896 q 191 497 191 896 q 418 97 191 97 m 278 559 l 557 559 l 557 450 l 278 450 l 278 559 z "},"Ι":{"ha":833,"x_min":153,"x_max":679,"o":"m 679 0 l 153 0 l 153 83 l 353 97 l 353 895 l 153 908 l 153 991 l 679 991 l 679 908 l 479 895 l 479 97 l 679 83 l 679 0 z "},"Κ":{"ha":833,"x_min":143,"x_max":812,"o":"m 812 0 l 669 0 l 364 473 l 269 396 l 269 0 l 143 0 l 143 991 l 269 991 l 269 496 l 351 610 l 659 991 l 800 991 l 447 559 l 812 0 z "},"Λ":{"ha":833,"x_min":22,"x_max":811,"o":"m 811 0 l 676 0 l 478 625 q 415 856 435 760 q 355 629 385 720 l 155 0 l 22 0 l 353 991 l 479 991 l 811 0 z "},"Μ":{"ha":833,"x_min":77,"x_max":757,"o":"m 361 0 l 172 868 l 167 868 q 179 593 179 688 l 179 0 l 77 0 l 77 991 l 244 991 l 412 183 l 416 183 l 586 991 l 757 991 l 757 0 l 653 0 l 653 602 q 663 867 653 671 l 657 867 l 465 0 l 361 0 z "},"Ν":{"ha":833,"x_min":92,"x_max":741,"o":"m 741 0 l 595 0 l 201 821 l 196 821 q 208 538 208 633 l 208 0 l 92 0 l 92 991 l 236 991 l 628 175 l 632 175 q 623 449 623 380 l 623 991 l 741 991 l 741 0 z "},"Ξ":{"ha":833,"x_min":75,"x_max":757,"o":"m 103 991 l 729 991 l 729 880 l 103 880 l 103 991 m 158 574 l 673 574 l 673 464 l 158 464 l 158 574 m 757 111 l 757 0 l 75 0 l 75 111 l 757 111 z "},"Ο":{"ha":833,"x_min":57,"x_max":778,"o":"m 418 -14 q 57 498 57 -14 q 419 1007 57 1007 q 685 874 593 1007 q 778 497 778 742 q 684 119 778 252 q 418 -14 591 -14 m 418 97 q 590 195 535 97 q 644 497 644 294 q 589 799 644 703 q 419 896 534 896 q 191 497 191 896 q 418 97 191 97 z "},"Π":{"ha":833,"x_min":92,"x_max":742,"o":"m 742 0 l 615 0 l 615 880 l 218 880 l 218 0 l 92 0 l 92 991 l 742 991 l 742 0 z "},"Ρ":{"ha":833,"x_min":119,"x_max":742,"o":"m 245 386 l 245 0 l 119 0 l 119 991 l 393 991 q 742 701 742 991 q 648 469 742 553 q 375 386 554 386 l 245 386 m 245 493 l 361 493 q 553 542 495 493 q 611 694 611 591 q 382 884 611 884 l 245 884 l 245 493 z "},"Σ":{"ha":833,"x_min":89,"x_max":743,"o":"m 89 0 l 89 103 l 370 519 l 97 892 l 97 991 l 703 991 l 703 880 l 241 880 l 505 521 l 228 111 l 743 111 l 743 0 l 89 0 z "},"Τ":{"ha":833,"x_min":69,"x_max":762,"o":"m 479 0 l 353 0 l 353 880 l 69 880 l 69 991 l 762 991 l 762 880 l 479 880 l 479 0 z "},"Υ":{"ha":833,"x_min":22,"x_max":810,"o":"m 415 490 l 673 991 l 810 991 l 479 386 l 479 0 l 353 0 l 353 379 l 22 991 l 160 991 l 415 490 z "},"Φ":{"ha":833,"x_min":18,"x_max":817,"o":"m 361 1006 l 473 1006 l 473 884 l 505 884 q 733 779 650 884 q 817 514 817 674 q 731 247 817 354 q 490 139 645 139 l 473 139 l 473 -14 l 361 -14 l 361 139 l 345 139 q 103 247 189 139 q 18 514 18 355 q 101 779 18 673 q 329 884 184 884 l 361 884 l 361 1006 m 473 245 l 478 245 q 642 318 583 245 q 700 517 700 390 q 646 704 700 633 q 496 775 593 775 l 473 775 l 473 245 m 361 775 l 339 775 q 189 704 242 775 q 135 517 135 633 q 193 318 135 390 q 357 245 252 245 l 361 245 l 361 775 z "},"Χ":{"ha":833,"x_min":36,"x_max":796,"o":"m 796 0 l 653 0 l 412 431 l 164 0 l 36 0 l 343 518 l 57 991 l 192 991 l 416 612 l 643 991 l 772 991 l 486 522 l 796 0 z "},"Ψ":{"ha":833,"x_min":39,"x_max":796,"o":"m 796 667 q 718 387 796 472 q 485 302 639 302 l 473 302 l 473 0 l 361 0 l 361 302 l 350 302 q 116 388 194 302 q 39 664 39 473 l 39 991 l 155 991 l 155 667 q 202 460 155 510 q 350 410 249 410 l 361 410 l 361 991 l 473 991 l 473 410 l 485 410 q 632 458 586 410 q 679 664 679 507 l 679 991 l 796 991 l 796 667 z "},"Ω":{"ha":833,"x_min":50,"x_max":786,"o":"m 367 100 l 367 0 l 50 0 l 50 111 l 231 111 q 58 559 58 271 q 153 889 58 771 q 418 1007 248 1007 q 683 889 587 1007 q 778 559 778 771 q 604 111 778 269 l 786 111 l 786 0 l 468 0 l 468 100 q 644 557 644 256 q 416 896 644 896 q 189 557 189 896 q 367 100 189 256 z "},"Ϊ":{"ha":833,"x_min":153,"x_max":679,"o":"m 679 0 l 153 0 l 153 83 l 353 97 l 353 895 l 153 908 l 153 991 l 679 991 l 679 908 l 479 895 l 479 97 l 679 83 l 679 0 m 290 1244 q 355 1175 355 1244 q 290 1105 355 1105 q 225 1175 225 1105 q 290 1244 225 1244 m 545 1244 q 610 1175 610 1244 q 545 1105 610 1105 q 479 1175 479 1105 q 545 1244 479 1244 z "},"Ϋ":{"ha":833,"x_min":22,"x_max":810,"o":"m 415 490 l 673 991 l 810 991 l 479 386 l 479 0 l 353 0 l 353 379 l 22 991 l 160 991 l 415 490 m 290 1244 q 355 1175 355 1244 q 290 1105 355 1105 q 225 1175 225 1105 q 290 1244 225 1244 m 545 1244 q 610 1175 610 1244 q 545 1105 610 1105 q 479 1175 479 1105 q 545 1244 479 1244 z "},"ά":{"ha":833,"x_min":82,"x_max":799,"o":"m 585 644 l 593 644 q 639 745 613 714 l 736 745 q 701 447 701 632 l 701 163 q 758 87 701 87 q 799 94 778 87 l 799 4 q 721 -14 764 -14 q 586 100 613 -14 l 578 100 q 366 -14 505 -14 q 158 87 233 -14 q 82 371 82 188 q 160 657 82 556 q 378 758 238 758 q 585 644 520 758 m 578 361 l 578 371 q 532 590 578 525 q 387 656 487 656 q 210 370 210 656 q 389 89 210 89 q 532 151 489 89 q 578 361 575 214 m 336 860 l 356 932 q 383 1064 376 1010 l 518 1064 l 518 1050 q 485 968 518 1039 q 410 842 451 898 l 336 842 l 336 860 z "},"έ":{"ha":833,"x_min":136,"x_max":700,"o":"m 570 439 l 570 335 l 461 335 q 257 210 257 335 q 449 87 257 87 q 697 146 582 87 l 697 37 q 441 -14 606 -14 q 217 43 298 -14 q 136 203 136 100 q 297 385 136 334 l 297 392 q 160 561 160 437 q 236 705 160 652 q 440 758 312 758 q 700 707 587 758 l 657 607 q 443 656 548 656 q 278 551 278 656 q 465 439 278 439 l 570 439 m 390 860 l 410 932 q 437 1064 431 1010 l 572 1064 l 572 1050 q 539 968 572 1039 q 464 842 505 898 l 390 842 l 390 860 z "},"ή":{"ha":833,"x_min":109,"x_max":725,"o":"m 602 -334 l 602 479 q 440 656 602 656 q 232 386 232 656 l 232 0 l 109 0 l 109 745 l 208 745 l 227 644 l 233 644 q 461 758 302 758 q 725 486 725 758 l 725 -334 l 602 -334 m 379 860 l 399 932 q 427 1064 420 1010 l 562 1064 l 562 1050 q 528 968 562 1039 q 453 842 494 898 l 379 842 l 379 860 z "},"ί":{"ha":833,"x_min":290,"x_max":689,"o":"m 414 745 l 414 220 q 545 87 414 87 q 689 102 621 87 l 689 8 q 536 -14 626 -14 q 290 220 290 -14 l 290 745 l 414 745 m 319 860 l 339 932 q 366 1064 359 1010 l 501 1064 l 501 1050 q 468 968 501 1039 q 393 842 434 898 l 319 842 l 319 860 z "},"ΰ":{"ha":833,"x_min":109,"x_max":734,"o":"m 109 745 l 232 745 l 232 345 q 418 87 232 87 q 565 166 519 87 q 611 412 611 245 q 568 745 611 573 l 692 745 q 734 407 734 578 q 656 89 734 191 q 414 -14 578 -14 q 109 338 109 -14 l 109 745 m 359 960 q 420 1164 393 1054 l 560 1164 l 560 1150 q 414 942 497 1039 l 359 942 l 359 960 m 266 1015 q 332 946 332 1015 q 313 895 332 913 q 266 876 294 876 q 201 946 201 876 q 266 1015 201 1015 m 562 1015 q 627 946 627 1015 q 562 876 627 876 q 496 946 496 876 q 562 1015 496 1015 z "},"α":{"ha":833,"x_min":82,"x_max":799,"o":"m 585 644 l 593 644 q 639 745 613 714 l 736 745 q 701 447 701 632 l 701 163 q 758 87 701 87 q 799 94 778 87 l 799 4 q 721 -14 764 -14 q 586 100 613 -14 l 578 100 q 366 -14 505 -14 q 158 87 233 -14 q 82 371 82 188 q 160 657 82 556 q 378 758 238 758 q 585 644 520 758 m 578 361 l 578 371 q 532 590 578 525 q 387 656 487 656 q 210 370 210 656 q 389 89 210 89 q 532 151 489 89 q 578 361 575 214 z "},"β":{"ha":833,"x_min":107,"x_max":749,"o":"m 490 562 l 490 558 q 749 281 749 526 q 666 64 749 142 q 436 -14 583 -14 q 231 29 310 -14 l 231 -334 l 107 -334 l 107 743 q 188 980 107 897 q 410 1063 269 1063 q 624 991 544 1063 q 704 796 704 920 q 649 642 704 704 q 490 562 595 581 m 231 142 q 427 87 322 87 q 625 290 625 87 q 561 445 625 389 q 389 501 496 501 l 325 501 l 325 604 l 372 604 q 523 655 469 604 q 578 791 578 706 q 532 916 578 871 q 410 961 487 961 q 231 737 231 961 l 231 142 z "},"γ":{"ha":833,"x_min":56,"x_max":777,"o":"m 501 43 q 427 -334 427 -147 l 297 -334 q 366 8 297 -193 l 56 745 l 186 745 l 350 343 q 422 126 398 225 l 427 126 q 493 326 444 197 l 648 745 l 777 745 l 501 43 z "},"δ":{"ha":833,"x_min":92,"x_max":742,"o":"m 378 636 q 205 872 205 734 q 267 1013 205 962 q 437 1063 329 1063 q 704 989 572 1063 l 654 890 q 432 962 540 962 q 353 938 382 962 q 323 869 323 913 q 352 792 323 827 q 497 689 380 757 q 742 338 742 549 q 654 79 742 171 q 414 -14 566 -14 q 180 70 269 -14 q 92 297 92 154 q 378 636 92 549 m 464 579 q 222 294 222 511 q 274 146 222 203 q 414 89 326 89 q 614 326 614 89 q 464 579 614 492 z "},"ε":{"ha":833,"x_min":136,"x_max":700,"o":"m 570 439 l 570 335 l 461 335 q 257 210 257 335 q 449 87 257 87 q 697 146 582 87 l 697 37 q 441 -14 606 -14 q 217 43 298 -14 q 136 203 136 100 q 297 385 136 334 l 297 392 q 160 561 160 437 q 236 705 160 652 q 440 758 312 758 q 700 707 587 758 l 657 607 q 443 656 548 656 q 278 551 278 656 q 465 439 278 439 l 570 439 z "},"ζ":{"ha":833,"x_min":110,"x_max":724,"o":"m 151 1055 l 720 1055 l 720 960 q 344 631 451 764 q 237 323 237 497 q 294 176 237 220 q 505 106 350 132 q 672 51 621 85 q 724 -58 724 17 q 642 -272 724 -159 l 526 -272 q 608 -96 608 -162 q 573 -35 608 -57 q 407 7 538 -13 q 181 106 252 31 q 110 318 110 182 q 219 642 110 492 q 583 960 328 792 q 345 951 437 951 l 151 951 l 151 1055 z "},"η":{"ha":833,"x_min":109,"x_max":725,"o":"m 602 -334 l 602 479 q 440 656 602 656 q 232 386 232 656 l 232 0 l 109 0 l 109 745 l 208 745 l 227 644 l 233 644 q 461 758 302 758 q 725 486 725 758 l 725 -334 l 602 -334 z "},"θ":{"ha":833,"x_min":100,"x_max":733,"o":"m 415 -14 q 180 116 260 -14 q 100 494 100 246 q 177 876 100 752 q 415 1000 254 1000 q 652 871 572 1000 q 733 494 733 742 q 415 -14 733 -14 m 225 547 l 607 547 q 557 810 602 724 q 415 897 512 897 q 276 812 321 897 q 225 547 231 728 m 607 454 l 225 454 q 274 177 229 266 q 415 89 319 89 q 557 176 511 89 q 607 454 603 262 z "},"ι":{"ha":833,"x_min":290,"x_max":689,"o":"m 414 745 l 414 220 q 545 87 414 87 q 689 102 621 87 l 689 8 q 536 -14 626 -14 q 290 220 290 -14 l 290 745 l 414 745 z "},"κ":{"ha":833,"x_min":146,"x_max":789,"o":"m 260 345 l 353 457 l 625 745 l 770 745 l 435 399 l 789 0 l 644 0 l 355 318 l 268 262 l 268 0 l 146 0 l 146 745 l 268 745 l 268 547 l 257 345 l 260 345 z "},"λ":{"ha":833,"x_min":41,"x_max":803,"o":"m 41 0 l 383 734 l 347 843 q 295 938 324 913 q 216 962 266 962 q 146 954 178 962 l 146 1053 q 232 1064 190 1064 q 376 1018 328 1064 q 472 829 425 972 l 693 163 q 762 87 718 87 q 803 94 782 87 l 803 4 q 725 -14 769 -14 q 640 14 669 -14 q 591 100 610 41 l 500 383 q 436 611 453 528 l 432 611 q 351 393 408 517 l 170 0 l 41 0 z "},"μ":{"ha":833,"x_min":109,"x_max":725,"o":"m 232 265 q 393 89 232 89 q 552 152 502 89 q 602 358 602 215 l 602 745 l 725 745 l 725 0 l 625 0 l 607 100 l 600 100 q 396 -14 534 -14 q 228 46 279 -14 q 232 -117 232 -58 l 232 -334 l 109 -334 l 109 745 l 232 745 l 232 265 z "},"ν":{"ha":833,"x_min":41,"x_max":745,"o":"m 41 745 l 170 745 l 321 347 q 403 104 395 151 l 407 104 q 567 355 513 216 q 621 745 621 494 l 745 745 q 676 331 745 497 q 456 0 608 165 l 329 0 l 41 745 z "},"ξ":{"ha":833,"x_min":117,"x_max":724,"o":"m 668 602 l 668 509 l 532 509 q 318 453 391 509 q 244 297 244 398 q 270 200 244 235 q 343 145 296 164 q 511 104 390 126 q 672 51 621 85 q 724 -58 724 17 q 642 -272 724 -159 l 526 -272 q 608 -94 608 -162 q 575 -36 608 -58 q 414 5 541 -14 q 117 286 117 52 q 168 449 117 377 q 309 549 219 520 l 309 557 q 163 746 163 597 q 214 874 163 823 q 390 960 264 925 q 200 951 271 951 l 158 951 l 158 1055 l 676 1055 l 676 951 l 629 951 q 382 897 482 951 q 282 749 282 843 q 344 637 282 672 q 539 602 406 602 l 668 602 z "},"ο":{"ha":833,"x_min":78,"x_max":754,"o":"m 414 -14 q 173 92 267 -14 q 78 374 78 197 q 170 655 78 552 q 418 758 262 758 q 660 653 566 758 q 754 374 754 548 q 661 90 754 194 q 414 -14 568 -14 m 416 89 q 627 374 627 89 q 415 656 627 656 q 205 374 205 656 q 416 89 205 89 z "},"π":{"ha":833,"x_min":9,"x_max":823,"o":"m 803 102 l 803 4 q 710 -14 768 -14 q 557 164 557 -14 l 557 640 l 283 640 l 283 0 l 160 0 l 160 640 l 9 640 l 9 690 l 103 745 l 823 745 l 823 640 l 681 640 l 681 172 q 742 87 681 87 q 803 102 773 87 z "},"ρ":{"ha":833,"x_min":107,"x_max":734,"o":"m 231 47 l 227 47 q 231 -136 231 -71 l 231 -334 l 107 -334 l 107 374 q 193 655 107 552 q 427 758 279 758 q 650 654 566 758 q 734 374 734 550 q 651 89 734 191 q 421 -14 567 -14 q 231 47 307 -14 m 231 157 q 422 89 307 89 q 564 160 520 89 q 607 374 607 232 q 563 586 607 515 q 421 656 519 656 q 231 387 231 656 l 231 157 z "},"ς":{"ha":833,"x_min":117,"x_max":722,"o":"m 637 -272 l 525 -272 q 607 -94 607 -161 q 562 -34 607 -54 q 407 5 517 -14 q 117 350 117 54 q 501 758 117 758 q 720 718 612 758 l 677 611 q 493 650 570 650 q 244 351 244 650 q 297 179 244 224 q 479 110 349 134 q 722 -61 722 65 q 637 -272 722 -157 z "},"σ":{"ha":833,"x_min":87,"x_max":796,"o":"m 796 745 l 796 640 l 615 640 q 736 342 736 508 q 649 84 736 182 q 410 -14 562 -14 q 174 84 260 -14 q 87 355 87 181 q 464 745 87 745 l 796 745 m 504 640 l 464 640 q 272 574 329 640 q 215 355 215 508 q 267 159 215 230 q 415 89 319 89 q 559 154 509 89 q 608 336 608 218 q 504 640 608 519 z "},"τ":{"ha":833,"x_min":72,"x_max":733,"o":"m 733 745 l 733 640 l 411 640 l 411 229 q 553 83 411 83 q 682 97 625 83 l 682 5 q 533 -18 625 -18 q 288 215 288 -18 l 288 640 l 72 640 l 72 690 l 163 745 l 733 745 z "},"υ":{"ha":833,"x_min":109,"x_max":734,"o":"m 109 745 l 232 745 l 232 345 q 418 87 232 87 q 565 166 519 87 q 611 412 611 245 q 568 745 611 573 l 692 745 q 734 407 734 578 q 656 89 734 191 q 414 -14 578 -14 q 109 338 109 -14 l 109 745 z "},"φ":{"ha":833,"x_min":50,"x_max":783,"o":"m 355 -334 l 355 -12 q 50 371 50 5 q 191 750 50 584 l 272 689 q 183 532 206 602 q 160 371 160 462 q 355 89 160 111 l 355 500 q 546 758 355 758 q 720 658 657 758 q 783 387 783 558 q 699 103 783 208 q 463 -12 614 -3 l 463 -334 l 355 -334 m 463 89 q 669 386 669 109 q 550 656 669 656 q 463 501 463 656 l 463 89 z "},"χ":{"ha":833,"x_min":29,"x_max":790,"o":"m 432 343 l 643 745 l 764 745 l 481 218 l 607 -94 q 665 -202 638 -172 q 736 -232 692 -232 q 790 -227 766 -232 l 790 -321 q 710 -334 745 -334 q 595 -303 641 -334 q 501 -153 549 -273 l 401 103 l 161 -334 l 29 -334 l 351 229 l 229 532 q 126 646 183 646 q 83 639 106 646 l 83 736 q 171 747 119 747 q 263 710 226 747 q 338 579 300 673 l 432 343 z "},"ψ":{"ha":833,"x_min":54,"x_max":783,"o":"m 463 1054 l 463 90 q 667 386 667 109 q 624 745 667 555 l 741 745 q 783 390 783 557 q 463 -12 783 5 l 463 -334 l 355 -334 l 355 -12 q 126 85 197 -7 q 54 376 54 176 l 54 745 l 171 745 l 171 386 q 355 89 171 100 l 355 1054 l 463 1054 z "},"ω":{"ha":833,"x_min":61,"x_max":774,"o":"m 132 745 l 244 745 q 174 361 174 567 q 268 89 174 89 q 339 137 313 89 q 364 271 364 185 l 364 478 l 471 478 l 471 271 q 497 136 471 182 q 567 89 524 89 q 661 361 661 89 q 590 745 661 568 l 703 745 q 774 361 774 570 q 578 -14 774 -14 q 421 107 455 -14 l 414 107 q 257 -14 380 -14 q 61 361 61 -14 q 132 745 61 566 z "},"ϊ":{"ha":833,"x_min":176,"x_max":689,"o":"m 414 745 l 414 220 q 545 87 414 87 q 689 102 621 87 l 689 8 q 536 -14 626 -14 q 290 220 290 -14 l 290 745 l 414 745 m 241 1015 q 306 946 306 1015 q 241 876 306 876 q 176 946 176 876 q 241 1015 176 1015 m 495 1015 q 560 946 560 1015 q 495 876 560 876 q 430 946 430 876 q 495 1015 430 1015 z "},"ϋ":{"ha":833,"x_min":109,"x_max":734,"o":"m 109 745 l 232 745 l 232 345 q 418 87 232 87 q 565 166 519 87 q 611 412 611 245 q 568 745 611 573 l 692 745 q 734 407 734 578 q 656 89 734 191 q 414 -14 578 -14 q 109 338 109 -14 l 109 745 m 289 1015 q 354 946 354 1015 q 289 876 354 876 q 224 946 224 876 q 289 1015 224 1015 m 543 1015 q 608 946 608 1015 q 543 876 608 876 q 478 946 478 876 q 543 1015 478 1015 z "},"ό":{"ha":833,"x_min":78,"x_max":754,"o":"m 414 -14 q 173 92 267 -14 q 78 374 78 197 q 170 655 78 552 q 418 758 262 758 q 660 653 566 758 q 754 374 754 548 q 661 90 754 194 q 414 -14 568 -14 m 416 89 q 627 374 627 89 q 415 656 627 656 q 205 374 205 656 q 416 89 205 89 m 374 860 l 394 932 q 421 1064 414 1010 l 556 1064 l 556 1050 q 523 968 556 1039 q 448 842 489 898 l 374 842 l 374 860 z "},"ύ":{"ha":833,"x_min":109,"x_max":734,"o":"m 109 745 l 232 745 l 232 345 q 418 87 232 87 q 565 166 519 87 q 611 412 611 245 q 568 745 611 573 l 692 745 q 734 407 734 578 q 656 89 734 191 q 414 -14 578 -14 q 109 338 109 -14 l 109 745 m 351 860 l 372 932 q 399 1064 392 1010 l 534 1064 l 534 1050 q 500 968 534 1039 q 425 842 467 898 l 351 842 l 351 860 z "},"ώ":{"ha":833,"x_min":61,"x_max":774,"o":"m 132 745 l 244 745 q 174 361 174 567 q 268 89 174 89 q 339 137 313 89 q 364 271 364 185 l 364 478 l 471 478 l 471 271 q 497 136 471 182 q 567 89 524 89 q 661 361 661 89 q 590 745 661 568 l 703 745 q 774 361 774 570 q 578 -14 774 -14 q 421 107 455 -14 l 414 107 q 257 -14 380 -14 q 61 361 61 -14 q 132 745 61 566 m 359 860 l 380 932 q 407 1064 400 1010 l 542 1064 l 542 1050 q 508 968 542 1039 q 433 842 475 898 l 359 842 l 359 860 z "},"Ё":{"ha":833,"x_min":147,"x_max":718,"o":"m 718 0 l 147 0 l 147 991 l 718 991 l 718 880 l 273 880 l 273 574 l 692 574 l 692 464 l 273 464 l 273 111 l 718 111 l 718 0 m 306 1244 q 371 1175 371 1244 q 306 1105 371 1105 q 241 1175 241 1105 q 306 1244 241 1244 m 560 1244 q 625 1175 625 1244 q 560 1105 625 1105 q 495 1175 495 1105 q 560 1244 495 1244 z "},"Ђ":{"ha":833,"x_min":16,"x_max":790,"o":"m 450 3 l 450 111 q 542 97 496 97 q 664 250 664 97 l 664 340 q 510 497 664 497 l 345 497 l 345 0 l 218 0 l 218 880 l 16 880 l 16 991 l 586 991 l 586 880 l 345 880 l 345 608 l 524 608 q 720 543 650 608 q 790 357 790 477 l 790 264 q 726 59 790 131 q 546 -14 662 -14 q 450 3 486 -14 z "},"Ѓ":{"ha":833,"x_min":167,"x_max":726,"o":"m 726 991 l 726 879 l 293 879 l 293 0 l 167 0 l 167 991 l 726 991 m 357 1089 q 475 1293 421 1179 l 624 1293 l 624 1279 q 439 1071 548 1162 l 357 1071 l 357 1089 z "},"Є":{"ha":833,"x_min":87,"x_max":800,"o":"m 225 574 l 652 574 l 652 464 l 221 464 q 541 97 237 97 q 762 136 629 97 l 762 26 q 519 -14 663 -14 q 199 119 310 -14 q 87 497 87 252 q 209 869 87 732 q 541 1006 330 1006 q 800 947 690 1006 l 747 842 q 541 895 643 895 q 328 810 413 895 q 225 574 243 726 z "},"Ѕ":{"ha":833,"x_min":96,"x_max":737,"o":"m 96 33 l 96 154 q 376 96 239 96 q 614 258 614 96 q 566 367 614 329 q 372 457 518 405 q 170 575 231 507 q 109 754 109 644 q 196 939 109 872 q 435 1006 283 1006 q 717 953 590 1006 l 673 842 q 429 895 543 895 q 231 753 231 895 q 275 642 231 684 q 458 551 319 600 q 681 428 625 492 q 737 265 737 365 q 643 61 737 135 q 376 -14 549 -14 q 96 33 197 -14 z "},"І":{"ha":833,"x_min":153,"x_max":679,"o":"m 679 0 l 153 0 l 153 83 l 353 97 l 353 895 l 153 908 l 153 991 l 679 991 l 679 908 l 479 895 l 479 97 l 679 83 l 679 0 z "},"Ї":{"ha":833,"x_min":153,"x_max":679,"o":"m 679 0 l 153 0 l 153 83 l 353 97 l 353 895 l 153 908 l 153 991 l 679 991 l 679 908 l 479 895 l 479 97 l 679 83 l 679 0 m 290 1244 q 355 1175 355 1244 q 290 1105 355 1105 q 225 1175 225 1105 q 290 1244 225 1244 m 545 1244 q 610 1175 610 1244 q 545 1105 610 1105 q 479 1175 479 1105 q 545 1244 479 1244 z "},"Ј":{"ha":833,"x_min":93,"x_max":664,"o":"m 93 26 l 93 139 q 302 97 203 97 q 475 151 412 97 q 538 304 538 205 l 538 991 l 664 991 l 664 306 q 569 73 664 159 q 313 -14 473 -14 q 93 26 165 -14 z "},"Љ":{"ha":833,"x_min":0,"x_max":819,"o":"m 254 880 l 241 509 q 184 53 227 120 q 65 -14 141 -14 q 0 -1 27 -14 l 0 97 q 46 87 22 87 q 88 111 70 87 q 114 197 106 135 q 137 553 123 260 q 153 991 151 846 l 490 991 l 490 574 l 517 574 q 819 290 819 574 q 742 75 819 149 q 518 0 665 0 l 378 0 l 378 880 l 254 880 m 490 109 l 521 109 q 703 290 703 109 q 656 422 703 381 q 504 463 609 463 l 490 463 l 490 109 z "},"Њ":{"ha":833,"x_min":45,"x_max":814,"o":"m 372 0 l 372 463 l 157 463 l 157 0 l 45 0 l 45 991 l 157 991 l 157 574 l 372 574 l 372 991 l 485 991 l 485 574 l 511 574 q 737 501 660 574 q 814 290 814 428 q 736 75 814 149 q 513 0 659 0 l 372 0 m 485 109 l 515 109 q 697 290 697 109 q 650 422 697 381 q 498 463 604 463 l 485 463 l 485 109 z "},"Ћ":{"ha":833,"x_min":16,"x_max":790,"o":"m 345 608 l 524 608 q 720 543 650 608 q 790 357 790 477 l 790 0 l 664 0 l 664 340 q 510 497 664 497 l 345 497 l 345 0 l 218 0 l 218 880 l 16 880 l 16 991 l 586 991 l 586 880 l 345 880 l 345 608 z "},"Ќ":{"ha":833,"x_min":143,"x_max":812,"o":"m 812 0 l 664 0 l 269 503 l 269 0 l 143 0 l 143 991 l 269 991 l 269 511 l 653 991 l 793 991 l 410 515 l 812 0 m 389 1089 q 507 1293 453 1179 l 656 1293 l 656 1279 q 471 1071 580 1162 l 389 1071 l 389 1089 z "},"Ў":{"ha":833,"x_min":18,"x_max":814,"o":"m 814 991 l 524 293 q 431 111 472 169 q 330 20 391 53 q 184 -14 270 -14 q 64 7 114 -14 l 64 132 q 184 102 121 102 q 300 137 259 102 q 378 254 341 172 l 18 991 l 157 991 l 416 443 q 430 411 425 426 q 441 380 435 394 l 443 380 l 469 454 l 681 991 l 814 991 m 680 1286 q 416 1071 667 1071 q 226 1121 284 1071 q 161 1286 168 1171 l 276 1286 q 310 1188 281 1217 q 419 1160 338 1160 q 562 1286 551 1160 l 680 1286 z "},"Џ":{"ha":833,"x_min":92,"x_max":742,"o":"m 742 0 l 475 0 l 475 -261 l 355 -261 l 355 0 l 92 0 l 92 991 l 218 991 l 218 113 l 615 113 l 615 991 l 742 991 l 742 0 z "},"А":{"ha":833,"x_min":22,"x_max":811,"o":"m 681 0 l 583 307 l 250 307 l 151 0 l 22 0 l 350 996 l 482 996 l 811 0 l 681 0 m 547 419 l 457 707 q 415 860 431 791 q 384 736 401 793 l 286 419 l 547 419 z "},"Б":{"ha":833,"x_min":92,"x_max":770,"o":"m 92 0 l 92 991 l 710 991 l 710 880 l 218 880 l 218 574 l 403 574 q 770 290 770 574 q 681 75 770 149 q 421 0 591 0 l 92 0 m 218 109 l 410 109 q 639 290 639 109 q 581 421 639 380 q 389 463 523 463 l 218 463 l 218 109 z "},"В":{"ha":833,"x_min":92,"x_max":771,"o":"m 92 991 l 390 991 q 660 932 576 991 q 743 741 743 873 q 690 596 743 654 q 546 526 637 538 l 546 519 q 771 288 771 483 q 685 77 771 153 q 449 0 598 0 l 92 0 l 92 991 m 218 571 l 411 571 q 565 608 517 571 q 614 732 614 646 q 562 848 614 813 q 397 884 510 884 l 218 884 l 218 571 m 218 465 l 218 107 l 427 107 q 637 293 637 107 q 418 465 637 465 l 218 465 z "},"Г":{"ha":833,"x_min":167,"x_max":726,"o":"m 726 991 l 726 879 l 293 879 l 293 0 l 167 0 l 167 991 l 726 991 z "},"Д":{"ha":833,"x_min":4,"x_max":828,"o":"m 828 -261 l 708 -261 l 708 0 l 123 0 l 123 -261 l 4 -261 l 4 113 l 81 113 q 227 515 168 273 q 294 991 286 758 l 696 991 l 696 113 l 828 113 l 828 -261 m 570 113 l 570 879 l 406 879 q 339 474 394 699 q 211 113 283 250 l 570 113 z "},"Е":{"ha":833,"x_min":147,"x_max":718,"o":"m 718 0 l 147 0 l 147 991 l 718 991 l 718 880 l 273 880 l 273 574 l 692 574 l 692 464 l 273 464 l 273 111 l 718 111 l 718 0 z "},"Ж":{"ha":833,"x_min":0,"x_max":833,"o":"m 253 511 l 8 991 l 129 991 l 366 511 l 366 991 l 471 991 l 471 511 l 703 991 l 823 991 l 582 511 l 833 0 l 708 0 l 471 503 l 471 0 l 366 0 l 366 503 l 123 0 l 0 0 l 253 511 z "},"З":{"ha":833,"x_min":94,"x_max":726,"o":"m 476 522 l 476 518 q 662 441 597 503 q 726 282 726 379 q 630 65 726 144 q 357 -14 534 -14 q 94 40 193 -14 l 94 155 q 354 90 219 90 q 595 282 595 90 q 328 461 595 461 l 199 461 l 199 564 l 318 564 q 508 614 440 564 q 576 749 576 664 q 529 860 576 819 q 401 901 481 901 q 161 819 275 901 l 98 904 q 407 1006 230 1006 q 628 939 549 1006 q 708 760 708 871 q 647 604 708 667 q 476 522 587 541 z "},"И":{"ha":833,"x_min":93,"x_max":742,"o":"m 93 991 l 211 991 l 211 449 q 206 277 211 353 l 201 175 l 205 175 l 597 991 l 742 991 l 742 0 l 625 0 l 625 538 q 637 821 625 633 l 632 821 l 239 0 l 93 0 l 93 991 z "},"Й":{"ha":833,"x_min":93,"x_max":742,"o":"m 93 991 l 211 991 l 211 449 q 206 277 211 353 l 201 175 l 205 175 l 597 991 l 742 991 l 742 0 l 625 0 l 625 538 q 637 821 625 633 l 632 821 l 239 0 l 93 0 l 93 991 m 676 1286 q 412 1071 663 1071 q 222 1121 280 1071 q 157 1286 163 1171 l 272 1286 q 306 1188 277 1217 q 415 1160 334 1160 q 558 1286 547 1160 l 676 1286 z "},"К":{"ha":833,"x_min":143,"x_max":812,"o":"m 812 0 l 664 0 l 269 503 l 269 0 l 143 0 l 143 991 l 269 991 l 269 511 l 653 991 l 793 991 l 410 515 l 812 0 z "},"Л":{"ha":833,"x_min":3,"x_max":742,"o":"m 742 0 l 615 0 l 615 880 l 414 880 q 274 101 334 218 q 96 -16 214 -16 q 3 1 47 -16 l 3 103 q 79 86 41 86 q 186 209 149 86 q 309 991 223 331 l 742 991 l 742 0 z "},"М":{"ha":833,"x_min":77,"x_max":757,"o":"m 361 0 l 172 868 l 167 868 q 179 593 179 688 l 179 0 l 77 0 l 77 991 l 244 991 l 412 183 l 416 183 l 586 991 l 757 991 l 757 0 l 653 0 l 653 602 q 663 867 653 671 l 657 867 l 465 0 l 361 0 z "},"Н":{"ha":833,"x_min":92,"x_max":742,"o":"m 742 0 l 615 0 l 615 463 l 218 463 l 218 0 l 92 0 l 92 991 l 218 991 l 218 574 l 615 574 l 615 991 l 742 991 l 742 0 z "},"О":{"ha":833,"x_min":57,"x_max":778,"o":"m 418 -14 q 57 498 57 -14 q 419 1007 57 1007 q 685 874 593 1007 q 778 497 778 742 q 684 119 778 252 q 418 -14 591 -14 m 418 97 q 590 195 535 97 q 644 497 644 294 q 589 799 644 703 q 419 896 534 896 q 191 497 191 896 q 418 97 191 97 z "},"П":{"ha":833,"x_min":92,"x_max":742,"o":"m 742 0 l 615 0 l 615 880 l 218 880 l 218 0 l 92 0 l 92 991 l 742 991 l 742 0 z "},"Р":{"ha":833,"x_min":119,"x_max":742,"o":"m 245 386 l 245 0 l 119 0 l 119 991 l 393 991 q 742 701 742 991 q 648 469 742 553 q 375 386 554 386 l 245 386 m 245 493 l 361 493 q 553 542 495 493 q 611 694 611 591 q 382 884 611 884 l 245 884 l 245 493 z "},"С":{"ha":833,"x_min":87,"x_max":800,"o":"m 762 136 l 762 26 q 519 -14 663 -14 q 199 119 310 -14 q 87 497 87 252 q 209 869 87 732 q 541 1006 330 1006 q 800 947 690 1006 l 747 842 q 541 895 643 895 q 308 787 395 895 q 221 496 221 680 q 302 199 221 301 q 541 97 384 97 q 762 136 629 97 z "},"Т":{"ha":833,"x_min":69,"x_max":762,"o":"m 479 0 l 353 0 l 353 880 l 69 880 l 69 991 l 762 991 l 762 880 l 479 880 l 479 0 z "},"У":{"ha":833,"x_min":18,"x_max":814,"o":"m 814 991 l 524 293 q 431 111 472 169 q 330 20 391 53 q 184 -14 270 -14 q 64 7 114 -14 l 64 132 q 184 102 121 102 q 300 137 259 102 q 378 254 341 172 l 18 991 l 157 991 l 416 443 q 430 411 425 426 q 441 380 435 394 l 443 380 l 469 454 l 681 991 l 814 991 z "},"Ф":{"ha":833,"x_min":18,"x_max":817,"o":"m 361 1006 l 473 1006 l 473 884 l 505 884 q 733 779 650 884 q 817 514 817 674 q 731 247 817 354 q 490 139 645 139 l 473 139 l 473 -14 l 361 -14 l 361 139 l 345 139 q 103 247 189 139 q 18 514 18 355 q 101 779 18 673 q 329 884 184 884 l 361 884 l 361 1006 m 473 245 l 478 245 q 642 318 583 245 q 700 517 700 390 q 646 704 700 633 q 496 775 593 775 l 473 775 l 473 245 m 361 775 l 339 775 q 189 704 242 775 q 135 517 135 633 q 193 318 135 390 q 357 245 252 245 l 361 245 l 361 775 z "},"Х":{"ha":833,"x_min":36,"x_max":796,"o":"m 796 0 l 653 0 l 412 431 l 164 0 l 36 0 l 343 518 l 57 991 l 192 991 l 416 612 l 643 991 l 772 991 l 486 522 l 796 0 z "},"Ц":{"ha":833,"x_min":92,"x_max":821,"o":"m 701 113 l 821 113 l 821 -261 l 701 -261 l 701 0 l 92 0 l 92 991 l 218 991 l 218 113 l 575 113 l 575 991 l 701 991 l 701 113 z "},"Ч":{"ha":833,"x_min":92,"x_max":742,"o":"m 742 0 l 615 0 l 615 406 q 349 345 461 345 q 92 596 92 345 l 92 991 l 218 991 l 218 612 q 253 490 218 524 q 363 456 288 456 q 615 510 467 456 l 615 991 l 742 991 l 742 0 z "},"Ш":{"ha":833,"x_min":82,"x_max":753,"o":"m 753 0 l 82 0 l 82 991 l 195 991 l 195 113 l 361 113 l 361 991 l 473 991 l 473 113 l 640 113 l 640 991 l 753 991 l 753 0 z "},"Щ":{"ha":833,"x_min":41,"x_max":833,"o":"m 713 113 l 833 113 l 833 -261 l 714 -261 l 714 0 l 41 0 l 41 991 l 154 991 l 154 113 l 321 113 l 321 991 l 433 991 l 433 113 l 600 113 l 600 991 l 713 991 l 713 113 z "},"Ъ":{"ha":833,"x_min":18,"x_max":774,"o":"m 221 0 l 221 880 l 18 880 l 18 991 l 347 991 l 347 574 l 393 574 q 675 500 576 574 q 774 290 774 426 q 680 77 774 153 q 411 0 586 0 l 221 0 m 347 109 l 414 109 q 643 290 643 109 q 585 421 643 380 q 393 463 527 463 l 347 463 l 347 109 z "},"Ы":{"ha":833,"x_min":65,"x_max":768,"o":"m 65 0 l 65 991 l 178 991 l 178 574 l 210 574 q 576 290 576 574 q 487 75 576 149 q 228 0 398 0 l 65 0 m 178 109 l 231 109 q 460 290 460 109 q 402 421 460 380 q 210 463 344 463 l 178 463 l 178 109 m 656 0 l 656 991 l 768 991 l 768 0 l 656 0 z "},"Ь":{"ha":833,"x_min":119,"x_max":742,"o":"m 119 0 l 119 991 l 245 991 l 245 574 l 375 574 q 742 290 742 574 q 653 75 742 149 q 393 0 564 0 l 119 0 m 245 109 l 382 109 q 611 290 611 109 q 553 421 611 380 q 361 463 495 463 l 245 463 l 245 109 z "},"Э":{"ha":833,"x_min":46,"x_max":746,"o":"m 98 842 l 46 947 q 306 1006 155 1006 q 629 874 512 1006 q 746 514 746 742 q 630 124 746 261 q 300 -14 514 -14 q 57 26 156 -14 l 57 136 q 279 97 191 97 q 611 464 600 97 l 184 464 l 184 574 l 608 574 q 515 809 595 724 q 306 895 435 895 q 98 842 203 895 z "},"Ю":{"ha":833,"x_min":66,"x_max":786,"o":"m 273 463 l 179 463 l 179 0 l 66 0 l 66 991 l 179 991 l 179 574 l 277 574 q 348 909 289 810 q 532 1007 408 1007 q 724 887 662 1007 q 786 497 786 768 q 724 107 786 228 q 530 -14 661 -14 q 341 93 401 -14 q 273 463 280 200 m 530 97 q 634 176 602 97 q 667 497 667 255 q 634 819 667 741 q 530 896 602 896 q 425 815 457 896 q 393 497 393 735 q 425 179 393 261 q 530 97 456 97 z "},"Я":{"ha":833,"x_min":39,"x_max":707,"o":"m 414 410 l 187 0 l 39 0 l 297 444 q 113 721 113 511 q 454 991 113 991 l 707 991 l 707 0 l 581 0 l 581 410 l 414 410 m 581 884 l 453 884 q 243 710 243 884 q 298 567 243 617 q 458 517 354 517 l 581 517 l 581 884 z "},"а":{"ha":833,"x_min":92,"x_max":696,"o":"m 607 0 l 582 103 l 576 103 q 469 12 524 37 q 328 -14 414 -14 q 154 45 217 -14 q 92 208 92 103 q 437 444 92 433 l 575 449 l 575 496 q 410 656 575 656 q 187 600 310 656 l 144 693 q 404 758 277 758 q 627 699 558 758 q 696 510 696 640 l 696 0 l 607 0 m 574 364 l 464 359 q 275 318 331 354 q 220 207 220 281 q 355 86 220 86 q 514 141 455 86 q 574 297 574 197 l 574 364 z "},"б":{"ha":833,"x_min":97,"x_max":734,"o":"m 705 1065 l 728 957 q 389 889 458 911 q 276 794 319 867 q 228 578 233 720 l 236 578 q 464 693 315 693 q 662 604 590 693 q 734 359 734 515 q 650 85 734 183 q 415 -14 565 -14 q 182 109 267 -14 q 97 447 97 231 q 118 688 97 591 q 174 846 139 786 q 256 941 210 905 q 372 997 303 977 q 705 1065 440 1016 m 225 444 q 424 89 225 89 q 604 343 604 89 q 441 590 604 590 q 317 547 377 590 q 225 444 257 504 z "},"в":{"ha":833,"x_min":119,"x_max":751,"o":"m 572 395 l 572 390 q 751 215 751 366 q 680 57 751 114 q 467 0 608 0 l 119 0 l 119 745 l 465 745 q 728 557 728 745 q 572 395 728 423 m 243 640 l 243 439 l 441 439 q 571 463 532 439 q 610 545 610 488 q 463 640 610 640 l 243 640 m 243 335 l 243 102 l 458 102 q 631 224 631 102 q 587 311 631 286 q 456 335 543 335 l 243 335 z "},"г":{"ha":833,"x_min":197,"x_max":704,"o":"m 704 640 l 321 640 l 321 0 l 197 0 l 197 745 l 704 745 l 704 640 z "},"д":{"ha":833,"x_min":22,"x_max":765,"o":"m 765 -258 l 646 -258 l 646 0 l 142 0 l 142 -258 l 22 -258 l 22 104 l 81 104 q 261 745 258 368 l 663 745 l 663 104 l 765 104 l 765 -258 m 539 104 l 539 650 l 370 650 q 211 104 345 323 l 539 104 z "},"е":{"ha":833,"x_min":90,"x_max":743,"o":"m 743 349 l 218 349 q 452 94 224 94 q 703 146 584 94 l 703 37 q 456 -14 590 -14 q 190 88 290 -14 q 90 367 90 189 q 182 653 90 547 q 428 758 274 758 q 657 667 572 758 q 743 425 743 576 l 743 349 m 221 449 l 610 449 q 425 656 610 656 q 221 449 239 656 z "},"ж":{"ha":833,"x_min":0,"x_max":833,"o":"m 363 383 l 363 745 l 471 745 l 471 383 l 708 745 l 833 745 l 585 383 l 832 0 l 700 0 l 471 378 l 471 0 l 363 0 l 363 378 l 134 0 l 1 0 l 250 383 l 0 745 l 125 745 l 363 383 z "},"з":{"ha":833,"x_min":136,"x_max":700,"o":"m 343 439 q 509 466 460 439 q 558 551 558 492 q 389 656 558 656 q 179 607 298 656 l 136 707 q 387 758 245 758 q 601 708 526 758 q 676 562 676 657 q 546 397 676 436 l 546 390 q 700 205 700 346 q 618 45 700 103 q 385 -14 536 -14 q 139 33 225 -14 l 139 146 q 387 87 261 87 q 579 210 579 87 q 368 335 579 335 l 267 335 l 267 439 l 343 439 z "},"и":{"ha":833,"x_min":109,"x_max":725,"o":"m 225 745 l 225 292 l 216 121 l 567 745 l 725 745 l 725 0 l 608 0 l 608 439 l 615 623 l 267 0 l 109 0 l 109 745 l 225 745 z "},"й":{"ha":833,"x_min":109,"x_max":725,"o":"m 225 745 l 225 292 l 216 121 l 567 745 l 725 745 l 725 0 l 608 0 l 608 439 l 615 623 l 267 0 l 109 0 l 109 745 l 225 745 m 701 1057 q 437 842 688 842 q 247 892 305 842 q 182 1057 189 942 l 297 1057 q 331 959 302 988 q 440 930 359 930 q 583 1057 572 930 l 701 1057 z "},"к":{"ha":833,"x_min":146,"x_max":796,"o":"m 619 745 l 770 745 l 412 387 l 796 0 l 639 0 l 268 378 l 268 0 l 146 0 l 146 745 l 268 745 l 268 383 l 619 745 z "},"л":{"ha":833,"x_min":21,"x_max":705,"o":"m 705 0 l 582 0 l 582 640 l 351 640 q 266 148 326 306 q 83 -9 205 -9 q 21 -1 41 -9 l 21 87 q 54 83 35 83 q 175 244 130 83 q 245 745 221 406 l 705 745 l 705 0 z "},"м":{"ha":833,"x_min":78,"x_max":755,"o":"m 755 0 l 653 0 l 653 608 q 631 522 648 590 q 607 439 616 465 l 463 0 l 371 0 l 227 439 q 180 608 221 456 l 180 0 l 78 0 l 78 745 l 221 745 l 367 300 q 416 118 384 248 q 452 248 420 127 q 467 297 459 274 l 615 745 l 755 745 l 755 0 z "},"н":{"ha":833,"x_min":109,"x_max":725,"o":"m 232 745 l 232 436 l 602 436 l 602 745 l 725 745 l 725 0 l 602 0 l 602 332 l 232 332 l 232 0 l 109 0 l 109 745 l 232 745 z "},"о":{"ha":833,"x_min":78,"x_max":754,"o":"m 414 -14 q 173 92 267 -14 q 78 374 78 197 q 170 655 78 552 q 418 758 262 758 q 660 653 566 758 q 754 374 754 548 q 661 90 754 194 q 414 -14 568 -14 m 416 89 q 627 374 627 89 q 415 656 627 656 q 205 374 205 656 q 416 89 205 89 z "},"п":{"ha":833,"x_min":109,"x_max":725,"o":"m 232 0 l 109 0 l 109 745 l 725 745 l 725 0 l 602 0 l 602 640 l 232 640 l 232 0 z "},"р":{"ha":833,"x_min":107,"x_max":741,"o":"m 231 94 l 222 94 q 231 -16 231 7 l 231 -334 l 107 -334 l 107 745 l 207 745 l 225 644 l 231 644 q 449 758 305 758 q 663 657 585 758 q 741 374 741 555 q 663 89 741 191 q 449 -14 585 -14 q 231 94 309 -14 m 231 401 l 231 374 q 278 154 231 220 q 428 89 325 89 q 612 375 612 89 q 427 656 612 656 q 278 596 323 656 q 231 401 233 536 z "},"с":{"ha":833,"x_min":117,"x_max":720,"o":"m 720 718 l 677 611 q 496 650 576 650 q 244 370 244 650 q 489 94 244 94 q 707 136 595 94 l 707 28 q 484 -14 616 -14 q 213 85 309 -14 q 117 368 117 184 q 215 659 117 559 q 492 758 313 758 q 720 718 612 758 z "},"т":{"ha":833,"x_min":82,"x_max":750,"o":"m 750 640 l 478 640 l 478 0 l 354 0 l 354 640 l 82 640 l 82 745 l 750 745 l 750 640 z "},"у":{"ha":833,"x_min":56,"x_max":777,"o":"m 56 745 l 183 745 l 361 301 q 421 104 416 162 l 425 104 q 486 302 441 180 l 648 745 l 777 745 l 454 -97 q 349 -274 409 -215 q 182 -334 288 -334 q 68 -322 123 -334 l 68 -224 q 160 -232 110 -232 q 261 -204 225 -232 q 326 -109 298 -176 l 366 -7 l 56 745 z "},"ф":{"ha":833,"x_min":50,"x_max":782,"o":"m 471 755 q 782 374 782 722 q 471 -11 782 18 l 471 -334 l 364 -334 l 364 -11 q 50 374 50 20 q 364 755 50 728 l 364 1055 l 471 1055 l 471 755 m 364 92 l 364 653 q 164 374 164 633 q 364 92 164 112 m 471 652 l 471 92 q 668 374 668 114 q 471 652 668 629 z "},"х":{"ha":833,"x_min":65,"x_max":766,"o":"m 346 382 l 79 745 l 220 745 l 416 467 l 614 745 l 754 745 l 486 382 l 766 0 l 627 0 l 416 296 l 205 0 l 65 0 l 346 382 z "},"ц":{"ha":833,"x_min":103,"x_max":800,"o":"m 800 -258 l 681 -258 l 681 0 l 103 0 l 103 745 l 227 745 l 227 104 l 568 104 l 568 745 l 692 745 l 692 104 l 800 104 l 800 -258 z "},"ч":{"ha":833,"x_min":103,"x_max":720,"o":"m 227 745 l 227 467 q 366 349 227 349 q 596 427 481 349 l 596 745 l 720 745 l 720 0 l 596 0 l 596 332 q 338 245 473 245 q 166 305 229 245 q 103 458 103 364 l 103 745 l 227 745 z "},"ш":{"ha":833,"x_min":85,"x_max":750,"o":"m 472 104 l 640 104 l 640 745 l 750 745 l 750 0 l 85 0 l 85 745 l 195 745 l 195 104 l 363 104 l 363 745 l 472 745 l 472 104 z "},"щ":{"ha":833,"x_min":74,"x_max":819,"o":"m 461 104 l 629 104 l 629 745 l 739 745 l 739 104 l 819 104 l 819 -258 l 710 -258 l 710 0 l 74 0 l 74 745 l 183 745 l 183 104 l 351 104 l 351 745 l 461 745 l 461 104 z "},"ъ":{"ha":833,"x_min":29,"x_max":783,"o":"m 397 439 l 501 439 q 783 228 783 439 q 498 0 783 0 l 273 0 l 273 640 l 29 640 l 29 745 l 397 745 l 397 439 m 397 335 l 397 102 l 490 102 q 663 218 663 102 q 623 307 663 279 q 488 335 583 335 l 397 335 z "},"ы":{"ha":833,"x_min":77,"x_max":755,"o":"m 186 439 l 277 439 q 558 228 558 439 q 273 0 558 0 l 77 0 l 77 745 l 186 745 l 186 439 m 186 335 l 186 102 l 279 102 q 452 218 452 102 q 412 307 452 279 q 277 335 372 335 l 186 335 m 755 0 l 646 0 l 646 745 l 755 745 l 755 0 z "},"ь":{"ha":833,"x_min":147,"x_max":741,"o":"m 271 439 l 458 439 q 741 228 741 439 q 456 0 741 0 l 147 0 l 147 745 l 271 745 l 271 439 m 271 335 l 271 102 l 447 102 q 619 218 619 102 q 579 307 619 279 q 444 335 539 335 l 271 335 z "},"э":{"ha":833,"x_min":125,"x_max":720,"o":"m 129 28 l 129 136 q 343 94 239 94 q 593 330 581 94 l 228 330 l 228 435 l 591 435 q 345 650 573 650 q 167 611 271 650 l 125 718 q 350 758 229 758 q 625 659 531 758 q 720 368 720 560 q 623 85 720 184 q 346 -14 526 -14 q 129 28 219 -14 z "},"ю":{"ha":833,"x_min":83,"x_max":790,"o":"m 294 332 l 193 332 l 193 0 l 83 0 l 83 745 l 193 745 l 193 436 l 296 436 q 545 758 319 758 q 725 658 661 758 q 790 374 790 557 q 541 -14 790 -14 q 294 332 313 -14 m 543 89 q 645 155 613 89 q 676 374 676 221 q 645 589 676 522 q 542 656 614 656 q 440 591 471 656 q 408 374 408 526 q 440 156 408 224 q 543 89 471 89 z "},"я":{"ha":833,"x_min":78,"x_max":701,"o":"m 212 0 l 78 0 l 275 313 q 117 526 117 358 q 186 686 117 628 q 372 745 255 745 l 701 745 l 701 0 l 578 0 l 578 293 l 385 293 l 212 0 m 578 397 l 578 640 l 378 640 q 235 524 235 640 q 396 397 235 397 l 578 397 z "},"ё":{"ha":833,"x_min":90,"x_max":743,"o":"m 743 349 l 218 349 q 452 94 224 94 q 703 146 584 94 l 703 37 q 456 -14 590 -14 q 190 88 290 -14 q 90 367 90 189 q 182 653 90 547 q 428 758 274 758 q 657 667 572 758 q 743 425 743 576 l 743 349 m 221 449 l 610 449 q 425 656 610 656 q 221 449 239 656 m 301 1015 q 366 946 366 1015 q 301 876 366 876 q 236 946 236 876 q 301 1015 236 1015 m 555 1015 q 621 946 621 1015 q 555 876 621 876 q 490 946 490 876 q 555 1015 490 1015 z "},"ђ":{"ha":833,"x_min":3,"x_max":725,"o":"m 437 -317 l 437 -216 q 515 -231 474 -231 q 602 -115 602 -231 l 602 452 q 441 628 602 628 q 282 565 332 628 q 232 358 232 501 l 232 0 l 109 0 l 109 839 l 3 839 l 3 932 l 109 932 l 109 1055 l 232 1055 l 232 932 l 489 932 l 489 839 l 232 839 l 232 714 l 227 616 l 233 616 q 460 730 305 730 q 725 458 725 730 l 725 -107 q 528 -334 725 -334 q 437 -317 473 -334 z "},"ѓ":{"ha":833,"x_min":197,"x_max":704,"o":"m 704 640 l 321 640 l 321 0 l 197 0 l 197 745 l 704 745 l 704 640 m 354 860 q 472 1064 418 950 l 621 1064 l 621 1050 q 436 842 545 932 l 354 842 l 354 860 z "},"є":{"ha":833,"x_min":117,"x_max":720,"o":"m 720 718 l 677 611 q 500 650 576 650 q 244 435 264 650 l 608 435 l 608 330 l 243 330 q 493 94 256 94 q 707 136 597 94 l 707 28 q 490 -14 616 -14 q 214 85 311 -14 q 117 368 117 184 q 215 659 117 560 q 496 758 314 758 q 720 718 616 758 z "},"ѕ":{"ha":833,"x_min":138,"x_max":696,"o":"m 138 33 l 138 146 q 389 87 269 87 q 575 197 575 87 q 542 264 575 236 q 389 336 509 293 q 190 445 231 395 q 149 561 149 494 q 224 706 149 653 q 433 758 300 758 q 684 708 568 758 l 643 607 q 427 656 519 656 q 267 566 267 656 q 301 499 267 524 q 458 431 335 475 q 649 328 602 378 q 696 204 696 277 q 616 44 696 102 q 392 -14 537 -14 q 138 33 224 -14 z "},"і":{"ha":833,"x_min":134,"x_max":729,"o":"m 429 1051 q 501 974 501 1051 q 480 915 501 935 q 429 896 458 896 q 357 974 357 896 q 429 1051 357 1051 m 367 647 l 184 661 l 184 745 l 490 745 l 490 97 l 729 83 l 729 0 l 134 0 l 134 83 l 367 97 l 367 647 z "},"ї":{"ha":833,"x_min":134,"x_max":729,"o":"m 367 647 l 184 661 l 184 745 l 490 745 l 490 97 l 729 83 l 729 0 l 134 0 l 134 83 l 367 97 l 367 647 m 289 1015 q 354 946 354 1015 q 289 876 354 876 q 224 946 224 876 q 289 1015 224 1015 m 543 1015 q 608 946 608 1015 q 543 876 608 876 q 478 946 478 876 q 543 1015 478 1015 z "},"ј":{"ha":833,"x_min":92,"x_max":579,"o":"m 504 1051 q 576 974 576 1051 q 504 896 576 896 q 432 974 432 896 q 504 1051 432 1051 m 92 -310 l 92 -205 q 288 -232 182 -232 q 411 -193 367 -232 q 456 -86 456 -155 l 456 647 l 171 661 l 171 745 l 579 745 l 579 -79 q 503 -268 579 -201 q 286 -334 426 -334 q 92 -310 175 -334 z "},"љ":{"ha":833,"x_min":0,"x_max":800,"o":"m 484 439 l 518 439 q 800 228 800 439 q 515 0 800 0 l 374 0 l 374 640 l 248 640 q 208 191 225 319 q 159 27 190 63 q 62 -9 127 -9 q 0 -1 20 -9 l 0 87 q 33 83 15 83 q 78 112 61 83 q 110 270 94 140 q 149 745 125 399 l 484 745 l 484 439 m 484 335 l 484 102 l 521 102 q 693 218 693 102 q 653 307 693 279 q 518 335 613 335 l 484 335 z "},"њ":{"ha":833,"x_min":72,"x_max":811,"o":"m 182 745 l 182 436 l 385 436 l 385 745 l 494 745 l 494 439 l 529 439 q 811 228 811 439 q 526 0 811 0 l 385 0 l 385 332 l 182 332 l 182 0 l 72 0 l 72 745 l 182 745 m 494 335 l 494 102 l 532 102 q 704 218 704 102 q 664 307 704 279 q 529 335 624 335 l 494 335 z "},"ћ":{"ha":833,"x_min":3,"x_max":725,"o":"m 602 0 l 602 452 q 441 628 602 628 q 282 565 332 628 q 232 358 232 501 l 232 0 l 109 0 l 109 839 l 3 839 l 3 932 l 109 932 l 109 1055 l 233 1055 l 233 932 l 517 932 l 517 839 l 232 839 l 232 714 l 225 616 l 232 616 q 467 730 305 730 q 661 666 597 730 q 725 458 725 601 l 725 0 l 602 0 z "},"ќ":{"ha":833,"x_min":146,"x_max":789,"o":"m 260 345 l 353 457 l 625 745 l 770 745 l 435 399 l 789 0 l 644 0 l 355 318 l 268 262 l 268 0 l 146 0 l 146 745 l 268 745 l 268 547 l 257 345 l 260 345 m 345 860 q 463 1064 408 950 l 611 1064 l 611 1050 q 427 842 535 932 l 345 842 l 345 860 z "},"ў":{"ha":833,"x_min":56,"x_max":777,"o":"m 56 745 l 183 745 l 361 301 q 421 104 416 162 l 425 104 q 486 302 441 180 l 648 745 l 777 745 l 454 -97 q 349 -274 409 -215 q 182 -334 288 -334 q 68 -322 123 -334 l 68 -224 q 160 -232 110 -232 q 261 -204 225 -232 q 326 -109 298 -176 l 366 -7 l 56 745 m 683 1057 q 419 842 669 842 q 229 892 287 842 q 163 1057 170 942 l 279 1057 q 313 959 284 988 q 422 930 341 930 q 565 1057 553 930 l 683 1057 z "},"џ":{"ha":833,"x_min":109,"x_max":725,"o":"m 232 104 l 602 104 l 602 745 l 725 745 l 725 0 l 485 0 l 485 -258 l 361 -258 l 361 0 l 109 0 l 109 745 l 232 745 l 232 104 z "},"Ґ":{"ha":833,"x_min":167,"x_max":718,"o":"m 599 991 l 599 1196 l 718 1196 l 718 879 l 293 879 l 293 0 l 167 0 l 167 991 l 599 991 z "},"ґ":{"ha":833,"x_min":197,"x_max":690,"o":"m 690 652 l 321 652 l 321 0 l 197 0 l 197 745 l 567 745 l 567 961 l 690 961 l 690 652 z "},"Ẁ":{"ha":833,"x_min":1,"x_max":832,"o":"m 358 684 l 478 684 l 576 330 q 625 122 618 182 q 669 542 627 158 l 717 991 l 832 991 l 705 0 l 576 0 l 463 393 q 418 585 435 487 q 374 392 396 467 l 268 0 l 139 0 l 1 991 l 117 991 l 176 542 q 203 286 192 422 q 215 122 215 149 q 262 334 231 224 l 358 684 m 495 1071 l 413 1071 q 229 1279 300 1167 l 229 1293 l 377 1293 q 495 1089 435 1173 l 495 1071 z "},"ẁ":{"ha":833,"x_min":-3,"x_max":836,"o":"m 551 0 l 463 404 l 416 628 l 412 628 l 368 401 l 277 0 l 149 0 l -3 745 l 107 745 l 174 376 q 212 110 197 250 l 216 110 q 262 353 237 235 l 353 745 l 484 745 l 570 353 q 615 110 599 220 l 619 110 q 660 376 640 274 l 729 745 l 836 745 l 684 0 l 551 0 m 473 842 l 391 842 q 206 1050 278 938 l 206 1064 l 355 1064 q 473 860 413 943 l 473 842 z "},"Ẃ":{"ha":833,"x_min":1,"x_max":832,"o":"m 358 684 l 478 684 l 576 330 q 625 122 618 182 q 669 542 627 158 l 717 991 l 832 991 l 705 0 l 576 0 l 463 393 q 418 585 435 487 q 374 392 396 467 l 268 0 l 139 0 l 1 991 l 117 991 l 176 542 q 203 286 192 422 q 215 122 215 149 q 262 334 231 224 l 358 684 m 339 1089 q 457 1293 403 1179 l 606 1293 l 606 1279 q 421 1071 530 1162 l 339 1071 l 339 1089 z "},"ẃ":{"ha":833,"x_min":-3,"x_max":836,"o":"m 551 0 l 463 404 l 416 628 l 412 628 l 368 401 l 277 0 l 149 0 l -3 745 l 107 745 l 174 376 q 212 110 197 250 l 216 110 q 262 353 237 235 l 353 745 l 484 745 l 570 353 q 615 110 599 220 l 619 110 q 660 376 640 274 l 729 745 l 836 745 l 684 0 l 551 0 m 354 860 q 472 1064 418 950 l 621 1064 l 621 1050 q 436 842 545 932 l 354 842 l 354 860 z "},"Ẅ":{"ha":833,"x_min":1,"x_max":832,"o":"m 358 684 l 478 684 l 576 330 q 625 122 618 182 q 669 542 627 158 l 717 991 l 832 991 l 705 0 l 576 0 l 463 393 q 418 585 435 487 q 374 392 396 467 l 268 0 l 139 0 l 1 991 l 117 991 l 176 542 q 203 286 192 422 q 215 122 215 149 q 262 334 231 224 l 358 684 m 292 1244 q 357 1175 357 1244 q 292 1105 357 1105 q 227 1175 227 1105 q 292 1244 227 1244 m 546 1244 q 611 1175 611 1244 q 546 1105 611 1105 q 481 1175 481 1105 q 546 1244 481 1244 z "},"ẅ":{"ha":833,"x_min":-3,"x_max":836,"o":"m 551 0 l 463 404 l 416 628 l 412 628 l 368 401 l 277 0 l 149 0 l -3 745 l 107 745 l 174 376 q 212 110 197 250 l 216 110 q 262 353 237 235 l 353 745 l 484 745 l 570 353 q 615 110 599 220 l 619 110 q 660 376 640 274 l 729 745 l 836 745 l 684 0 l 551 0 m 288 1015 q 353 946 353 1015 q 288 876 353 876 q 223 946 223 876 q 288 1015 223 1015 m 543 1015 q 608 946 608 1015 q 543 876 608 876 q 477 946 477 876 q 543 1015 477 1015 z "},"Ỳ":{"ha":833,"x_min":22,"x_max":810,"o":"m 415 490 l 673 991 l 810 991 l 479 386 l 479 0 l 353 0 l 353 379 l 22 991 l 160 991 l 415 490 m 473 1071 l 391 1071 q 206 1279 278 1167 l 206 1293 l 355 1293 q 473 1089 413 1173 l 473 1071 z "},"ỳ":{"ha":833,"x_min":56,"x_max":777,"o":"m 56 745 l 183 745 l 361 301 q 421 104 416 162 l 425 104 q 486 302 441 180 l 648 745 l 777 745 l 454 -97 q 349 -274 409 -215 q 182 -334 288 -334 q 68 -322 123 -334 l 68 -224 q 160 -232 110 -232 q 261 -204 225 -232 q 326 -109 298 -176 l 366 -7 l 56 745 m 479 842 l 397 842 q 212 1050 284 938 l 212 1064 l 361 1064 q 479 860 419 943 l 479 842 z "},"–":{"ha":833,"x_min":125,"x_max":708,"o":"m 125 315 l 125 429 l 708 429 l 708 315 l 125 315 z "},"—":{"ha":833,"x_min":-4,"x_max":838,"o":"m -4 315 l -4 429 l 838 429 l 838 315 l -4 315 z "},"―":{"ha":833,"x_min":-4,"x_max":838,"o":"m -4 315 l -4 429 l 838 429 l 838 315 l -4 315 z "},"‗":{"ha":833,"x_min":-14,"x_max":847,"o":"m 847 -125 l -14 -125 l -14 -31 l 847 -31 l 847 -125 m 847 -314 l -14 -314 l -14 -220 l 847 -220 l 847 -314 z "},"‘":{"ha":833,"x_min":302,"x_max":529,"o":"m 313 652 l 302 667 q 422 991 339 806 l 529 991 q 461 652 487 819 l 313 652 z "},"’":{"ha":833,"x_min":302,"x_max":529,"o":"m 519 991 l 529 977 q 410 652 492 832 l 302 652 q 371 991 347 832 l 519 991 z "},"‚":{"ha":833,"x_min":310,"x_max":522,"o":"m 513 161 l 522 146 q 403 -179 485 1 l 310 -179 q 378 161 358 19 l 513 161 z "},"‛":{"ha":833,"x_min":302,"x_max":529,"o":"m 461 991 q 529 652 488 816 l 422 652 q 302 977 338 838 l 313 991 l 461 991 z "},"“":{"ha":833,"x_min":158,"x_max":673,"o":"m 457 652 l 447 667 q 567 991 484 806 l 673 991 q 606 652 631 819 l 457 652 m 168 652 l 158 667 q 278 991 195 806 l 385 991 q 317 652 342 819 l 168 652 z "},"”":{"ha":833,"x_min":158,"x_max":673,"o":"m 375 991 l 385 977 q 265 652 347 832 l 158 652 q 227 991 202 832 l 375 991 m 664 991 l 673 977 q 554 652 636 832 l 447 652 q 515 991 491 832 l 664 991 z "},"„":{"ha":833,"x_min":165,"x_max":667,"o":"m 368 161 l 378 146 q 258 -179 340 1 l 165 -179 q 233 161 214 19 l 368 161 m 657 161 l 667 146 q 547 -179 632 12 l 454 -179 q 522 161 503 19 l 657 161 z "},"†":{"ha":833,"x_min":163,"x_max":671,"o":"m 671 671 l 446 692 l 484 0 l 336 0 l 374 692 l 163 671 l 163 793 l 374 772 l 336 1055 l 484 1055 l 446 772 l 671 793 l 671 671 z "},"‡":{"ha":833,"x_min":155,"x_max":677,"o":"m 453 336 l 677 357 l 677 235 l 453 256 l 490 0 l 343 0 l 380 256 l 155 235 l 155 357 l 380 336 l 349 533 l 380 720 l 155 699 l 155 821 l 380 800 l 343 1055 l 490 1055 l 453 800 l 677 821 l 677 699 l 453 720 l 485 533 l 453 336 z "},"•":{"ha":833,"x_min":257,"x_max":576,"o":"m 416 685 q 576 507 576 685 q 533 375 576 420 q 416 329 490 329 q 299 374 341 329 q 257 507 257 420 q 416 685 257 685 z "},"…":{"ha":833,"x_min":53,"x_max":781,"o":"m 139 170 q 225 75 225 170 q 139 -20 225 -20 q 53 75 53 -20 q 139 170 53 170 m 416 170 q 503 75 503 170 q 416 -20 503 -20 q 330 75 330 -20 q 416 170 330 170 m 694 170 q 781 75 781 170 q 694 -20 781 -20 q 608 75 608 -20 q 694 170 608 170 z "},"‰":{"ha":833,"x_min":3,"x_max":819,"o":"m 176 583 q 56 638 99 583 q 14 794 14 694 q 179 1004 14 1004 q 299 950 256 1004 q 342 794 342 895 q 176 583 342 583 m 178 656 q 235 690 220 656 q 249 794 249 724 q 233 902 249 873 q 178 930 217 930 q 122 900 138 930 q 106 794 106 870 q 120 690 106 724 q 178 656 135 656 m 504 572 l 31 378 l 3 444 l 476 640 l 504 572 m 294 0 q 175 55 217 0 q 132 211 132 111 q 297 421 132 421 q 417 367 374 421 q 460 211 460 312 q 294 0 460 0 m 296 72 q 353 106 338 72 q 367 211 367 140 q 351 318 367 290 q 296 347 335 347 q 240 317 256 347 q 224 211 224 287 q 238 106 224 140 q 296 72 253 72 m 654 0 q 534 55 576 0 q 492 211 492 111 q 657 421 492 421 q 776 366 733 421 q 819 211 819 311 q 654 0 819 0 m 656 72 q 712 106 699 72 q 726 211 726 140 q 711 318 726 288 q 656 347 696 347 q 599 317 615 347 q 583 211 583 288 q 598 106 583 140 q 656 72 613 72 z "},"′":{"ha":833,"x_min":336,"x_max":497,"o":"m 497 991 l 469 633 l 364 633 l 336 991 l 497 991 z "},"″":{"ha":833,"x_min":193,"x_max":640,"o":"m 354 991 l 326 633 l 221 633 l 193 991 l 354 991 m 640 991 l 612 633 l 507 633 l 479 991 l 640 991 z "},"‹":{"ha":833,"x_min":272,"x_max":561,"o":"m 272 375 l 482 656 l 561 603 l 400 367 l 561 131 l 482 78 l 272 357 l 272 375 z "},"›":{"ha":833,"x_min":272,"x_max":561,"o":"m 561 357 l 351 78 l 272 131 l 433 367 l 272 603 l 351 656 l 561 375 l 561 357 z "},"‼":{"ha":833,"x_min":173,"x_max":659,"o":"m 615 281 l 533 281 l 498 991 l 650 991 l 615 281 m 573 170 q 659 75 659 170 q 573 -20 659 -20 q 487 75 487 -20 q 573 170 487 170 m 301 281 l 219 281 l 184 991 l 336 991 l 301 281 m 259 170 q 345 75 345 170 q 259 -20 345 -20 q 173 75 173 -20 q 259 170 173 170 z "},"⁄":{"ha":833,"x_min":115,"x_max":717,"o":"m 717 991 l 222 0 l 115 0 l 610 991 l 717 991 z "},"ⁿ":{"ha":833,"x_min":215,"x_max":618,"o":"m 518 541 l 518 821 q 432 922 518 922 q 340 886 364 922 q 315 770 315 850 l 315 541 l 215 541 l 215 991 l 300 991 l 311 921 l 317 921 q 457 1003 363 1003 q 575 959 532 1003 q 618 833 618 915 l 618 541 l 518 541 z "},"₣":{"ha":833,"x_min":87,"x_max":717,"o":"m 328 271 l 526 271 l 526 178 l 328 178 l 328 0 l 207 0 l 207 178 l 87 178 l 87 271 l 207 271 l 207 991 l 717 991 l 717 880 l 328 880 l 328 530 l 690 530 l 690 419 l 328 419 l 328 271 z "},"₤":{"ha":833,"x_min":81,"x_max":753,"o":"m 721 950 l 676 852 q 492 901 581 901 q 340 734 340 901 l 340 604 l 596 604 l 596 511 l 340 511 l 340 404 l 596 404 l 596 311 l 340 311 l 340 298 q 245 113 340 165 l 753 113 l 753 0 l 81 0 l 81 104 q 216 297 216 138 l 216 311 l 82 311 l 82 404 l 216 404 l 216 511 l 82 511 l 82 604 l 216 604 l 216 754 q 290 936 216 868 q 486 1004 363 1004 q 721 950 616 1004 z "},"₧":{"ha":833,"x_min":56,"x_max":807,"o":"m 163 386 l 163 0 l 56 0 l 56 991 l 195 991 q 500 701 500 991 q 422 469 500 551 q 191 386 344 386 l 163 386 m 163 485 l 191 485 q 389 694 389 485 q 207 892 389 892 l 163 892 l 163 485 m 807 93 l 807 8 q 694 -14 764 -14 q 545 178 545 -14 l 545 419 l 467 419 l 467 467 l 545 501 l 589 647 l 647 647 l 647 504 l 789 504 l 789 419 l 647 419 l 647 183 q 724 79 647 79 q 807 93 766 79 z "},"€":{"ha":833,"x_min":65,"x_max":766,"o":"m 300 633 l 593 633 l 593 541 l 290 541 q 290 521 290 530 l 289 504 l 289 462 q 290 433 289 448 l 551 433 l 551 340 l 302 340 q 553 97 352 97 q 734 136 645 97 l 734 26 q 543 -14 652 -14 q 176 340 240 -14 l 65 340 l 65 433 l 165 433 l 164 459 l 165 541 l 65 541 l 65 633 l 174 633 q 295 908 200 811 q 539 1006 391 1006 q 766 943 669 1006 l 713 844 q 549 895 630 895 q 391 827 456 895 q 300 633 325 760 z "},"℅":{"ha":833,"x_min":5,"x_max":829,"o":"m 361 974 l 339 901 q 237 924 283 924 q 103 765 103 924 q 235 610 103 610 q 354 632 304 610 l 354 559 q 231 534 304 534 q 65 594 125 534 q 5 764 5 653 q 66 939 5 880 q 237 999 127 999 q 361 974 304 999 m 707 991 l 212 0 l 106 0 l 600 991 l 707 991 m 623 -5 q 475 57 533 -5 q 418 227 418 120 q 474 397 418 336 q 625 458 530 458 q 772 395 714 458 q 829 227 829 332 q 774 57 829 119 q 623 -5 718 -5 m 624 68 q 729 227 729 68 q 624 383 729 383 q 517 227 517 383 q 624 68 517 68 z "},"ℓ":{"ha":833,"x_min":154,"x_max":677,"o":"m 600 225 l 677 225 q 484 -14 665 -14 q 337 48 389 -14 q 285 228 285 111 l 285 385 q 154 346 227 363 l 154 428 q 285 468 203 441 l 285 803 q 331 952 285 898 q 468 1006 378 1006 q 585 950 543 1006 q 628 802 628 894 q 397 435 628 561 l 397 231 q 496 81 397 81 q 600 225 593 81 m 397 522 q 538 798 538 604 q 468 925 538 925 q 415 898 432 925 q 397 798 397 870 l 397 522 z "},"№":{"ha":833,"x_min":17,"x_max":819,"o":"m 440 0 l 322 0 l 102 793 l 96 793 q 109 510 109 621 l 109 0 l 17 0 l 17 991 l 136 991 l 355 203 l 359 203 q 350 476 350 408 l 350 991 l 440 991 l 440 0 m 647 186 q 524 249 570 186 q 478 422 478 313 q 650 657 478 657 q 773 595 727 657 q 819 422 819 533 q 774 247 819 309 q 647 186 730 186 m 648 268 q 707 307 691 268 q 724 422 724 346 q 707 537 724 500 q 648 574 691 574 q 589 536 605 574 q 572 422 572 499 q 589 307 572 347 q 648 268 605 268 m 505 0 l 505 100 l 786 100 l 786 0 l 505 0 z "},"™":{"ha":833,"x_min":0,"x_max":800,"o":"m 205 503 l 119 503 l 119 918 l 0 918 l 0 991 l 326 991 l 326 918 l 205 918 l 205 503 m 541 503 l 441 875 l 433 875 l 440 753 l 440 503 l 357 503 l 357 991 l 484 991 l 578 629 l 679 991 l 800 991 l 800 503 l 714 503 l 714 734 q 721 875 714 793 l 713 875 l 608 503 l 541 503 z "},"Ω":{"ha":833,"x_min":50,"x_max":786,"o":"m 367 100 l 367 0 l 50 0 l 50 111 l 231 111 q 58 559 58 271 q 153 889 58 771 q 418 1007 248 1007 q 683 889 587 1007 q 778 559 778 771 q 604 111 778 269 l 786 111 l 786 0 l 468 0 l 468 100 q 644 557 644 256 q 416 896 644 896 q 189 557 189 896 q 367 100 189 256 z "},"℮":{"ha":833,"x_min":56,"x_max":775,"o":"m 775 359 l 214 359 l 214 118 q 415 35 297 35 q 684 193 587 35 l 732 165 q 592 18 666 60 q 415 -24 517 -24 q 154 86 252 -24 q 56 359 56 196 q 160 640 56 536 q 415 743 264 743 q 673 638 572 743 q 775 363 775 533 l 775 359 m 618 418 l 618 606 q 414 686 536 686 q 214 607 298 686 l 214 418 l 618 418 z "},"⅛":{"ha":833,"x_min":12,"x_max":818,"o":"m 161 990 l 252 990 l 252 456 l 153 456 l 153 771 q 159 907 153 818 q 109 863 132 877 l 62 828 l 12 888 l 161 990 m 679 991 l 184 0 l 77 0 l 572 991 l 679 991 m 705 288 q 818 148 818 231 q 766 36 818 78 q 631 -7 715 -7 q 489 33 538 -7 q 439 144 439 73 q 533 282 439 232 q 456 413 456 336 q 505 512 456 475 q 629 549 553 549 q 752 513 705 549 q 800 413 800 476 q 705 288 800 334 m 629 321 q 701 412 701 355 q 628 477 701 477 q 555 412 555 477 q 629 321 555 357 m 618 248 q 538 144 538 205 q 627 64 538 64 q 718 144 718 64 q 627 243 718 204 l 618 248 z "},"⅜":{"ha":833,"x_min":7,"x_max":831,"o":"m 230 736 q 349 610 349 709 q 299 488 349 531 q 153 444 248 444 q 7 478 64 444 l 7 562 q 145 518 82 518 q 246 611 246 518 q 146 696 246 696 l 98 696 l 98 766 l 145 766 q 229 852 229 766 q 163 928 229 928 q 54 880 115 928 l 9 939 q 170 1002 84 1002 q 288 965 244 1002 q 331 864 331 928 q 230 736 331 770 m 705 991 l 211 0 l 104 0 l 598 991 l 705 991 m 719 288 q 831 148 831 231 q 780 36 831 78 q 644 -7 728 -7 q 502 33 552 -7 q 452 144 452 73 q 547 282 452 232 q 469 413 469 336 q 518 512 469 475 q 643 549 567 549 q 766 513 718 549 q 814 413 814 476 q 719 288 814 334 m 643 321 q 715 412 715 355 q 642 477 715 477 q 569 412 569 477 q 643 321 569 357 m 631 248 q 551 144 551 205 q 640 64 551 64 q 732 144 732 64 q 640 243 732 204 l 631 248 z "},"⅝":{"ha":833,"x_min":16,"x_max":831,"o":"m 16 478 l 16 566 q 157 519 85 519 q 267 619 267 519 q 154 718 267 718 q 69 707 119 718 l 27 733 l 48 991 l 317 991 l 317 917 l 122 917 l 111 786 q 176 790 134 790 q 306 746 256 790 q 355 628 355 702 q 304 494 355 542 q 155 446 254 446 q 16 478 71 446 m 705 991 l 211 0 l 104 0 l 598 991 l 705 991 m 719 288 q 831 148 831 231 q 780 36 831 78 q 644 -7 728 -7 q 502 33 552 -7 q 452 144 452 73 q 547 282 452 232 q 469 413 469 336 q 518 512 469 475 q 643 549 567 549 q 766 513 718 549 q 814 413 814 476 q 719 288 814 334 m 643 321 q 715 412 715 355 q 642 477 715 477 q 569 412 569 477 q 643 321 569 357 m 631 248 q 551 144 551 205 q 640 64 551 64 q 732 144 732 64 q 640 243 732 204 l 631 248 z "},"⅞":{"ha":833,"x_min":19,"x_max":831,"o":"m 76 456 l 286 909 l 19 909 l 19 991 l 391 991 l 391 924 l 181 456 l 76 456 m 662 991 l 168 0 l 60 0 l 555 991 l 662 991 m 719 288 q 831 148 831 231 q 780 36 831 78 q 644 -7 728 -7 q 502 33 552 -7 q 452 144 452 73 q 547 282 452 232 q 469 413 469 336 q 518 512 469 475 q 643 549 567 549 q 766 513 718 549 q 814 413 814 476 q 719 288 814 334 m 643 321 q 715 412 715 355 q 642 477 715 477 q 569 412 569 477 q 643 321 569 357 m 631 248 q 551 144 551 205 q 640 64 551 64 q 732 144 732 64 q 640 243 732 204 l 631 248 z "},"∂":{"ha":833,"x_min":82,"x_max":750,"o":"m 627 585 l 628 612 q 589 817 634 734 q 440 899 544 899 q 265 842 351 899 l 265 960 q 457 1002 356 1002 q 750 633 750 1002 q 636 178 750 370 q 328 -14 522 -14 q 82 254 82 -14 q 176 554 82 423 q 435 685 269 685 q 627 585 559 685 m 604 461 q 546 554 589 519 q 452 590 503 590 q 276 481 343 590 q 210 250 210 373 q 336 90 210 90 q 504 194 430 90 q 604 461 578 298 z "},"∆":{"ha":833,"x_min":50,"x_max":783,"o":"m 50 77 l 353 991 l 479 991 l 783 75 l 783 0 l 50 0 l 50 77 m 478 625 q 415 856 438 749 q 355 629 385 720 l 186 111 l 646 111 l 478 625 z "},"∏":{"ha":833,"x_min":106,"x_max":754,"o":"m 628 -334 l 628 879 l 232 879 l 232 -334 l 106 -334 l 106 991 l 754 991 l 754 -334 l 628 -334 z "},"∑":{"ha":833,"x_min":50,"x_max":793,"o":"m 50 -334 l 50 -256 l 446 364 l 61 914 l 61 991 l 749 991 l 749 880 l 237 880 l 596 366 l 220 -222 l 793 -222 l 793 -334 l 50 -334 z "},"−":{"ha":833,"x_min":103,"x_max":729,"o":"m 103 439 l 103 541 l 729 541 l 729 439 l 103 439 z "},"√":{"ha":833,"x_min":16,"x_max":818,"o":"m 415 -9 l 325 -9 l 138 518 l 16 518 l 16 615 l 216 615 l 372 165 l 720 1150 l 818 1150 l 415 -9 z "},"∞":{"ha":833,"x_min":47,"x_max":785,"o":"m 414 421 q 229 277 334 277 q 98 336 149 277 q 47 490 47 395 q 98 643 47 581 q 229 704 149 704 q 415 555 342 704 q 606 700 494 700 q 735 642 686 700 q 785 486 785 583 q 733 335 785 397 q 606 272 682 272 q 414 421 490 272 m 367 490 q 237 615 311 615 q 166 579 193 615 q 139 489 139 543 q 166 400 139 434 q 239 366 193 366 q 367 490 309 366 m 464 486 q 595 361 522 361 q 666 398 639 361 q 693 488 693 435 q 665 576 693 541 q 593 611 636 611 q 464 486 523 611 z "},"∫":{"ha":833,"x_min":160,"x_max":673,"o":"m 673 1043 l 673 943 q 596 961 635 961 q 479 803 479 961 l 479 -93 q 419 -272 479 -211 q 250 -334 359 -334 q 160 -321 197 -334 l 160 -221 q 239 -237 201 -237 q 361 -79 361 -237 l 361 815 q 585 1055 361 1055 q 673 1043 644 1055 z "},"≈":{"ha":833,"x_min":103,"x_max":729,"o":"m 103 534 l 103 644 q 271 718 170 718 q 439 675 337 718 q 575 637 525 637 q 729 720 649 637 l 729 610 q 561 536 663 536 q 393 579 493 536 q 257 616 307 616 q 103 534 181 616 m 103 257 l 103 367 q 271 440 170 440 q 439 397 338 440 q 575 359 527 359 q 729 441 648 359 l 729 332 q 561 258 662 258 q 393 301 493 258 q 257 339 304 339 q 103 257 184 339 z "},"≠":{"ha":833,"x_min":103,"x_max":729,"o":"m 271 300 l 103 300 l 103 401 l 318 401 l 400 578 l 103 578 l 103 679 l 447 679 l 538 871 l 631 831 l 559 679 l 729 679 l 729 578 l 513 578 l 429 401 l 729 401 l 729 300 l 382 300 l 294 111 l 201 150 l 271 300 z "},"≤":{"ha":833,"x_min":103,"x_max":729,"o":"m 729 150 l 103 456 l 103 525 l 729 831 l 729 722 l 244 490 l 729 258 l 729 150 m 103 0 l 103 102 l 729 102 l 729 0 l 103 0 z "},"≥":{"ha":833,"x_min":103,"x_max":729,"o":"m 103 258 l 587 490 l 103 722 l 103 831 l 729 525 l 729 456 l 103 150 l 103 258 m 103 0 l 103 102 l 729 102 l 729 0 l 103 0 z "},"◊":{"ha":833,"x_min":85,"x_max":749,"o":"m 749 500 l 441 0 l 390 0 l 85 498 l 390 1000 l 441 1000 l 749 500 m 624 500 l 416 847 l 210 500 l 416 151 l 624 500 z "},"ﬁ":{"ha":833,"x_min":33,"x_max":724,"o":"m 456 652 l 289 652 l 289 0 l 165 0 l 165 652 l 33 652 l 33 703 l 165 749 l 165 814 q 217 1003 165 943 q 390 1063 269 1063 q 524 1038 456 1063 l 492 942 q 395 961 438 961 q 311 927 332 961 q 289 815 289 892 l 289 745 l 456 745 l 456 652 m 652 1023 q 724 946 724 1023 q 702 887 724 907 q 652 868 681 868 q 579 946 579 868 q 652 1023 579 1023 m 713 0 l 589 0 l 589 745 l 713 745 l 713 0 z "},"ﬂ":{"ha":833,"x_min":33,"x_max":713,"o":"m 456 652 l 289 652 l 289 0 l 165 0 l 165 652 l 33 652 l 33 703 l 165 749 l 165 814 q 217 1003 165 943 q 390 1063 269 1063 q 524 1038 456 1063 l 492 942 q 395 961 438 961 q 311 927 332 961 q 289 815 289 892 l 289 745 l 456 745 l 456 652 m 713 0 l 589 0 l 589 1055 l 713 1055 l 713 0 z "}," ":{"ha":833,"x_min":0,"x_max":0,"o":""}," ":{"ha":833,"x_min":0,"x_max":0,"o":""}," ":{"ha":833,"x_min":0,"x_max":0,"o":""}," ":{"ha":833,"x_min":0,"x_max":0,"o":""}," ":{"ha":833,"x_min":0,"x_max":0,"o":""}," ":{"ha":833,"x_min":0,"x_max":0,"o":""}," ":{"ha":833,"x_min":0,"x_max":0,"o":""}," ":{"ha":833,"x_min":0,"x_max":0,"o":""}," ":{"ha":833,"x_min":0,"x_max":0,"o":""}," ":{"ha":833,"x_min":0,"x_max":0,"o":""}," ":{"ha":833,"x_min":0,"x_max":0,"o":""},"​":{"ha":833,"x_min":0,"x_max":0,"o":""},"﻿":{"ha":833,"x_min":0,"x_max":0,"o":""},"￼":{"ha":833,"x_min":37,"x_max":796,"o":"m 456 734 q 447 668 456 698 q 421 616 439 638 q 377 583 404 595 q 314 571 351 571 q 251 583 277 571 q 207 616 224 595 q 181 668 189 638 q 172 734 172 698 q 181 802 172 772 q 207 853 189 832 q 251 887 224 875 q 314 899 277 899 q 377 887 351 899 q 421 853 404 875 q 447 802 439 832 q 456 734 456 772 m 363 539 l 456 539 q 545 521 515 539 q 575 458 575 503 q 563 413 575 431 q 526 390 550 395 l 526 387 q 549 380 538 385 q 567 367 559 376 q 580 346 575 359 q 585 314 585 333 q 555 245 585 270 q 475 221 526 221 l 363 221 l 363 539 m 514 186 l 694 186 l 694 134 l 646 134 l 646 -31 q 616 -111 646 -85 q 539 -136 586 -136 q 504 -135 518 -136 q 481 -131 489 -133 l 481 -75 q 502 -78 489 -77 q 532 -79 515 -79 q 565 -70 551 -79 q 578 -32 578 -60 l 578 134 l 514 134 l 514 186 m 240 734 q 258 656 240 684 q 314 628 276 628 q 370 656 353 628 q 387 734 387 684 q 370 813 387 785 q 314 842 353 842 q 258 813 276 842 q 240 734 240 785 m 37 823 l 37 1029 l 243 1029 l 243 954 l 113 954 l 113 823 l 37 823 m 37 -260 l 37 -54 l 113 -54 l 113 -186 l 243 -186 l 243 -260 l 37 -260 m 590 954 l 590 1029 l 796 1029 l 796 823 l 722 823 l 722 954 l 590 954 m 590 -260 l 590 -186 l 722 -186 l 722 -54 l 796 -54 l 796 -260 l 590 -260 m 113 292 l 37 292 l 37 476 l 113 476 l 113 292 m 325 954 l 325 1029 l 509 1029 l 509 954 l 325 954 m 113 26 l 37 26 l 37 210 l 113 210 l 113 26 m 113 558 l 37 558 l 37 742 l 113 742 l 113 558 m 796 292 l 722 292 l 722 476 l 796 476 l 796 292 m 796 26 l 722 26 l 722 210 l 796 210 l 796 26 m 796 558 l 722 558 l 722 742 l 796 742 l 796 558 m 325 -260 l 325 -186 l 509 -186 l 509 -260 l 325 -260 m 429 359 l 429 277 l 469 277 q 505 288 495 277 q 515 321 515 300 q 505 349 515 338 q 467 359 495 359 l 429 359 m 429 414 l 464 414 q 499 423 489 414 q 509 449 509 432 q 497 475 509 467 q 461 484 486 484 l 429 484 l 429 414 z "},"�":{"ha":833,"x_min":3,"x_max":832,"o":"m 416 1055 l 832 419 l 416 -216 l 3 419 l 416 1055 m 453 261 l 453 290 q 455 317 453 306 q 465 340 458 329 q 483 363 471 351 q 514 390 495 374 q 556 432 538 412 q 586 472 574 451 q 604 517 597 493 q 610 572 610 541 q 558 703 610 656 q 415 749 507 749 q 367 744 391 749 q 319 731 342 739 q 273 711 295 722 q 232 688 251 700 l 277 579 q 349 614 314 600 q 414 628 383 628 q 467 610 450 628 q 484 564 484 592 q 480 532 484 546 q 468 507 476 519 q 447 482 460 494 q 415 453 434 469 q 379 417 394 434 q 356 381 365 399 q 342 343 347 363 q 338 298 338 323 l 338 261 l 453 261 m 323 94 q 346 31 323 50 q 401 11 368 11 q 430 16 416 11 q 454 31 444 20 q 472 57 465 41 q 478 94 478 73 q 472 133 478 117 q 454 159 465 149 q 430 173 444 169 q 401 178 416 178 q 346 159 368 178 q 323 94 323 140 z "},"ǰ":{"ha":833,"x_min":92,"x_max":635,"o":"m 92 -310 l 92 -205 q 288 -232 182 -232 q 411 -193 367 -232 q 456 -86 456 -155 l 456 647 l 171 661 l 171 745 l 579 745 l 579 -79 q 503 -268 579 -201 q 286 -334 426 -334 q 92 -310 175 -334 m 635 1046 q 595 1000 618 1026 q 476 842 500 893 l 345 842 q 226 1000 321 893 l 186 1046 l 186 1064 l 267 1064 q 410 937 323 1027 q 553 1064 493 1024 l 635 1064 l 635 1046 z "},"ʼ":{"ha":833,"x_min":302,"x_max":529,"o":"m 519 991 l 529 977 q 410 652 492 832 l 302 652 q 371 991 347 832 l 519 991 z "},"ϑ":{"ha":833,"x_min":7,"x_max":815,"o":"m 593 663 q 565 793 584 736 q 519 890 545 851 q 462 950 493 930 q 399 971 431 971 q 318 941 347 971 q 289 863 289 911 q 304 789 289 825 q 356 726 320 753 q 450 681 392 698 q 593 663 508 663 m 722 570 q 724 535 724 555 q 725 494 725 515 q 703 294 725 387 q 638 133 682 201 q 528 25 594 64 q 372 -14 461 -14 q 248 5 297 -14 q 169 56 198 24 q 128 131 140 88 q 117 220 117 173 q 120 278 117 247 q 127 340 123 310 q 134 396 131 370 q 138 437 138 421 q 127 479 138 468 q 96 490 117 490 q 61 485 79 490 q 32 473 43 480 l 7 559 q 66 580 32 571 q 136 589 100 589 q 194 579 170 589 q 232 553 217 570 q 253 513 247 536 q 260 463 260 490 q 256 410 260 439 q 249 349 253 380 q 242 284 245 317 q 239 221 239 252 q 246 168 239 193 q 269 124 253 142 q 312 95 286 106 q 378 85 338 85 q 545 189 489 85 q 600 498 600 292 q 600 535 600 514 q 597 570 599 556 q 397 596 479 571 q 264 663 315 622 q 191 755 214 703 q 168 863 168 808 q 181 946 168 908 q 222 1012 195 984 q 293 1055 250 1040 q 396 1071 336 1071 q 521 1042 467 1071 q 615 961 576 1014 q 681 832 655 908 q 718 663 706 757 l 815 663 l 815 570 l 722 570 z "},"ϒ":{"ha":833,"x_min":21,"x_max":819,"o":"m 415 496 q 457 604 432 547 q 509 715 483 661 q 561 815 536 769 q 602 892 585 862 q 632 940 616 919 q 666 974 648 960 q 706 994 684 987 q 755 1000 728 1000 q 793 997 779 1000 q 819 989 808 994 l 819 890 q 800 894 811 892 q 781 896 789 896 q 741 880 762 896 q 696 823 720 864 q 672 781 688 809 q 636 715 656 753 q 594 634 616 678 q 550 545 572 591 q 510 453 529 498 q 478 367 491 408 l 478 0 l 351 0 l 351 379 l 21 991 l 158 991 l 415 496 z "},"ϖ":{"ha":833,"x_min":12,"x_max":817,"o":"m 257 -14 q 166 9 203 -14 q 105 76 129 33 q 72 181 82 119 q 61 319 61 242 q 64 404 61 365 q 75 481 68 444 q 95 557 83 518 q 123 640 106 595 l 12 640 l 12 690 l 103 745 l 817 745 l 817 640 l 711 640 q 740 557 728 595 q 759 481 751 518 q 770 404 767 444 q 774 319 774 365 q 763 181 774 242 q 729 76 753 119 q 669 9 706 33 q 578 -14 631 -14 q 476 16 514 -14 q 421 107 439 45 l 414 107 q 358 16 396 45 q 257 -14 321 -14 m 661 319 q 658 400 661 361 q 647 477 654 439 q 627 555 639 515 q 599 640 615 595 l 236 640 q 207 555 219 595 q 188 477 195 515 q 177 400 180 439 q 174 319 174 361 q 179 214 174 258 q 196 142 184 170 q 226 102 208 115 q 268 89 243 89 q 311 103 292 89 q 341 141 329 117 q 358 199 353 165 q 364 271 364 232 l 364 408 l 471 408 l 471 271 q 497 136 471 182 q 567 89 524 89 q 609 102 591 89 q 638 142 627 115 q 656 214 650 170 q 661 319 661 258 z "},"Ḿ":{"ha":833,"x_min":77,"x_max":757,"o":"m 361 0 l 172 868 l 167 868 q 179 593 179 688 l 179 0 l 77 0 l 77 991 l 244 991 l 412 183 l 416 183 l 586 991 l 757 991 l 757 0 l 653 0 l 653 602 q 663 867 653 671 l 657 867 l 465 0 l 361 0 m 351 1090 q 469 1295 415 1181 l 618 1295 l 618 1280 q 433 1072 542 1163 l 351 1072 l 351 1090 z "},"ḿ":{"ha":833,"x_min":62,"x_max":772,"o":"m 663 0 l 663 479 q 645 617 663 578 q 585 656 627 656 q 499 600 526 656 q 472 411 472 543 l 472 0 l 363 0 l 363 479 q 278 656 363 656 q 197 602 221 656 q 172 386 172 548 l 172 0 l 62 0 l 62 745 l 149 745 l 167 644 l 174 644 q 310 758 219 758 q 454 635 420 758 l 458 635 q 607 758 510 758 q 733 695 694 758 q 772 486 772 633 l 772 0 l 663 0 m 370 860 q 488 1064 433 950 l 636 1064 l 636 1050 q 452 842 560 932 l 370 842 l 370 860 z "},"Ḁ":{"ha":833,"x_min":22,"x_max":811,"o":"m 681 0 l 583 307 l 250 307 l 151 0 l 22 0 l 350 996 l 482 996 l 811 0 l 681 0 m 547 419 l 457 707 q 415 860 431 791 q 384 736 401 793 l 286 419 l 547 419 m 571 -229 q 559 -291 571 -264 q 526 -338 547 -319 q 477 -367 505 -357 q 415 -376 448 -376 q 353 -367 381 -376 q 306 -338 326 -357 q 275 -292 286 -319 q 264 -231 264 -265 q 275 -169 264 -196 q 306 -123 286 -142 q 353 -95 326 -104 q 415 -85 381 -85 q 476 -95 448 -85 q 526 -123 505 -104 q 559 -169 547 -142 q 571 -229 571 -195 m 492 -231 q 470 -174 492 -195 q 415 -154 449 -154 q 360 -174 382 -154 q 339 -231 339 -195 q 358 -287 339 -267 q 415 -307 378 -307 q 470 -287 449 -307 q 492 -231 492 -267 z "},"ḁ":{"ha":833,"x_min":92,"x_max":696,"o":"m 607 0 l 582 103 l 576 103 q 469 12 524 37 q 328 -14 414 -14 q 154 45 217 -14 q 92 208 92 103 q 437 444 92 433 l 575 449 l 575 496 q 410 656 575 656 q 187 600 310 656 l 144 693 q 404 758 277 758 q 627 699 558 758 q 696 510 696 640 l 696 0 l 607 0 m 574 364 l 464 359 q 275 318 331 354 q 220 207 220 281 q 355 86 220 86 q 514 141 455 86 q 574 297 574 197 l 574 364 m 566 -229 q 554 -291 566 -264 q 522 -338 543 -319 q 472 -367 500 -357 q 410 -376 444 -376 q 349 -367 376 -376 q 301 -338 321 -357 q 270 -292 281 -319 q 259 -231 259 -265 q 270 -169 259 -196 q 301 -123 281 -142 q 349 -95 321 -104 q 410 -85 376 -85 q 471 -95 443 -85 q 521 -123 500 -104 q 554 -169 542 -142 q 566 -229 566 -195 m 487 -231 q 466 -174 487 -195 q 410 -154 444 -154 q 356 -174 377 -154 q 334 -231 334 -195 q 354 -287 334 -267 q 410 -307 373 -307 q 466 -287 444 -307 q 487 -231 487 -267 z "},"Ὅ":{"ha":833,"x_min":-212,"x_max":876,"o":"m 516 -14 q 155 498 155 -14 q 517 1007 155 1007 q 784 874 691 1007 q 876 497 876 742 q 783 119 876 252 q 516 -14 689 -14 m 516 97 q 688 195 633 97 q 743 497 743 294 q 687 799 743 703 q 517 896 632 896 q 289 497 289 896 q 516 97 289 97 m -212 851 q -171 943 -212 904 q -47 1003 -130 982 l -47 951 q -107 921 -88 937 q -127 889 -127 905 q -116 870 -127 876 q -94 859 -106 864 q -71 844 -81 853 q -60 817 -60 836 q -77 778 -60 791 q -125 765 -94 765 q -189 789 -165 765 q -212 851 -212 812 m -2 787 q 14 833 5 808 q 31 885 22 859 q 46 940 39 912 q 59 991 54 967 l 199 991 l 199 978 q 171 930 187 956 q 136 877 155 904 q 96 822 117 850 q 54 770 75 795 l -2 770 l -2 787 z "},"˳":{"ha":833,"x_min":262,"x_max":570,"o":"m 570 -229 q 558 -291 570 -264 q 525 -338 546 -319 q 475 -367 504 -357 q 414 -376 447 -376 q 352 -367 380 -376 q 304 -338 324 -357 q 273 -292 284 -319 q 262 -231 262 -265 q 273 -169 262 -196 q 304 -123 284 -142 q 352 -95 324 -104 q 414 -85 380 -85 q 475 -95 446 -85 q 524 -123 503 -104 q 557 -169 545 -142 q 570 -229 570 -195 m 490 -231 q 469 -174 490 -195 q 414 -154 448 -154 q 359 -174 380 -154 q 338 -231 338 -195 q 357 -287 338 -267 q 414 -307 376 -307 q 469 -287 448 -307 q 490 -231 490 -267 z "},"ﬃ":{"ha":833,"x_min":45,"x_max":722,"o":"m 722 0 l 611 0 l 611 659 l 473 659 l 473 0 l 363 0 l 363 659 l 224 659 l 224 0 l 113 0 l 113 659 l 45 659 l 45 703 l 113 745 l 113 800 q 126 920 113 872 q 166 996 140 968 q 230 1037 192 1025 q 317 1048 268 1048 q 379 1041 350 1048 q 432 1025 409 1034 q 492 1054 458 1044 q 570 1063 527 1063 q 636 1055 605 1063 q 692 1038 667 1047 l 664 949 q 621 962 644 956 q 572 968 597 968 q 528 960 547 968 q 497 935 509 953 q 479 888 485 918 q 473 815 473 859 l 473 745 l 722 745 l 722 0 m 224 745 l 363 745 l 363 814 q 379 945 363 892 q 350 951 366 949 q 319 954 335 954 q 278 947 296 954 q 248 922 260 939 q 230 874 236 904 q 224 802 224 845 l 224 745 z "},"ﬄ":{"ha":833,"x_min":45,"x_max":722,"o":"m 570 659 l 473 659 l 473 0 l 363 0 l 363 659 l 224 659 l 224 0 l 113 0 l 113 659 l 45 659 l 45 703 l 113 745 l 113 800 q 126 920 113 872 q 166 996 140 968 q 230 1037 192 1025 q 317 1048 268 1048 q 379 1041 350 1048 q 432 1025 409 1034 q 492 1054 458 1044 q 570 1063 527 1063 q 633 1055 602 1063 l 722 1055 l 722 0 l 611 0 l 611 964 q 592 967 602 966 q 572 968 582 968 q 528 960 547 968 q 497 935 509 953 q 479 888 485 918 q 473 815 473 859 l 473 745 l 570 745 l 570 659 m 224 745 l 363 745 l 363 814 q 379 945 363 892 q 350 951 366 949 q 319 954 335 954 q 278 947 296 954 q 248 922 260 939 q 230 874 236 904 q 224 802 224 845 l 224 745 z "},"Ơ":{"ha":833,"x_min":57,"x_max":861,"o":"m 778 497 q 756 288 778 382 q 690 127 734 194 q 577 23 645 60 q 418 -14 509 -14 q 253 23 321 -14 q 141 127 185 60 q 77 289 98 194 q 57 498 57 383 q 77 708 57 614 q 141 868 98 802 q 254 971 185 935 q 419 1007 323 1007 q 567 977 503 1007 q 675 888 630 946 q 695 918 687 901 q 707 957 703 936 q 713 1003 711 979 q 717 1055 715 1028 l 851 1055 l 861 1040 q 843 971 854 1005 q 815 908 831 938 q 775 854 798 879 q 721 810 752 829 q 764 669 749 748 q 778 497 778 590 m 191 497 q 203 330 191 404 q 242 204 215 256 q 312 124 269 152 q 418 97 355 97 q 524 124 481 97 q 594 204 568 152 q 632 330 621 256 q 644 497 644 404 q 632 665 644 591 q 594 790 621 739 q 525 868 568 841 q 419 896 481 896 q 313 868 356 896 q 242 790 269 841 q 203 665 215 739 q 191 497 191 591 z "},"ơ":{"ha":833,"x_min":78,"x_max":861,"o":"m 754 374 q 729 209 754 281 q 659 87 704 136 q 551 12 614 38 q 414 -14 489 -14 q 283 12 344 -14 q 176 87 222 38 q 104 209 131 136 q 78 374 78 281 q 103 537 78 466 q 172 658 127 609 q 280 733 217 707 q 418 758 342 758 q 542 736 484 758 q 644 669 600 713 q 685 699 670 680 q 706 743 699 718 q 715 797 713 767 q 717 859 717 826 l 851 859 l 861 843 q 837 758 851 796 q 803 688 823 719 q 759 634 784 657 q 700 597 733 612 q 740 497 726 553 q 754 374 754 441 m 205 374 q 259 160 205 231 q 416 89 312 89 q 627 374 627 89 q 573 586 627 516 q 415 656 520 656 q 258 586 311 656 q 205 374 205 516 z "},"Ư":{"ha":833,"x_min":85,"x_max":884,"o":"m 644 991 l 644 860 q 695 883 676 865 q 723 927 713 901 q 736 986 733 953 q 739 1055 739 1019 l 873 1055 l 884 1040 q 857 950 873 994 q 813 872 841 907 q 744 811 785 836 q 644 774 703 785 l 644 322 q 629 183 644 245 q 580 77 614 121 q 493 10 547 33 q 361 -14 439 -14 q 235 8 288 -14 q 150 73 183 31 q 100 179 116 116 q 85 325 85 242 l 85 991 l 211 991 l 211 332 q 219 229 211 273 q 245 155 227 184 q 294 112 264 126 q 368 97 324 97 q 443 113 414 97 q 489 160 472 130 q 512 234 505 191 q 518 334 518 278 l 518 991 l 644 991 z "},"ư":{"ha":833,"x_min":109,"x_max":884,"o":"m 533 0 l 515 100 l 510 100 q 475 49 495 71 q 430 14 454 28 q 378 -7 406 0 q 323 -14 351 -14 q 230 2 270 -14 q 162 51 189 18 q 122 136 136 84 q 109 258 109 187 l 109 745 l 232 745 l 232 265 q 260 133 232 177 q 350 89 289 89 q 425 106 395 89 q 475 158 456 124 q 502 243 494 193 q 510 358 510 293 l 510 745 l 633 745 l 633 661 q 690 682 669 665 q 722 726 711 699 q 736 786 732 752 q 739 859 739 821 l 873 859 l 884 843 q 857 749 873 795 q 811 666 840 703 q 739 604 782 629 q 633 575 696 580 l 633 0 l 533 0 z "},"̀":{"ha":833,"x_min":283,"x_max":550,"o":"m 550 842 l 468 842 q 283 1050 355 938 l 283 1064 l 432 1064 q 550 860 490 943 l 550 842 z "},"́":{"ha":833,"x_min":283,"x_max":550,"o":"m 283 860 q 401 1064 347 950 l 550 1064 l 550 1050 q 366 842 474 932 l 283 842 l 283 860 z "},"̃":{"ha":833,"x_min":172,"x_max":660,"o":"m 243 842 l 172 842 q 315 1021 189 1021 q 425 983 355 1021 q 517 945 494 945 q 589 1022 571 945 l 660 1022 q 517 843 642 843 q 410 882 478 843 q 315 920 342 920 q 243 842 260 920 z "},"̉":{"ha":833,"x_min":290,"x_max":543,"o":"m 543 1011 q 534 965 543 985 q 510 931 525 945 q 474 909 494 918 q 431 895 454 900 l 424 819 l 347 819 l 338 939 q 383 948 363 943 q 417 962 403 954 q 439 981 431 970 q 447 1008 447 992 q 440 1036 447 1025 q 421 1053 433 1046 q 392 1062 409 1059 q 355 1064 375 1064 q 319 1063 336 1064 q 290 1060 301 1062 l 290 1133 q 318 1137 301 1135 q 363 1139 335 1139 q 498 1108 453 1139 q 543 1011 543 1077 z "},"̣":{"ha":833,"x_min":345,"x_max":489,"o":"m 345 -167 q 365 -107 345 -126 q 416 -89 386 -89 q 468 -107 446 -89 q 489 -167 489 -126 q 483 -201 489 -186 q 468 -225 477 -216 q 445 -239 458 -235 q 416 -244 431 -244 q 365 -225 386 -244 q 345 -167 345 -207 z "},"Ѐ":{"ha":833,"x_min":147,"x_max":718,"o":"m 718 0 l 147 0 l 147 991 l 718 991 l 718 880 l 273 880 l 273 574 l 692 574 l 692 464 l 273 464 l 273 111 l 718 111 l 718 0 m 500 1071 l 418 1071 q 234 1279 306 1167 l 234 1293 l 382 1293 q 500 1089 441 1173 l 500 1071 z "},"Ѝ":{"ha":833,"x_min":93,"x_max":742,"o":"m 93 991 l 211 991 l 211 449 q 206 277 211 353 l 201 175 l 205 175 l 597 991 l 742 991 l 742 0 l 625 0 l 625 538 q 637 821 625 633 l 632 821 l 239 0 l 93 0 l 93 991 m 499 1071 l 417 1071 q 233 1279 304 1167 l 233 1293 l 381 1293 q 499 1089 439 1173 l 499 1071 z "},"ѐ":{"ha":833,"x_min":90,"x_max":743,"o":"m 743 349 l 218 349 q 452 94 224 94 q 703 146 584 94 l 703 37 q 456 -14 590 -14 q 190 88 290 -14 q 90 367 90 189 q 182 653 90 547 q 428 758 274 758 q 657 667 572 758 q 743 425 743 576 l 743 349 m 221 449 l 610 449 q 425 656 610 656 q 221 449 239 656 m 520 842 l 438 842 q 254 1050 326 938 l 254 1064 l 402 1064 q 520 860 460 943 l 520 842 z "},"ѝ":{"ha":833,"x_min":109,"x_max":725,"o":"m 225 745 l 225 292 l 216 121 l 567 745 l 725 745 l 725 0 l 608 0 l 608 439 l 615 623 l 267 0 l 109 0 l 109 745 l 225 745 m 498 842 l 416 842 q 231 1050 303 938 l 231 1064 l 380 1064 q 498 860 438 943 l 498 842 z "},"Ѡ":{"ha":833,"x_min":56,"x_max":778,"o":"m 475 126 q 539 97 501 97 q 594 127 572 97 q 631 213 617 157 q 652 346 646 269 q 659 519 659 424 q 632 800 659 706 q 561 893 606 893 q 496 873 524 893 l 464 977 q 517 998 487 992 q 579 1004 547 1004 q 728 883 678 1004 q 778 518 778 761 q 766 289 778 388 q 728 122 755 189 q 659 21 702 55 q 551 -14 615 -14 q 511 -9 529 -14 q 477 3 492 -5 q 447 24 461 12 q 416 53 432 37 q 387 24 401 37 q 357 3 373 12 q 324 -9 342 -5 q 283 -14 306 -14 q 176 21 220 -14 q 106 122 133 55 q 67 289 79 189 q 56 518 56 388 q 105 883 56 761 q 254 1004 155 1004 q 317 998 287 1004 q 370 977 347 992 l 338 873 q 272 893 310 893 q 201 800 227 893 q 175 519 175 706 q 181 346 175 424 q 202 213 188 269 q 240 127 217 157 q 296 97 263 97 q 359 126 334 97 l 359 449 l 475 449 l 475 126 z "},"ѡ":{"ha":833,"x_min":-3,"x_max":787,"o":"m 192 0 l -3 745 l 106 745 l 216 286 q 241 175 230 229 q 258 87 253 122 l 261 87 q 270 119 264 100 q 281 160 275 138 q 294 204 287 182 q 307 248 300 227 l 366 432 l 292 745 l 393 745 l 486 343 q 499 288 492 321 q 514 221 507 256 q 530 153 522 186 q 542 98 537 121 l 546 98 q 615 240 589 169 q 657 389 642 311 q 678 555 673 467 q 684 745 684 642 l 787 745 q 779 536 787 634 q 747 348 770 439 q 687 172 725 258 q 589 0 648 86 l 478 0 l 421 231 q 413 267 416 248 q 407 300 409 286 q 398 265 404 286 q 387 229 393 244 l 315 0 l 192 0 z "},"Ѣ":{"ha":833,"x_min":14,"x_max":774,"o":"m 343 574 l 407 574 q 580 551 510 574 q 693 491 650 529 q 755 401 736 452 q 774 290 774 349 q 753 171 774 224 q 690 79 733 117 q 582 21 648 41 q 425 0 516 0 l 216 0 l 216 760 l 14 760 l 14 871 l 216 871 l 216 1055 l 343 1055 l 343 871 l 610 871 l 610 760 l 343 760 l 343 574 m 343 109 l 414 109 q 588 153 532 109 q 643 290 643 198 q 627 371 643 338 q 581 424 612 404 q 503 453 550 444 q 393 463 456 463 l 343 463 l 343 109 z "},"ѣ":{"ha":833,"x_min":14,"x_max":754,"o":"m 501 640 l 298 640 l 298 439 l 472 439 q 685 386 616 439 q 754 228 754 333 q 738 134 754 176 q 688 62 722 92 q 600 16 654 32 q 469 0 546 0 l 175 0 l 175 640 l 14 640 l 14 745 l 175 745 l 175 895 l 298 895 l 298 745 l 501 745 l 501 640 m 298 335 l 298 102 l 461 102 q 530 107 498 102 q 585 127 562 113 q 621 163 608 141 q 633 218 633 186 q 622 274 633 252 q 589 310 611 296 q 534 329 567 323 q 458 335 502 335 l 298 335 z "},"Ѥ":{"ha":833,"x_min":66,"x_max":818,"o":"m 619 895 q 534 873 573 895 q 467 810 496 851 q 419 709 438 768 q 395 574 401 649 l 711 574 l 711 464 l 392 464 q 409 308 394 376 q 453 193 425 239 q 525 121 482 146 q 623 97 567 97 q 707 109 667 97 q 785 136 746 121 l 785 26 q 744 8 764 16 q 703 -4 724 1 q 656 -11 681 -9 q 602 -14 631 -14 q 460 20 520 -14 q 359 117 399 54 q 297 267 318 179 q 273 463 276 355 l 179 463 l 179 0 l 66 0 l 66 991 l 179 991 l 179 574 l 277 574 q 310 750 284 671 q 379 887 336 830 q 483 975 422 943 q 619 1006 543 1006 q 727 991 676 1006 q 818 947 777 976 l 768 842 q 702 879 738 863 q 619 895 666 895 z "},"ѥ":{"ha":833,"x_min":109,"x_max":778,"o":"m 607 -14 q 499 6 549 -14 q 410 67 448 26 q 347 175 371 109 q 319 332 323 240 l 218 332 l 218 0 l 109 0 l 109 745 l 218 745 l 218 436 l 321 436 q 354 584 328 523 q 418 684 379 646 q 506 741 456 723 q 612 758 556 758 q 659 755 635 758 q 703 747 682 752 q 744 734 725 741 q 778 718 764 726 l 746 614 q 715 627 732 621 q 680 638 698 633 q 645 647 663 644 q 612 650 628 650 q 485 598 529 650 q 433 435 441 547 l 717 435 l 717 330 l 432 330 q 447 223 435 268 q 481 150 459 178 q 534 108 503 121 q 607 94 566 94 q 695 107 656 94 q 766 136 734 119 l 766 26 q 697 -3 734 7 q 607 -14 660 -14 z "},"Ѧ":{"ha":833,"x_min":0,"x_max":833,"o":"m 358 463 l 282 463 l 121 0 l 0 0 l 353 991 l 479 991 l 833 0 l 710 0 l 549 463 l 471 463 l 471 0 l 358 0 l 358 463 m 321 567 l 514 567 l 488 642 q 445 770 463 713 q 415 879 428 828 q 382 766 403 828 q 343 642 362 704 l 321 567 z "},"ѧ":{"ha":833,"x_min":41,"x_max":790,"o":"m 494 745 l 790 0 l 663 0 l 538 332 l 471 332 l 471 0 l 361 0 l 361 332 l 290 332 l 165 0 l 41 0 l 338 745 l 494 745 m 500 436 q 478 490 490 460 q 455 552 467 521 q 433 613 443 584 q 418 663 423 642 l 410 663 q 394 613 404 643 q 372 552 384 584 q 349 490 361 521 q 329 436 338 459 l 500 436 z "},"Ѩ":{"ha":833,"x_min":66,"x_max":865,"o":"m 493 463 l 461 463 l 347 0 l 233 0 l 353 463 l 179 463 l 179 0 l 66 0 l 66 991 l 179 991 l 179 571 l 379 571 l 489 991 l 607 991 l 865 0 l 751 0 l 635 463 l 604 463 l 604 0 l 493 0 l 493 463 m 488 571 l 611 571 l 599 628 q 570 746 584 694 q 549 848 557 798 q 528 746 541 798 q 501 632 515 694 l 488 571 z "},"ѩ":{"ha":833,"x_min":83,"x_max":875,"o":"m 628 745 l 875 0 l 761 0 l 656 332 l 616 332 l 616 0 l 507 0 l 507 332 l 468 332 l 361 0 l 249 0 l 359 332 l 193 332 l 193 0 l 83 0 l 83 745 l 193 745 l 193 436 l 393 436 l 496 745 l 628 745 m 561 664 q 551 618 558 647 q 535 556 544 589 q 517 492 526 524 q 500 436 508 460 l 624 436 q 606 492 616 460 q 588 556 597 524 q 572 618 579 589 q 562 664 565 647 l 561 664 z "},"Ѫ":{"ha":833,"x_min":0,"x_max":833,"o":"m 0 0 l 77 307 q 107 411 91 365 q 150 490 124 457 q 214 543 176 524 q 311 567 253 563 l 85 897 l 85 991 l 750 991 l 750 897 l 524 567 q 622 544 584 563 q 686 492 661 525 q 727 412 711 458 q 757 307 743 366 l 833 0 l 718 0 l 642 304 q 618 386 629 353 q 590 437 606 418 q 549 464 573 456 q 489 472 526 472 l 473 472 l 473 0 l 359 0 l 359 472 l 345 472 q 284 464 308 472 q 244 437 260 456 q 216 386 227 418 q 192 304 204 353 l 115 0 l 0 0 m 419 586 l 618 880 l 220 880 l 419 586 z "},"ѫ":{"ha":833,"x_min":7,"x_max":827,"o":"m 7 0 l 87 231 q 116 306 102 272 q 153 367 130 340 q 209 409 175 393 q 297 432 243 426 l 96 673 l 96 745 l 739 745 l 739 673 l 534 432 q 623 410 589 427 q 679 368 656 393 q 716 307 701 342 q 746 231 731 273 l 827 0 l 704 0 l 624 228 q 598 289 610 264 q 570 328 586 313 q 532 348 554 342 q 475 354 509 354 l 472 354 l 472 0 l 361 0 l 361 354 l 358 354 q 301 348 323 354 q 262 328 279 342 q 234 289 246 313 q 208 228 222 264 l 127 0 l 7 0 m 415 436 l 582 640 l 252 640 l 415 436 z "}}}
